<svg width="1440" height="508" viewBox="0 0 1440 508" fill="none" xmlns="http://www.w3.org/2000/svg">
<rect x="-28" width="1477" height="508" fill="#FAF7F0"/>
<g clip-path="url(#clip0_473_350)">
<path d="M1379.88 125.835L1378.98 126.878L1380.02 127.783L1380.93 126.74L1379.88 125.835Z" fill="#C4C3C2"/>
<path d="M1386.19 131.305L1385.28 132.348L1386.32 133.253L1387.23 132.21L1386.19 131.305Z" fill="#C4C3C2"/>
<path d="M1392.49 136.78L1391.59 137.823L1392.63 138.728L1393.54 137.685L1392.49 136.78Z" fill="#C4C3C2"/>
<path d="M1398.8 142.25L1397.89 143.293L1398.94 144.198L1399.84 143.155L1398.8 142.25Z" fill="#C4C3C2"/>
<path d="M1405.1 147.72L1404.2 148.763L1405.24 149.668L1406.14 148.625L1405.1 147.72Z" fill="#C4C3C2"/>
<path d="M1411.4 153.19L1410.5 154.233L1411.54 155.138L1412.45 154.095L1411.4 153.19Z" fill="#C4C3C2"/>
<path d="M1417.71 158.664L1416.81 159.707L1417.85 160.612L1418.76 159.569L1417.71 158.664Z" fill="#C4C3C2"/>
<path d="M1424.02 164.134L1423.11 165.177L1424.15 166.082L1425.06 165.04L1424.02 164.134Z" fill="#C4C3C2"/>
<path d="M1430.32 169.604L1429.41 170.647L1430.46 171.553L1431.36 170.51L1430.32 169.604Z" fill="#C4C3C2"/>
<path d="M1436.63 175.079L1435.72 176.122L1436.76 177.027L1437.67 175.984L1436.63 175.079Z" fill="#C4C3C2"/>
<path d="M1384.84 120.126L1383.93 121.169L1384.98 122.074L1385.88 121.031L1384.84 120.126Z" fill="#C4C3C2"/>
<path d="M1391.14 125.596L1390.24 126.639L1391.28 127.545L1392.18 126.502L1391.14 125.596Z" fill="#C4C3C2"/>
<path d="M1397.45 131.071L1396.54 132.114L1397.59 133.019L1398.49 131.976L1397.45 131.071Z" fill="#C4C3C2"/>
<path d="M1403.75 136.541L1402.85 137.584L1403.89 138.489L1404.8 137.446L1403.75 136.541Z" fill="#C4C3C2"/>
<path d="M1410.06 142.011L1409.15 143.054L1410.19 143.959L1411.1 142.916L1410.06 142.011Z" fill="#C4C3C2"/>
<path d="M1416.36 147.481L1415.45 148.524L1416.5 149.429L1417.4 148.386L1416.36 147.481Z" fill="#C4C3C2"/>
<path d="M1422.67 152.956L1421.76 153.999L1422.8 154.904L1423.71 153.861L1422.67 152.956Z" fill="#C4C3C2"/>
<path d="M1428.97 158.426L1428.06 159.469L1429.11 160.374L1430.01 159.331L1428.97 158.426Z" fill="#C4C3C2"/>
<path d="M1435.27 163.896L1434.37 164.939L1435.41 165.844L1436.32 164.801L1435.27 163.896Z" fill="#C4C3C2"/>
<path d="M1389.79 114.418L1388.89 115.461L1389.93 116.366L1390.83 115.323L1389.79 114.418Z" fill="#C4C3C2"/>
<path d="M1396.1 119.888L1395.19 120.931L1396.23 121.836L1397.14 120.793L1396.1 119.888Z" fill="#C4C3C2"/>
<path d="M1402.4 125.362L1401.5 126.405L1402.54 127.31L1403.45 126.267L1402.4 125.362Z" fill="#C4C3C2"/>
<path d="M1408.71 130.832L1407.8 131.875L1408.84 132.781L1409.75 131.738L1408.71 130.832Z" fill="#C4C3C2"/>
<path d="M1415.01 136.303L1414.1 137.345L1415.15 138.251L1416.05 137.208L1415.01 136.303Z" fill="#C4C3C2"/>
<path d="M1421.31 141.773L1420.41 142.816L1421.45 143.721L1422.36 142.678L1421.31 141.773Z" fill="#C4C3C2"/>
<path d="M1427.62 147.247L1426.72 148.29L1427.76 149.195L1428.66 148.152L1427.62 147.247Z" fill="#C4C3C2"/>
<path d="M1433.92 152.717L1433.02 153.76L1434.06 154.665L1434.97 153.622L1433.92 152.717Z" fill="#C4C3C2"/>
<path d="M1440.23 158.187L1439.32 159.23L1440.36 160.135L1441.27 159.092L1440.23 158.187Z" fill="#C4C3C2"/>
<path d="M1394.75 108.709L1393.84 109.752L1394.88 110.657L1395.79 109.614L1394.75 108.709Z" fill="#C4C3C2"/>
<path d="M1401.05 114.179L1400.14 115.222L1401.19 116.127L1402.09 115.084L1401.05 114.179Z" fill="#C4C3C2"/>
<path d="M1407.36 119.654L1406.45 120.697L1407.5 121.602L1408.4 120.559L1407.36 119.654Z" fill="#C4C3C2"/>
<path d="M1413.66 125.124L1412.76 126.167L1413.8 127.072L1414.7 126.029L1413.66 125.124Z" fill="#C4C3C2"/>
<path d="M1419.96 130.594L1419.06 131.637L1420.1 132.542L1421.01 131.499L1419.96 130.594Z" fill="#C4C3C2"/>
<path d="M1426.27 136.064L1425.36 137.107L1426.4 138.012L1427.31 136.969L1426.27 136.064Z" fill="#C4C3C2"/>
<path d="M1432.58 141.538L1431.67 142.581L1432.71 143.487L1433.62 142.444L1432.58 141.538Z" fill="#C4C3C2"/>
<path d="M1438.88 147.009L1437.97 148.052L1439.02 148.957L1439.92 147.914L1438.88 147.009Z" fill="#C4C3C2"/>
<path d="M1399.7 103.001L1398.8 104.044L1399.84 104.949L1400.74 103.906L1399.7 103.001Z" fill="#C4C3C2"/>
<path d="M1406 108.471L1405.1 109.514L1406.14 110.419L1407.05 109.376L1406 108.471Z" fill="#C4C3C2"/>
<path d="M1412.31 113.945L1411.41 114.988L1412.45 115.893L1413.35 114.85L1412.31 113.945Z" fill="#C4C3C2"/>
<path d="M1418.61 119.415L1417.71 120.458L1418.75 121.363L1419.66 120.32L1418.61 119.415Z" fill="#C4C3C2"/>
<path d="M1424.92 124.885L1424.01 125.928L1425.06 126.833L1425.96 125.79L1424.92 124.885Z" fill="#C4C3C2"/>
<path d="M1431.22 130.355L1430.32 131.398L1431.36 132.303L1432.26 131.261L1431.22 130.355Z" fill="#C4C3C2"/>
<path d="M1437.53 135.83L1436.62 136.873L1437.67 137.778L1438.57 136.735L1437.53 135.83Z" fill="#C4C3C2"/>
<path d="M1404.65 97.2919L1403.75 98.3349L1404.79 99.24L1405.7 98.1971L1404.65 97.2919Z" fill="#C4C3C2"/>
<path d="M1410.96 102.762L1410.05 103.805L1411.1 104.71L1412 103.667L1410.96 102.762Z" fill="#C4C3C2"/>
<path d="M1417.27 108.236L1416.36 109.279L1417.4 110.185L1418.31 109.142L1417.27 108.236Z" fill="#C4C3C2"/>
<path d="M1423.57 113.707L1422.66 114.75L1423.71 115.655L1424.61 114.612L1423.57 113.707Z" fill="#C4C3C2"/>
<path d="M1429.87 119.177L1428.97 120.22L1430.01 121.125L1430.91 120.082L1429.87 119.177Z" fill="#C4C3C2"/>
<path d="M1436.18 124.647L1435.27 125.69L1436.31 126.595L1437.22 125.552L1436.18 124.647Z" fill="#C4C3C2"/>
<path d="M1409.61 91.5833L1408.7 92.6263L1409.75 93.5314L1410.65 92.4884L1409.61 91.5833Z" fill="#C4C3C2"/>
<path d="M1415.91 97.0534L1415.01 98.0964L1416.05 99.0015L1416.95 97.9586L1415.91 97.0534Z" fill="#C4C3C2"/>
<path d="M1422.22 102.528L1421.31 103.571L1422.36 104.476L1423.26 103.433L1422.22 102.528Z" fill="#C4C3C2"/>
<path d="M1428.52 107.998L1427.62 109.041L1428.66 109.946L1429.57 108.903L1428.52 107.998Z" fill="#C4C3C2"/>
<path d="M1434.83 113.468L1433.92 114.511L1434.96 115.416L1435.87 114.373L1434.83 113.468Z" fill="#C4C3C2"/>
<path d="M1414.56 85.8798L1413.65 86.9227L1414.7 87.8279L1415.6 86.7849L1414.56 85.8798Z" fill="#C4C3C2"/>
<path d="M1420.86 91.3498L1419.96 92.3928L1421 93.2979L1421.9 92.255L1420.86 91.3498Z" fill="#C4C3C2"/>
<path d="M1427.17 96.8243L1426.26 97.8673L1427.31 98.7724L1428.21 97.7295L1427.17 96.8243Z" fill="#C4C3C2"/>
<path d="M1433.47 102.294L1432.57 103.337L1433.61 104.243L1434.52 103.2L1433.47 102.294Z" fill="#C4C3C2"/>
<path d="M1439.78 107.765L1438.87 108.807L1439.91 109.713L1440.82 108.67L1439.78 107.765Z" fill="#C4C3C2"/>
<path d="M1419.51 80.1712L1418.61 81.2141L1419.65 82.1193L1420.56 81.0763L1419.51 80.1712Z" fill="#C4C3C2"/>
<path d="M1425.82 85.6413L1424.91 86.6842L1425.95 87.5893L1426.86 86.5464L1425.82 85.6413Z" fill="#C4C3C2"/>
<path d="M1432.12 91.1157L1431.22 92.1587L1432.26 93.0638L1433.17 92.0209L1432.12 91.1157Z" fill="#C4C3C2"/>
<path d="M1438.43 96.5858L1437.52 97.6288L1438.56 98.5339L1439.47 97.4909L1438.43 96.5858Z" fill="#C4C3C2"/>
<path d="M1424.47 74.4626L1423.56 75.5055L1424.6 76.4106L1425.51 75.3677L1424.47 74.4626Z" fill="#C4C3C2"/>
<path d="M1430.77 79.9326L1429.86 80.9756L1430.91 81.8807L1431.81 80.8378L1430.77 79.9326Z" fill="#C4C3C2"/>
<path d="M1437.08 85.4071L1436.17 86.4501L1437.22 87.3552L1438.12 86.3122L1437.08 85.4071Z" fill="#C4C3C2"/>
<path d="M1429.42 68.7539L1428.52 69.7969L1429.56 70.702L1430.46 69.6591L1429.42 68.7539Z" fill="#C4C3C2"/>
<path d="M1435.72 74.224L1434.82 75.267L1435.86 76.1721L1436.77 75.1292L1435.72 74.224Z" fill="#C4C3C2"/>
</g>
<g clip-path="url(#clip1_473_350)">
<path d="M8.48863 340.489L7.47198 339.472L6.45534 340.489L7.47198 341.505L8.48863 340.489Z" fill="#C4C3C2"/>
<path d="M2.34459 346.633L1.32794 345.616L0.311299 346.633L1.32794 347.65L2.34459 346.633Z" fill="#C4C3C2"/>
<path d="M14.0531 346.053L13.0365 345.037L12.0199 346.053L13.0365 347.07L14.0531 346.053Z" fill="#C4C3C2"/>
<path d="M7.9091 352.197L6.89246 351.181L5.87581 352.197L6.89246 353.214L7.9091 352.197Z" fill="#C4C3C2"/>
<path d="M1.76011 358.346L0.743469 357.33L-0.273175 358.346L0.743468 359.363L1.76011 358.346Z" fill="#C4C3C2"/>
<path d="M19.6177 351.618L18.6011 350.601L17.5844 351.618L18.6011 352.635L19.6177 351.618Z" fill="#C4C3C2"/>
<path d="M13.4736 357.762L12.457 356.745L11.4403 357.762L12.457 358.779L13.4736 357.762Z" fill="#C4C3C2"/>
<path d="M7.32463 363.911L6.30798 362.894L5.29134 363.911L6.30798 364.928L7.32463 363.911Z" fill="#C4C3C2"/>
<path d="M1.18058 370.055L0.16394 369.038L-0.8527 370.055L0.163944 371.072L1.18058 370.055Z" fill="#C4C3C2"/>
<path d="M25.1822 357.182L24.1656 356.166L23.1489 357.182L24.1656 358.199L25.1822 357.182Z" fill="#C4C3C2"/>
<path d="M19.0381 363.326L18.0215 362.31L17.0048 363.326L18.0215 364.343L19.0381 363.326Z" fill="#C4C3C2"/>
<path d="M12.8891 369.475L11.8725 368.459L10.8559 369.475L11.8725 370.492L12.8891 369.475Z" fill="#C4C3C2"/>
<path d="M6.74509 375.619L5.72845 374.603L4.71181 375.619L5.72845 376.636L6.74509 375.619Z" fill="#C4C3C2"/>
<path d="M0.601052 381.764L-0.415588 380.747L-1.43223 381.764L-0.41559 382.78L0.601052 381.764Z" fill="#C4C3C2"/>
<path d="M30.7467 362.747L29.7301 361.73L28.7135 362.747L29.7301 363.764L30.7467 362.747Z" fill="#C4C3C2"/>
<path d="M24.6026 368.891L23.586 367.874L22.5694 368.891L23.586 369.908L24.6026 368.891Z" fill="#C4C3C2"/>
<path d="M18.4537 375.04L17.4371 374.023L16.4204 375.04L17.4371 376.057L18.4537 375.04Z" fill="#C4C3C2"/>
<path d="M12.3096 381.184L11.293 380.167L10.2763 381.184L11.293 382.201L12.3096 381.184Z" fill="#C4C3C2"/>
<path d="M6.16557 387.328L5.14893 386.311L4.13228 387.328L5.14893 388.345L6.16557 387.328Z" fill="#C4C3C2"/>
<path d="M0.0215268 393.472L-0.995117 392.455L-2.01176 393.472L-0.995114 394.489L0.0215268 393.472Z" fill="#C4C3C2"/>
<path d="M36.3113 368.311L35.2946 367.295L34.278 368.311L35.2946 369.328L36.3113 368.311Z" fill="#C4C3C2"/>
<path d="M30.1672 374.456L29.1506 373.439L28.1339 374.456L29.1506 375.472L30.1672 374.456Z" fill="#C4C3C2"/>
<path d="M24.0182 380.604L23.0016 379.588L21.9849 380.604L23.0016 381.621L24.0182 380.604Z" fill="#C4C3C2"/>
<path d="M17.8742 386.749L16.8575 385.732L15.8409 386.749L16.8575 387.765L17.8742 386.749Z" fill="#C4C3C2"/>
<path d="M11.7301 392.893L10.7134 391.876L9.6968 392.893L10.7134 393.909L11.7301 392.893Z" fill="#C4C3C2"/>
<path d="M5.58604 399.037L4.5694 398.02L3.55276 399.037L4.5694 400.053L5.58604 399.037Z" fill="#C4C3C2"/>
<path d="M41.8758 373.876L40.8591 372.859L39.8425 373.876L40.8591 374.893L41.8758 373.876Z" fill="#C4C3C2"/>
<path d="M35.7317 380.02L34.7151 379.003L33.6984 380.02L34.7151 381.037L35.7317 380.02Z" fill="#C4C3C2"/>
<path d="M29.5827 386.169L28.5661 385.152L27.5495 386.169L28.5661 387.186L29.5827 386.169Z" fill="#C4C3C2"/>
<path d="M23.4387 392.313L22.4221 391.296L21.4054 392.313L22.4221 393.33L23.4387 392.313Z" fill="#C4C3C2"/>
<path d="M17.2947 398.457L16.278 397.44L15.2614 398.457L16.278 399.474L17.2947 398.457Z" fill="#C4C3C2"/>
<path d="M11.1506 404.601L10.1339 403.585L9.11727 404.601L10.1339 405.618L11.1506 404.601Z" fill="#C4C3C2"/>
<path d="M5.00157 410.75L3.98492 409.734L2.96828 410.75L3.98493 411.767L5.00157 410.75Z" fill="#C4C3C2"/>
<path d="M47.4354 379.436L46.4188 378.419L45.4021 379.436L46.4188 380.452L47.4354 379.436Z" fill="#C4C3C2"/>
<path d="M41.2914 385.58L40.2747 384.563L39.2581 385.58L40.2747 386.596L41.2914 385.58Z" fill="#C4C3C2"/>
<path d="M35.1424 391.729L34.1257 390.712L33.1091 391.729L34.1257 392.745L35.1424 391.729Z" fill="#C4C3C2"/>
<path d="M28.9983 397.873L27.9816 396.856L26.965 397.873L27.9816 398.889L28.9983 397.873Z" fill="#C4C3C2"/>
<path d="M22.8542 404.017L21.8376 403L20.8209 404.017L21.8376 405.033L22.8542 404.017Z" fill="#C4C3C2"/>
<path d="M16.7102 410.161L15.6935 409.144L14.6769 410.161L15.6935 411.177L16.7102 410.161Z" fill="#C4C3C2"/>
<path d="M10.5612 416.31L9.54456 415.293L8.52791 416.31L9.54456 417.326L10.5612 416.31Z" fill="#C4C3C2"/>
<path d="M4.41715 422.454L3.40051 421.437L2.38386 422.454L3.4005 423.47L4.41715 422.454Z" fill="#C4C3C2"/>
<path d="M52.9999 385L51.9833 383.983L50.9666 385L51.9833 386.017L52.9999 385Z" fill="#C4C3C2"/>
<path d="M46.8559 391.144L45.8392 390.128L44.8226 391.144L45.8392 392.161L46.8559 391.144Z" fill="#C4C3C2"/>
<path d="M40.7069 397.293L39.6902 396.276L38.6736 397.293L39.6902 398.31L40.7069 397.293Z" fill="#C4C3C2"/>
<path d="M34.5628 403.437L33.5462 402.421L32.5296 403.437L33.5462 404.454L34.5628 403.437Z" fill="#C4C3C2"/>
<path d="M28.4187 409.581L27.4021 408.565L26.3855 409.581L27.4021 410.598L28.4187 409.581Z" fill="#C4C3C2"/>
<path d="M22.2747 415.725L21.2581 414.709L20.2414 415.725L21.2581 416.742L22.2747 415.725Z" fill="#C4C3C2"/>
<path d="M16.1257 421.874L15.1091 420.858L14.0924 421.874L15.1091 422.891L16.1257 421.874Z" fill="#C4C3C2"/>
<path d="M9.98167 428.018L8.96503 427.002L7.94838 428.018L8.96502 429.035L9.98167 428.018Z" fill="#C4C3C2"/>
<path d="M3.83762 434.162L2.82098 433.146L1.80435 434.162L2.82098 435.179L3.83762 434.162Z" fill="#C4C3C2"/>
<path d="M58.5644 390.565L57.5478 389.548L56.5311 390.565L57.5478 391.581L58.5644 390.565Z" fill="#C4C3C2"/>
<path d="M52.4204 396.709L51.4037 395.692L50.3871 396.709L51.4037 397.725L52.4204 396.709Z" fill="#C4C3C2"/>
<path d="M46.2714 402.858L45.2548 401.841L44.2381 402.858L45.2548 403.874L46.2714 402.858Z" fill="#C4C3C2"/>
<path d="M40.1274 409.002L39.1107 407.985L38.0941 409.002L39.1107 410.018L40.1274 409.002Z" fill="#C4C3C2"/>
<path d="M33.9833 415.146L32.9666 414.129L31.95 415.146L32.9666 416.162L33.9833 415.146Z" fill="#C4C3C2"/>
<path d="M27.8392 421.29L26.8226 420.273L25.8059 421.29L26.8226 422.307L27.8392 421.29Z" fill="#C4C3C2"/>
<path d="M21.6903 427.439L20.6736 426.422L19.657 427.439L20.6736 428.455L21.6903 427.439Z" fill="#C4C3C2"/>
<path d="M15.5462 433.583L14.5295 432.566L13.5129 433.583L14.5295 434.6L15.5462 433.583Z" fill="#C4C3C2"/>
<path d="M9.40215 439.727L8.3855 438.71L7.36886 439.727L8.38551 440.744L9.40215 439.727Z" fill="#C4C3C2"/>
<path d="M3.25315 445.876L2.23651 444.859L1.21987 445.876L2.23651 446.893L3.25315 445.876Z" fill="#C4C3C2"/>
<path d="M64.1289 396.129L63.1123 395.113L62.0957 396.129L63.1123 397.146L64.1289 396.129Z" fill="#C4C3C2"/>
<path d="M57.9849 402.273L56.9683 401.257L55.9516 402.273L56.9683 403.29L57.9849 402.273Z" fill="#C4C3C2"/>
<path d="M51.836 408.422L50.8193 407.406L49.8027 408.422L50.8193 409.439L51.836 408.422Z" fill="#C4C3C2"/>
<path d="M45.6919 414.566L44.6752 413.55L43.6586 414.566L44.6752 415.583L45.6919 414.566Z" fill="#C4C3C2"/>
<path d="M39.5478 420.71L38.5312 419.694L37.5145 420.71L38.5312 421.727L39.5478 420.71Z" fill="#C4C3C2"/>
<path d="M33.4038 426.854L32.3871 425.838L31.3705 426.854L32.3871 427.871L33.4038 426.854Z" fill="#C4C3C2"/>
<path d="M27.2548 433.003L26.2382 431.987L25.2215 433.003L26.2382 434.02L27.2548 433.003Z" fill="#C4C3C2"/>
<path d="M21.1107 439.147L20.0941 438.131L19.0774 439.147L20.094 440.164L21.1107 439.147Z" fill="#C4C3C2"/>
<path d="M14.9667 445.291L13.95 444.275L12.9334 445.291L13.95 446.308L14.9667 445.291Z" fill="#C4C3C2"/>
<path d="M8.81766 451.44L7.80103 450.424L6.78439 451.44L7.80103 452.457L8.81766 451.44Z" fill="#C4C3C2"/>
<path d="M2.67362 457.585L1.65698 456.568L0.640338 457.585L1.65698 458.601L2.67362 457.585Z" fill="#C4C3C2"/>
</g>
<defs>
<clipPath id="clip0_473_350">
<rect width="76.9597" height="84.8585" fill="white" transform="translate(1378.98 126.878) rotate(-49.0474)"/>
</clipPath>
<clipPath id="clip1_473_350">
<rect width="80.1251" height="88.3487" fill="white" transform="translate(7.47198 339.472) rotate(45)"/>
</clipPath>
</defs>
</svg>
