<svg width="1440" height="585" viewBox="0 0 1440 585" fill="none" xmlns="http://www.w3.org/2000/svg">
<rect width="1440" height="585" fill="#FAF7F0"/>
<g clip-path="url(#clip0_458_349)">
<path d="M1568.29 540.592C1556.72 536.202 1545.15 530.05 1539.36 519.509C1536.88 515.12 1541.01 504.579 1543.49 505.452C1559.19 515.993 1578.21 511.603 1582.34 493.156C1584.82 480.861 1576.55 468.566 1564.98 465.931C1555.06 464.177 1543.49 468.566 1536.05 478.226C1528.61 487.013 1528.61 499.308 1522.82 508.968C1502.99 488.767 1482.33 469.439 1462.49 449.238C1536.88 372.823 1643.5 343.835 1746 341.199C1646.87 321.603 1540.6 345.287 1460.39 410.12C1458.3 405.378 1456.49 400.544 1454.68 395.533C1453.03 389.382 1458.81 383.238 1457.16 377.086C1454.68 372.697 1453.03 368.299 1453.03 363.029C1451.38 360.393 1453.03 355.123 1454.68 352.488C1456.33 344.582 1452.2 337.557 1452.2 329.651C1449.72 268.167 1448.07 236.543 1452.2 175.059C1454.68 177.694 1452.2 183.846 1457.99 182.965C1462.12 181.211 1457.99 175.059 1460.47 176.813C1464.6 178.567 1464.6 184.719 1464.6 190.871C1467.08 189.117 1464.6 182.084 1467.08 182.965C1469.56 182.965 1468.73 189.117 1468.73 191.752C1468.73 193.506 1467.08 193.506 1466.25 193.506C1466.25 204.047 1470.38 214.588 1468.73 226.002C1471.21 224.248 1468.73 219.85 1471.21 218.096C1472.86 218.096 1472.86 219.85 1472.86 220.732C1472.86 212.826 1472.86 205.801 1475.34 199.649C1477.82 204.039 1475.34 210.191 1476.99 214.58C1478.64 210.191 1478.64 206.674 1479.47 202.285C1481.12 197.895 1476.99 194.379 1479.47 189.989L1481.12 191.744C1481.12 189.108 1479.47 183.838 1482.78 183.838C1485.26 182.084 1484.43 186.473 1484.43 189.989C1486.91 179.448 1482.78 169.788 1478.64 161.001C1478.64 161.001 1480.29 159.247 1481.12 159.247C1483.6 161.001 1485.25 163.637 1485.25 167.153C1486.9 158.366 1481.12 152.223 1475.33 146.071C1475.33 144.317 1477.81 144.317 1479.46 144.317C1481.94 146.071 1485.25 148.706 1485.25 152.223C1486.9 143.436 1479.46 138.165 1472.02 135.538C1474.5 132.903 1479.46 133.784 1480.29 137.292C1480.29 132.903 1476.16 131.14 1476.16 126.751C1474.51 122.362 1468.72 122.362 1467.89 117.964C1467.89 116.21 1469.54 116.21 1470.37 116.21C1472.02 116.21 1472.02 117.964 1472.02 118.845H1474.5C1476.15 117.091 1474.5 112.693 1476.15 112.693C1480.28 114.447 1481.94 121.48 1481.94 126.751C1481.94 124.997 1481.94 120.599 1483.59 120.599C1487.72 123.235 1486.07 129.386 1486.07 134.657C1488.55 132.903 1487.72 128.505 1488.55 128.505C1492.68 131.14 1488.55 137.292 1491.03 142.563C1491.03 140.809 1489.38 138.173 1492.68 136.411C1495.16 142.563 1494.33 150.469 1495.16 156.612C1495.16 153.977 1496.81 152.223 1497.64 150.46C1499.29 153.095 1500.12 156.612 1500.12 159.247C1497.64 167.153 1494.33 175.932 1497.64 183.838C1497.64 181.202 1495.99 177.686 1499.29 175.932C1500.94 175.932 1500.94 177.686 1500.94 178.567C1500.94 175.932 1502.59 174.178 1503.42 172.415C1505.9 181.202 1505.9 189.1 1505.9 198.768C1508.38 197.014 1505.9 190.862 1508.38 192.616C1512.51 194.37 1510.03 201.403 1508.38 206.674C1518.3 185.592 1521.61 159.239 1510.86 138.165C1503.42 125.87 1491.85 117.083 1483.58 104.788C1483.58 103.033 1483.58 100.398 1485.23 100.398C1489.36 102.152 1492.67 104.788 1493.5 109.185C1494.6 108.016 1495.43 107.137 1495.98 106.55C1497.63 110.939 1500.11 115.337 1501.77 120.608C1501.77 118.854 1501.77 114.456 1503.42 114.456C1507.55 116.21 1507.55 123.243 1509.21 128.513C1509.21 126.759 1509.21 122.362 1510.86 124.124C1514.99 126.759 1514.99 134.665 1516.65 140.809C1516.65 139.055 1515 134.657 1518.3 134.657C1522.43 136.411 1520.78 142.563 1520.78 146.952C1520.78 145.198 1522.43 144.317 1522.43 144.317C1526.56 148.706 1524.91 154.858 1524.91 159.247C1527.39 157.493 1526.56 153.095 1527.39 153.095C1531.52 157.485 1529.87 163.637 1531.52 169.78C1531.52 167.145 1529.87 161.874 1533.17 159.239C1535.65 163.628 1535.65 168.026 1537.3 173.297C1538.95 168.907 1535.65 164.509 1538.95 161.001C1541.43 165.391 1538.95 171.542 1540.6 175.932C1546.39 155.731 1540.6 136.403 1529.03 117.964C1517.46 101.279 1498.45 96.8817 1486.05 84.5864C1488.53 81.9512 1493.49 86.3405 1495.97 82.8324C1497.07 84.0018 1497.9 84.8802 1498.45 85.4677C1498.45 82.8324 1500.1 81.0783 1500.93 82.8324C1503.41 85.4677 1505.06 82.8324 1508.37 82.8324C1510.02 84.5864 1510.85 85.4677 1512.5 87.2217C1512.5 85.4677 1514.15 84.5864 1514.15 84.5864C1515.8 86.3405 1519.94 86.3405 1519.94 90.7382C1521.04 89.5689 1521.87 88.6904 1522.42 88.103C1524.07 89.857 1524.9 90.7382 1524.9 94.2548C1524.9 92.5007 1524.9 91.6195 1526.55 91.6195C1529.03 96.0088 1533.99 99.5253 1533.99 105.677C1533.99 103.923 1535.64 103.042 1535.64 103.042C1538.12 105.677 1535.64 110.948 1538.12 113.583C1539.77 104.796 1538.12 95.136 1535.64 87.2301C1531.51 81.0783 1524.07 74.9349 1518.28 73.1725C1502.58 67.0207 1482.74 64.3854 1465.38 71.4184C1463.73 71.4184 1469.52 62.6313 1472.82 59.1232C1474.47 59.1232 1476.95 57.3692 1478.61 60.8773C1480.26 59.1232 1476.13 56.4879 1478.61 54.7255C1481.09 54.7255 1484.4 56.4795 1486.88 57.3608C1486.88 55.6067 1486.88 54.7255 1485.23 54.7255C1487.71 52.0902 1491.02 54.7255 1493.5 56.4795C1493.5 54.7255 1491.85 54.7255 1491.85 53.8443C1491.85 52.0902 1493.5 51.209 1494.33 52.0902C1495.82 53.6764 1499.34 53.8442 1500 57.1006C1499.69 55.0696 1499.05 52.0902 1501.77 52.0902C1505.9 53.8443 1507.56 59.996 1510.04 62.6313C1511.69 41.549 1485.24 36.2785 1469.54 39.795C1459.62 42.4303 1450.53 48.5821 1446.4 59.996C1443.92 53.8442 1442.27 47.7008 1440.61 39.795C1440.61 41.549 1440.61 42.4303 1438.96 44.1843C1436.48 38.0325 1437.31 30.1267 1434.83 23.9833C1432.35 30.1351 1433.18 38.0409 1430.7 44.1843C1429.05 42.4303 1429.05 41.549 1429.05 39.795C1427.4 47.7008 1426.57 53.8526 1423.26 59.996C1419.13 52.0902 1414.99 45.0656 1405.9 41.549C1391.85 37.1597 1378.62 38.9138 1365.4 47.7008C1359.61 50.3361 1357.96 56.4879 1359.61 62.6313C1362.09 59.996 1363.74 53.8443 1367.88 52.0902C1370.36 52.0902 1369.53 56.4795 1369.53 58.242C1369.53 53.8526 1373.66 53.8526 1375.32 52.0902C1376.97 52.0902 1377.8 52.0902 1377.8 53.8443L1376.15 55.5983C1378.63 57.3524 1381.94 51.209 1384.42 55.5983L1382.77 57.3524C1385.25 59.1064 1390.21 52.963 1392.69 57.3524C1391.03 59.1064 1391.03 59.9877 1391.03 61.7417C1396.82 55.5899 1400.95 64.377 1402.61 69.6476C1402.61 71.4016 1400.95 72.2829 1400.95 72.2829C1383.6 63.4958 1366.24 67.8935 1350.54 74.0369C1334.83 78.4263 1327.39 95.1192 1330.7 113.566C1332.35 110.931 1330.7 105.66 1333.18 103.025C1333.18 103.025 1334.83 104.779 1334.83 105.66C1334.83 103.025 1336.48 99.5085 1337.31 96.8733L1338.96 98.6273C1338.96 95.992 1340.61 94.238 1341.44 92.4755C1343.09 92.4755 1343.09 94.2296 1343.09 95.1108C1343.09 92.4755 1344.74 90.7215 1345.57 88.959C1346.67 90.1284 1347.49 91.0068 1348.05 91.5943C1348.05 87.2049 1352.18 87.2049 1353.84 85.4425C1353.84 85.4425 1355.49 87.1966 1355.49 88.0778C1357.14 86.3237 1357.97 83.6884 1361.28 83.6884C1362.93 83.6884 1362.93 85.4425 1362.93 86.3237C1364.58 84.5697 1365.41 83.6884 1368.72 83.6884C1370.37 83.6884 1370.37 85.4425 1370.37 86.3237C1371.47 85.1544 1372.29 84.2759 1372.85 83.6884C1375.33 86.3237 1380.29 81.9344 1382.77 85.4425C1386.9 95.1024 1375.33 96.8649 1367.06 103.889C1361.27 108.279 1355.49 112.677 1351.36 118.82C1347.23 124.972 1343.92 131.115 1341.44 137.267C1337.31 149.562 1337.31 163.62 1339.79 176.796C1341.44 172.407 1338.14 166.255 1341.44 161.866C1343.92 164.501 1341.44 169.772 1343.09 174.161C1344.74 169.772 1344.74 165.374 1347.22 160.103C1349.7 162.739 1347.22 168.009 1348.87 170.644C1350.52 164.493 1348.87 158.349 1353 153.96C1354.65 153.96 1353 158.349 1355.48 160.112C1355.48 155.722 1353.83 149.571 1357.96 145.181C1357.96 145.181 1359.61 146.935 1359.61 147.817C1359.61 143.427 1357.96 137.275 1362.09 135.521C1364.57 135.521 1363.74 139.911 1363.74 141.673C1365.39 135.521 1365.39 127.615 1369.53 124.989C1371.18 123.235 1371.18 127.624 1371.18 129.378C1372.83 124.989 1372.83 117.083 1376.97 115.32C1378.62 115.32 1378.62 119.71 1378.62 121.472C1380.27 117.083 1382.75 112.685 1384.41 107.414C1385.51 108.584 1386.34 109.462 1386.89 110.05C1388.54 105.66 1391.02 101.263 1395.16 102.144C1399.29 102.144 1396.81 106.533 1395.16 108.296C1385.24 118.837 1375.32 129.378 1369.54 141.673C1361.27 162.755 1362.1 187.346 1372.02 207.547C1370.37 203.158 1367.89 195.252 1372.02 193.489C1374.5 191.735 1372.02 197.879 1374.5 199.641C1374.5 190.854 1374.5 182.956 1376.98 173.288C1378.63 175.042 1379.46 175.923 1379.46 179.44C1379.46 177.686 1379.46 176.805 1381.11 176.805C1383.59 178.559 1382.76 181.194 1382.76 184.711C1385.24 176.805 1386.07 170.653 1381.11 163.628C1378.63 159.239 1381.11 155.722 1382.76 151.333C1384.41 153.087 1385.24 153.968 1385.24 157.485C1386.89 151.333 1385.24 143.427 1387.72 137.284C1390.2 139.038 1389.37 141.673 1389.37 143.436C1391.85 139.046 1387.72 132.894 1391.85 129.378C1394.33 129.378 1391.85 133.767 1394.33 135.53C1394.33 131.14 1392.68 124.989 1396.81 121.472C1398.46 121.472 1398.46 125.861 1398.46 127.624C1398.46 121.472 1400.94 115.329 1405.9 112.693C1407.55 112.693 1408.38 112.693 1408.38 114.447C1405.9 116.201 1408.38 118.837 1405.9 120.599C1408.38 120.599 1410.03 122.353 1411.69 123.235C1405.9 127.624 1403.42 132.022 1400.12 138.165C1401.77 135.53 1405.91 133.776 1408.39 136.411C1400.95 139.046 1394.34 144.317 1395.16 153.095C1395.16 150.46 1397.64 146.944 1400.95 145.19C1402.6 145.19 1405.08 145.19 1405.08 146.944C1399.29 153.095 1393.51 159.239 1395.16 168.026C1396.81 165.391 1396.81 160.12 1400.95 160.12C1402.6 160.12 1403.43 161.874 1402.6 162.755C1395.16 170.661 1395.16 181.202 1396.81 189.981C1396.81 187.346 1395.16 182.075 1398.46 183.829C1400.94 183.829 1400.11 188.219 1400.11 191.735L1401.76 189.981C1404.24 194.37 1400.11 197.887 1401.76 202.276C1403.41 206.666 1403.41 210.182 1404.24 214.572C1405.89 210.182 1402.59 204.03 1405.89 199.641C1408.37 205.793 1408.37 213.699 1408.37 220.723C1408.37 218.969 1408.37 218.088 1410.02 218.088C1412.5 219.842 1410.02 224.24 1412.5 225.994C1410.85 215.453 1414.98 204.912 1414.98 193.498C1413.33 193.498 1412.5 193.498 1412.5 191.744C1412.5 189.108 1410.85 182.956 1414.15 182.956C1416.63 181.202 1414.15 189.108 1416.63 190.862C1414.98 186.473 1416.63 182.075 1418.28 178.567C1419.93 178.567 1419.93 172.415 1422.41 176.813C1422.41 178.567 1422.41 179.448 1420.76 179.448C1422.41 182.084 1426.55 183.838 1428.2 181.202C1428.2 179.448 1426.55 176.813 1429.85 175.051C1432.33 237.416 1432.33 268.158 1429.85 331.397C1429.85 334.032 1428.2 337.549 1427.37 340.184C1425.72 354.242 1431.5 364.774 1424.89 377.078C1423.24 381.467 1426.54 385.865 1426.54 391.136C1427.36 398.076 1425.35 404.153 1422.42 410.011C1389.42 385.555 1354.23 364.254 1314.51 352.605C1255 332.404 1194.66 328.015 1135.97 340.31C1237.64 342.945 1344.26 372.806 1419.48 448.348C1399.64 468.549 1378.98 487.877 1359.14 508.079C1353.35 499.291 1353.35 486.996 1345.91 477.336C1340.13 471.185 1334.34 468.549 1326.9 465.041C1313.68 462.406 1302.11 469.43 1299.63 483.488C1297.98 494.029 1303.76 504.57 1312.85 509.841C1321.12 512.476 1330.21 508.087 1337.65 505.452C1341.78 503.698 1345.92 514.239 1343.44 519.509C1337.65 530.05 1326.08 536.194 1314.51 540.592C1307.07 530.05 1294.67 526.534 1283.93 532.686C1274.01 540.592 1270.7 553.768 1276.49 565.182C1278.97 571.334 1284.76 573.969 1290.54 575.723C1317.82 578.358 1340.96 561.665 1360.8 544.981C1369.07 559.911 1383.94 571.334 1399.65 573.969C1412.88 575.723 1428.58 569.58 1431.06 553.768C1432.71 543.227 1426.93 532.686 1417.83 527.415C1410.39 524.78 1403.78 525.661 1396.34 529.169C1388.9 531.804 1392.21 545.854 1386.42 545.854C1382.29 545.854 1373.19 539.702 1376.5 535.313C1393.86 508.087 1417.83 492.275 1440.15 471.193C1461.64 492.275 1488.92 508.087 1503.8 537.067C1505.45 538.821 1498.01 545.854 1493.88 545.854C1488.09 547.608 1492.23 539.702 1489.75 535.313C1487.27 529.161 1481.48 527.407 1475.7 526.526C1464.13 523.89 1452.56 532.677 1450.08 544.973C1448.43 551.124 1450.08 557.268 1452.56 561.657C1472.4 588.883 1507.11 566.046 1520.34 544.973C1541.83 563.419 1570.76 582.739 1598.04 571.325C1607.95 566.936 1612.09 551.124 1605.48 540.583C1597.21 526.526 1576.55 526.526 1568.28 540.583L1568.29 540.592Z" fill="#F7F3EC"/>
</g>
<g clip-path="url(#clip1_458_349)">
<path d="M127.292 544.592C115.722 540.202 104.152 534.05 98.3629 523.509C95.883 519.12 100.013 508.579 102.493 509.452C118.194 519.993 137.212 515.603 141.343 497.156C143.822 484.861 135.553 472.566 123.983 469.931C114.064 468.177 102.493 472.566 95.0537 482.226C87.614 491.013 87.614 503.308 81.825 512.968C61.9857 492.767 41.3252 473.439 21.486 453.238C95.8751 376.823 202.503 347.835 305 345.199C205.867 325.603 99.6028 349.287 19.3931 414.12C17.3002 409.378 15.4916 404.544 13.683 399.533C12.0323 393.382 17.8135 387.238 16.1629 381.086C13.683 376.697 12.0324 372.299 12.0324 367.029C10.3817 364.393 12.0323 359.123 13.683 356.488C15.3336 348.582 11.2031 341.557 11.2031 333.651C8.72318 272.167 7.07254 240.543 11.2031 179.059C13.683 181.694 11.2031 187.846 16.9922 186.965C21.1227 185.211 16.9922 179.059 19.472 180.813C23.6026 182.567 23.6026 188.719 23.6026 194.871C26.0825 193.117 23.6026 186.084 26.0825 186.965C28.5624 186.965 27.7331 193.117 27.7331 195.752C27.7331 197.506 26.0825 197.506 25.2532 197.506C25.2532 208.047 29.3838 218.588 27.7331 230.002C30.213 228.248 27.7331 223.85 30.213 222.096C31.8636 222.096 31.8636 223.85 31.8636 224.732C31.8636 216.826 31.8637 209.801 34.3436 203.649C36.8235 208.039 34.3436 214.191 35.9942 218.58C37.6448 214.191 37.6448 210.674 38.4741 206.285C40.1247 201.895 35.9942 198.379 38.4741 193.989L40.1247 195.744C40.1247 193.108 38.4741 187.838 41.7753 187.838C44.2552 186.084 43.426 190.473 43.426 193.989C45.9059 183.448 41.7754 173.788 37.6369 165.001C37.6369 165.001 39.2876 163.247 40.1168 163.247C42.5967 165.001 44.2473 167.637 44.2473 171.153C45.898 162.366 40.1168 156.223 34.3278 150.071C34.3278 148.317 36.8076 148.317 38.4583 148.317C40.9382 150.071 44.2473 152.706 44.2473 156.223C45.898 147.436 38.4583 142.165 31.0186 139.538C33.4985 136.903 38.4583 137.784 39.2875 141.292C39.2875 136.903 35.157 135.14 35.157 130.751C33.5064 126.362 27.7173 126.362 26.8881 121.964C26.8881 120.21 28.5387 120.21 29.368 120.21C31.0186 120.21 31.0186 121.964 31.0186 122.845H33.4985C35.1491 121.091 33.4985 116.693 35.1491 116.693C39.2797 118.447 40.9382 125.48 40.9382 130.751C40.9382 128.997 40.9382 124.599 42.5888 124.599C46.7194 127.235 45.0687 133.386 45.0687 138.657C47.5486 136.903 46.7194 132.505 47.5486 132.505C51.6792 135.14 47.5486 141.292 50.0285 146.563C50.0285 144.809 48.3779 142.173 51.6791 140.411C54.1591 146.563 53.3298 154.469 54.1591 160.612C54.1591 157.977 55.8097 156.223 56.6389 154.46C58.2896 157.095 59.1189 160.612 59.1189 163.247C56.639 171.153 53.3298 179.932 56.6389 187.838C56.6389 185.202 54.9883 181.686 58.2896 179.932C59.9402 179.932 59.9402 181.686 59.9402 182.567C59.9402 179.932 61.5909 178.178 62.4201 176.415C64.9 185.202 64.9 193.1 64.9 202.768C67.3799 201.014 64.9 194.862 67.3799 196.616C71.5105 198.37 69.0305 205.403 67.3799 210.674C77.2995 189.592 80.6087 163.239 69.8598 142.165C62.4201 129.87 50.8499 121.083 42.5809 108.788C42.5809 107.033 42.5809 104.398 44.2316 104.398C48.3621 106.152 51.6713 108.788 52.5005 113.185C53.601 112.016 54.4276 111.137 54.9804 110.55C56.631 114.939 59.111 119.337 60.7695 124.608C60.7695 122.854 60.7695 118.456 62.4201 118.456C66.5507 120.21 66.5507 127.243 68.2092 132.513C68.2092 130.759 68.2092 126.362 69.8598 128.124C73.9904 130.759 73.9904 138.665 75.6489 144.809C75.6489 143.055 73.9983 138.657 77.2995 138.657C81.4301 140.411 79.7794 146.563 79.7794 150.952C79.7794 149.198 81.4301 148.317 81.4301 148.317C85.5606 152.706 83.9099 158.858 83.9099 163.247C86.3899 161.493 85.5606 157.095 86.3899 157.095C90.5204 161.485 88.8698 167.637 90.5204 173.78C90.5204 171.145 88.8698 165.874 92.171 163.239C94.6509 167.628 94.6509 172.026 96.3015 177.297C97.9522 172.907 94.6509 168.509 97.9522 165.001C100.432 169.391 97.9521 175.542 99.6028 179.932C105.392 159.731 99.6028 140.403 88.0326 121.964C76.4623 105.279 57.4524 100.882 45.0529 88.5864C47.5328 85.9512 52.4926 90.3405 54.9725 86.8324C56.073 88.0018 56.8996 88.8802 57.4524 89.4677C57.4524 86.8324 59.1031 85.0783 59.9323 86.8324C62.4122 89.4677 64.0629 86.8324 67.372 86.8324C69.0226 88.5864 69.8519 89.4677 71.5026 91.2217C71.5026 89.4677 73.1532 88.5864 73.1532 88.5864C74.8038 90.3405 78.9423 90.3405 78.9423 94.7382C80.0427 93.5689 80.8693 92.6904 81.4221 92.103C83.0728 93.857 83.9021 94.7382 83.9021 98.2548C83.9021 96.5007 83.9021 95.6195 85.5527 95.6195C88.0326 100.009 92.9924 103.525 92.9924 109.677C92.9924 107.923 94.643 107.042 94.643 107.042C97.1229 109.677 94.643 114.948 97.1229 117.583C98.7736 108.796 97.1229 99.136 94.643 91.2301C90.5125 85.0783 83.0728 78.9349 77.2837 77.1725C61.583 71.0207 41.7438 68.3854 24.3845 75.4184C22.7338 75.4184 28.515 66.6313 31.8242 63.1232C33.4748 63.1232 35.9547 61.3692 37.6132 64.8773C39.2639 63.1232 35.1333 60.4879 37.6132 58.7255C40.0931 58.7255 43.4023 60.4795 45.8822 61.3608C45.8822 59.6067 45.8822 58.7255 44.2316 58.7255C46.7115 56.0902 50.0206 58.7255 52.5005 60.4795C52.5005 58.7255 50.8499 58.7255 50.8499 57.8443C50.8499 56.0902 52.5005 55.209 53.3298 56.0902C54.8224 57.6764 58.337 57.8442 59.0004 61.1006C58.6924 59.0696 58.0527 56.0902 60.7695 56.0902C64.9 57.8443 66.5586 63.996 69.0385 66.6313C70.6891 45.549 44.2395 40.2785 28.5387 43.795C18.6191 46.4303 9.52875 52.5821 5.39822 63.996C2.91833 57.8442 1.2677 51.7008 -0.390839 43.795C-0.390839 45.549 -0.390839 46.4303 -2.04147 48.1843C-4.52136 42.0325 -3.69211 34.1267 -6.172 27.9833C-8.65192 34.1351 -7.82263 42.0409 -10.3025 48.1843C-11.9532 46.4303 -11.9532 45.549 -11.9532 43.795C-13.6038 51.7008 -14.4331 57.8526 -17.7422 63.996C-21.8728 56.0902 -26.0112 49.0656 -35.1015 45.549C-49.1517 41.1597 -62.3804 42.9138 -75.6013 51.7008C-81.3904 54.3361 -83.041 60.4879 -81.3904 66.6313C-78.9104 63.996 -77.2598 57.8443 -73.1214 56.0902C-70.6415 56.0902 -71.4708 60.4795 -71.4708 62.242C-71.4708 57.8526 -67.3402 57.8526 -65.6817 56.0902C-64.0311 56.0902 -63.2018 56.0902 -63.2018 57.8443L-64.8524 59.5983C-62.3725 61.3524 -59.0634 55.209 -56.5835 59.5983L-58.2341 61.3524C-55.7542 63.1064 -50.7944 56.963 -48.3145 61.3524C-49.9651 63.1064 -49.9651 63.9877 -49.9651 65.7417C-44.1761 59.5899 -40.0455 68.377 -38.3949 73.6476C-38.3949 75.4016 -40.0455 76.2829 -40.0455 76.2829C-57.4048 67.4958 -74.7641 71.8935 -90.4649 78.0369C-106.166 82.4263 -113.605 99.1192 -110.304 117.566C-108.653 114.931 -110.304 109.66 -107.824 107.025C-107.824 107.025 -106.174 108.779 -106.174 109.66C-106.174 107.025 -104.523 103.509 -103.694 100.873L-102.043 102.627C-102.043 99.992 -100.392 98.238 -99.5631 96.4755C-97.9125 96.4755 -97.9125 98.2296 -97.9125 99.1108C-97.9125 96.4755 -96.2619 94.7215 -95.4326 92.959C-94.3322 94.1284 -93.5055 95.0068 -92.9527 95.5943C-92.9527 91.2049 -88.8222 91.2049 -87.1636 89.4425C-87.1636 89.4425 -85.513 91.1966 -85.513 92.0778C-83.8624 90.3237 -83.0331 87.6884 -79.7239 87.6884C-78.0733 87.6884 -78.0733 89.4425 -78.0733 90.3237C-76.4227 88.5697 -75.5934 87.6884 -72.2842 87.6884C-70.6336 87.6884 -70.6336 89.4425 -70.6336 90.3237C-69.5332 89.1544 -68.7065 88.2759 -68.1537 87.6884C-65.6738 90.3237 -60.714 85.9344 -58.2341 89.4425C-54.1036 99.1024 -65.6738 100.865 -73.9428 107.889C-79.7318 112.279 -85.513 116.677 -89.6435 122.82C-93.7741 128.972 -97.0832 135.115 -99.5631 141.267C-103.694 153.562 -103.694 167.62 -101.214 180.796C-99.5631 176.407 -102.864 170.255 -99.5631 165.866C-97.0832 168.501 -99.5631 173.772 -97.9125 178.161C-96.2619 173.772 -96.2619 169.374 -93.782 164.103C-91.302 166.739 -93.782 172.009 -92.1313 174.644C-90.4807 168.493 -92.1313 162.349 -88.0008 157.96C-86.3501 157.96 -88.0008 162.349 -85.5209 164.112C-85.5209 159.722 -87.1715 153.571 -83.041 149.181C-83.041 149.181 -81.3904 150.935 -81.3904 151.817C-81.3904 147.427 -83.041 141.275 -78.9105 139.521C-76.4306 139.521 -77.2598 143.911 -77.2598 145.673C-75.6092 139.521 -75.6092 131.615 -71.4708 128.989C-69.8201 127.235 -69.8201 131.624 -69.8201 133.378C-68.1695 128.989 -68.1695 121.083 -64.0311 119.32C-62.3804 119.32 -62.3804 123.71 -62.3804 125.472C-60.7298 121.083 -58.2499 116.685 -56.5914 111.414C-55.4909 112.584 -54.6643 113.462 -54.1115 114.05C-52.4608 109.66 -49.9809 105.263 -45.8425 106.144C-41.7119 106.144 -44.1919 110.533 -45.8425 112.296C-55.7621 122.837 -65.6817 133.378 -71.4628 145.673C-79.7318 166.755 -78.9026 191.346 -68.983 211.547C-70.6336 207.158 -73.1135 199.252 -68.983 197.489C-66.5031 195.735 -68.983 201.879 -66.5031 203.641C-66.5031 194.854 -66.5031 186.956 -64.0232 177.288C-62.3725 179.042 -61.5433 179.923 -61.5433 183.44C-61.5433 181.686 -61.5433 180.805 -59.8926 180.805C-57.4127 182.559 -58.242 185.194 -58.242 188.711C-55.7621 180.805 -54.9328 174.653 -59.8926 167.628C-62.3725 163.239 -59.8926 159.722 -58.242 155.333C-56.5914 157.087 -55.7621 157.968 -55.7621 161.485C-54.1115 155.333 -55.7621 147.427 -53.2822 141.284C-50.8023 143.038 -51.6316 145.673 -51.6316 147.436C-49.1517 143.046 -53.2822 136.894 -49.1517 133.378C-46.6718 133.378 -49.1517 137.767 -46.6718 139.53C-46.6718 135.14 -48.3224 128.989 -44.1919 125.472C-42.5412 125.472 -42.5412 129.861 -42.5412 131.624C-42.5412 125.472 -40.0613 119.329 -35.1015 116.693C-33.4509 116.693 -32.6216 116.693 -32.6216 118.447C-35.1015 120.201 -32.6216 122.837 -35.1015 124.599C-32.6216 124.599 -30.971 126.353 -29.3125 127.235C-35.1015 131.624 -37.5814 136.022 -40.8827 142.165C-39.2321 139.53 -35.0936 137.776 -32.6137 140.411C-40.0534 143.046 -46.6638 148.317 -45.8425 157.095C-45.8425 154.46 -43.3626 150.944 -40.0534 149.19C-38.4028 149.19 -35.9229 149.19 -35.9229 150.944C-41.7119 157.095 -47.4931 163.239 -45.8425 172.026C-44.1919 169.391 -44.1919 164.12 -40.0534 164.12C-38.4028 164.12 -37.5735 165.874 -38.4028 166.755C-45.8425 174.661 -45.8425 185.202 -44.1919 193.981C-44.1919 191.346 -45.8425 186.075 -42.5412 187.829C-40.0613 187.829 -40.8906 192.219 -40.8906 195.735L-39.24 193.981C-36.7601 198.37 -40.8906 201.887 -39.24 206.276C-37.5893 210.666 -37.5893 214.182 -36.76 218.572C-35.1094 214.182 -38.4107 208.03 -35.1094 203.641C-32.6295 209.793 -32.6295 217.699 -32.6295 224.723C-32.6295 222.969 -32.6295 222.088 -30.9789 222.088C-28.499 223.842 -30.9789 228.24 -28.499 229.994C-30.1496 219.453 -26.0191 208.912 -26.0191 197.498C-27.6697 197.498 -28.499 197.498 -28.499 195.744C-28.499 193.108 -30.1496 186.956 -26.8484 186.956C-24.3685 185.202 -26.8484 193.108 -24.3685 194.862C-26.0191 190.473 -24.3684 186.075 -22.7178 182.567C-21.0672 182.567 -21.0672 176.415 -18.5873 180.813C-18.5873 182.567 -18.5873 183.448 -20.2379 183.448C-18.5873 186.084 -14.4489 187.838 -12.7982 185.202C-12.7982 183.448 -14.4489 180.813 -11.1476 179.051C-8.66769 241.416 -8.66769 272.158 -11.1476 335.397C-11.1476 338.032 -12.7982 341.549 -13.6275 344.184C-15.2781 358.242 -9.49695 368.774 -16.1074 381.078C-17.758 385.467 -14.4568 389.865 -14.4568 395.136C-13.6433 402.076 -15.6493 408.153 -18.5794 414.011C-51.5763 389.555 -86.7688 368.254 -126.495 356.605C-186.004 336.404 -246.343 332.015 -305.031 344.31C-203.364 346.945 -96.7357 376.806 -21.5174 452.348C-41.3566 472.549 -62.0171 491.877 -81.8563 512.079C-87.6454 503.291 -87.6454 490.996 -95.0851 481.336C-100.874 475.185 -106.655 472.549 -114.095 469.041C-127.324 466.406 -138.894 473.43 -141.374 487.488C-143.025 498.029 -137.243 508.57 -128.145 513.841C-119.876 516.476 -110.786 512.087 -103.346 509.452C-99.2156 507.698 -95.0772 518.239 -97.5571 523.509C-103.346 534.05 -114.916 540.194 -126.487 544.592C-133.926 534.05 -146.326 530.534 -157.067 536.686C-166.986 544.592 -170.296 557.768 -164.506 569.182C-162.027 575.334 -156.238 577.969 -150.456 579.723C-123.177 582.358 -100.037 565.665 -80.1978 548.981C-71.9288 563.911 -57.0573 575.334 -41.3487 577.969C-28.1199 579.723 -12.4191 573.58 -9.93924 557.768C-8.2886 547.227 -14.0698 536.686 -23.168 531.415C-30.6077 528.78 -37.2181 529.661 -44.6578 533.169C-52.0975 535.804 -48.7884 549.854 -54.5774 549.854C-58.708 549.854 -67.8062 543.702 -64.497 539.313C-47.1377 512.087 -23.168 496.275 -0.848907 475.193C20.6409 496.275 47.9198 512.087 62.7992 541.067C64.4499 542.821 57.0102 549.854 52.8796 549.854C47.0906 551.608 51.229 543.702 48.7491 539.313C46.2692 533.161 40.4801 531.407 34.6989 530.526C23.1287 527.89 11.5585 536.677 9.07858 548.973C7.42795 555.124 9.07858 561.268 11.5585 565.657C31.3977 592.883 66.1084 570.046 79.3372 548.973C100.827 567.419 129.757 586.739 157.035 575.325C166.955 570.936 171.086 555.124 164.475 544.583C156.206 530.526 135.546 530.526 127.277 544.583L127.292 544.592Z" fill="#F7F3EC"/>
</g>
<defs>
<clipPath id="clip0_458_349">
<rect width="610" height="552" fill="white" transform="translate(1136 24)"/>
</clipPath>
<clipPath id="clip1_458_349">
<rect width="610" height="552" fill="white" transform="translate(-305 28)"/>
</clipPath>
</defs>
</svg>
