<svg width="36" height="64" viewBox="0 0 36 64" fill="none" xmlns="http://www.w3.org/2000/svg">
<g clip-path="url(#clip0_1_934)">
<path d="M3.9597 40.24C2.32207 40.24 0.721208 39.7544 -0.640431 38.8446C-2.00207 37.9347 -3.06333 36.6416 -3.69002 35.1286C-4.31672 33.6156 -4.4807 31.9508 -4.16121 30.3447C-3.84173 28.7385 -3.05314 27.2631 -1.89516 26.1052C-0.737183 24.9472 0.738178 24.1586 2.34434 23.8391C3.9505 23.5196 5.61533 23.6836 7.12831 24.3103C8.64128 24.937 9.93446 25.9982 10.8443 27.3599C11.7541 28.7215 12.2397 30.3224 12.2397 31.96C12.2397 34.156 11.3674 36.262 9.81456 37.8148C8.26175 39.3676 6.15569 40.24 3.9597 40.24ZM3.9597 24.68C2.51985 24.68 1.11233 25.107 -0.0848589 25.9069C-1.28205 26.7068 -2.21513 27.8438 -2.76613 29.1741C-3.31714 30.5043 -3.46131 31.9681 -3.18041 33.3803C-2.89951 34.7924 -2.20617 36.0896 -1.18804 37.1077C-0.169912 38.1259 1.12726 38.8192 2.53944 39.1001C3.95162 39.381 5.4154 39.2368 6.74565 38.6858C8.07589 38.1348 9.21286 37.2017 10.0128 36.0046C10.8127 34.8074 11.2397 33.3998 11.2397 31.96C11.2397 30.0292 10.4727 28.1775 9.10743 26.8123C7.74217 25.447 5.89047 24.68 3.9597 24.68Z" fill="#D7D7D7"/>
<path d="M3.96004 45.88C1.20693 45.88 -1.48437 45.0636 -3.77351 43.5341C-6.06264 42.0045 -7.8468 39.8305 -8.90037 37.2869C-9.95394 34.7434 -10.2296 31.9446 -9.69248 29.2443C-9.15538 26.5441 -7.82963 24.0638 -5.88288 22.1171C-3.93613 20.1703 -1.45584 18.8446 1.24438 18.3075C3.94459 17.7704 6.74346 18.046 9.28701 19.0996C11.8306 20.1532 14.0046 21.9373 15.5341 24.2265C17.0637 26.5156 17.8801 29.2069 17.8801 31.96C17.8748 35.6502 16.4065 39.1877 13.7971 41.7971C11.1878 44.4064 7.65023 45.8747 3.96004 45.88ZM3.96004 19.04C1.40471 19.04 -1.09325 19.7977 -3.21793 21.2174C-5.34262 22.6371 -6.99859 24.6549 -7.97648 27.0157C-8.95436 29.3765 -9.21023 31.9743 -8.71171 34.4806C-8.21319 36.9868 -6.98268 39.2889 -5.17579 41.0958C-3.36889 42.9027 -1.06676 44.1332 1.43948 44.6318C3.94571 45.1303 6.5435 44.8744 8.90432 43.8965C11.2651 42.9186 13.283 41.2626 14.7026 39.138C16.1223 37.0133 16.8801 34.5153 16.8801 31.96C16.8748 28.535 15.5118 25.2518 13.09 22.83C10.6682 20.4082 7.38502 19.0453 3.96004 19.04Z" fill="#D7D7D7"/>
<path d="M3.96032 51.85C0.0264492 51.85 -3.81908 50.6835 -7.08997 48.4979C-10.3609 46.3124 -12.9102 43.206 -14.4157 39.5716C-15.9211 35.9372 -16.315 31.9379 -15.5475 28.0797C-14.78 24.2214 -12.8857 20.6773 -10.104 17.8956C-7.32238 15.114 -3.7783 13.2196 0.0799789 12.4522C3.93826 11.6847 7.93747 12.0786 11.5719 13.584C15.2063 15.0895 18.3127 17.6388 20.4983 20.9097C22.6838 24.1806 23.8503 28.0261 23.8503 31.96C23.845 37.2335 21.7478 42.2896 18.0188 46.0185C14.2899 49.7475 9.23385 51.8447 3.96032 51.85ZM3.96032 13.04C0.22423 13.04 -3.42796 14.1479 -6.5344 16.2235C-9.64085 18.2992 -12.062 21.2494 -13.4918 24.7011C-14.9215 28.1528 -15.2956 31.951 -14.5667 35.6153C-13.8378 39.2796 -12.0387 42.6454 -9.39692 45.2873C-6.75511 47.9291 -3.38922 49.7282 0.275078 50.457C3.93938 51.1859 7.7375 50.8118 11.1892 49.3821C14.6409 47.9524 17.5911 45.5312 19.6668 42.4247C21.7424 39.3183 22.8503 35.6661 22.8503 31.93C22.845 26.9217 20.8531 22.12 17.3117 18.5786C13.7703 15.0372 8.96863 13.0453 3.96032 13.04Z" fill="#D7D7D7"/>
<path d="M3.96025 57.68C-1.12669 57.68 -6.0994 56.1716 -10.329 53.3454C-14.5587 50.5193 -17.8552 46.5023 -19.8019 41.8026C-21.7486 37.1029 -22.258 31.9315 -21.2656 26.9423C-20.2731 21.9531 -17.8236 17.3702 -14.2266 13.7732C-10.6295 10.1762 -6.04667 7.72662 -1.05748 6.7342C3.93171 5.74179 9.10315 6.25113 13.8029 8.19782C18.5026 10.1445 22.5195 13.4411 25.3457 17.6707C28.1718 21.9004 29.6802 26.8731 29.6802 31.96C29.6723 38.7789 26.96 45.3163 22.1383 50.138C17.3165 54.9597 10.7792 57.6721 3.96025 57.68ZM3.96025 7.24C-0.928907 7.24 -5.70827 8.6898 -9.77346 11.4061C-13.8386 14.1223 -17.007 17.9831 -18.878 22.5001C-20.749 27.0171 -21.2386 31.9874 -20.2848 36.7826C-19.331 41.5778 -16.9766 45.9825 -13.5194 49.4397C-10.0623 52.8968 -5.65759 55.2512 -0.862385 56.205C3.93283 57.1588 8.90319 56.6693 13.4202 54.7983C17.9372 52.9273 21.7979 49.7589 24.5142 45.6937C27.2304 41.6285 28.6802 36.8492 28.6802 31.96C28.6723 25.4063 26.0653 19.1233 21.4312 14.4891C16.797 9.85491 10.514 7.24793 3.96025 7.24Z" fill="#D7D7D7"/>
<path d="M3.95998 63.92C-2.36902 63.92 -8.55591 62.0432 -13.8183 58.527C-19.0807 55.0108 -23.1822 50.0131 -25.6042 44.1659C-28.0262 38.3186 -28.6599 31.8845 -27.4252 25.6771C-26.1904 19.4697 -23.1427 13.7679 -18.6674 9.29259C-14.1922 4.81731 -8.4903 1.7696 -2.28291 0.534876C3.92448 -0.699851 10.3586 -0.0661445 16.2059 2.35586C22.0531 4.77786 27.0508 8.87938 30.567 14.1418C34.0832 19.4041 35.96 25.591 35.96 31.92C35.96 40.4069 32.5886 48.5463 26.5874 54.5474C20.5862 60.5486 12.4469 63.92 3.95998 63.92ZM3.95998 1.04C-2.17124 1.04 -8.16479 2.85812 -13.2627 6.26444C-18.3606 9.67077 -22.334 14.5123 -24.6803 20.1768C-27.0266 25.8413 -27.6405 32.0744 -26.4444 38.0878C-25.2482 44.1012 -22.2958 49.6249 -17.9603 53.9603C-13.6249 58.2957 -8.10122 61.2482 -2.08781 62.4443C3.9256 63.6405 10.1587 63.0266 15.8232 60.6803C21.4877 58.3339 26.3292 54.3606 29.7355 49.2627C33.1418 44.1648 34.96 38.1712 34.96 32.04C34.96 23.8183 31.6939 15.9333 25.8803 10.1197C20.0667 4.30606 12.1817 1.04 3.95998 1.04Z" fill="#D7D7D7"/>
</g>
<defs>
<clipPath id="clip0_1_934">
<rect width="63.92" height="63.92" fill="white" transform="translate(-28)"/>
</clipPath>
</defs>
</svg>
