<svg width="20" height="146" viewBox="0 0 20 146" fill="none" xmlns="http://www.w3.org/2000/svg">
<g clip-path="url(#clip0_1_1190)">
<path d="M1.54001 63.0301C1.84459 63.0301 2.14232 63.1204 2.39557 63.2896C2.64882 63.4588 2.84621 63.6994 2.96277 63.9808C3.07933 64.2622 3.10984 64.5718 3.05041 64.8706C2.99099 65.1693 2.84431 65.4437 2.62894 65.6591C2.41356 65.8744 2.13915 66.0211 1.84042 66.0805C1.54169 66.1399 1.23205 66.1094 0.950653 65.9929C0.669255 65.8763 0.428739 65.6789 0.259521 65.4257C0.0903041 65.1724 -5.40002e-08 64.8747 -6.7314e-08 64.5701C-8.51671e-08 64.1617 0.162244 63.77 0.45105 63.4812C0.739856 63.1923 1.13157 63.0301 1.54001 63.0301Z" fill="#C4C3C2"/>
<path d="M17.8701 63.0301C18.1747 63.0301 18.4724 63.1204 18.7257 63.2896C18.9789 63.4588 19.1763 63.6994 19.2928 63.9808C19.4094 64.2622 19.4399 64.5718 19.3805 64.8706C19.3211 65.1693 19.1744 65.4437 18.959 65.6591C18.7437 65.8744 18.4693 66.0211 18.1705 66.0805C17.8718 66.1399 17.5622 66.1094 17.2808 65.9929C16.9994 65.8763 16.7588 65.6789 16.5896 65.4257C16.4204 65.1724 16.3301 64.8747 16.3301 64.5701C16.3301 64.1617 16.4923 63.77 16.7811 63.4812C17.0699 63.1923 17.4617 63.0301 17.8701 63.0301Z" fill="#C4C3C2"/>
<path d="M1.54001 47.2801C1.84459 47.2801 2.14232 47.3704 2.39557 47.5396C2.64882 47.7088 2.84621 47.9494 2.96277 48.2308C3.07933 48.5122 3.10984 48.8218 3.05041 49.1206C2.99099 49.4193 2.84431 49.6937 2.62894 49.9091C2.41356 50.1244 2.13915 50.2711 1.84042 50.3305C1.54169 50.3899 1.23205 50.3594 0.950653 50.2429C0.669255 50.1263 0.428739 49.9289 0.259521 49.6757C0.0903041 49.4224 -5.40002e-08 49.1247 -6.7314e-08 48.8201C-8.51671e-08 48.4117 0.162244 48.02 0.45105 47.7312C0.739856 47.4423 1.13157 47.2801 1.54001 47.2801Z" fill="#C4C3C2"/>
<path d="M17.8701 47.2801C18.1747 47.2801 18.4724 47.3704 18.7257 47.5396C18.9789 47.7088 19.1763 47.9494 19.2928 48.2308C19.4094 48.5122 19.4399 48.8218 19.3805 49.1206C19.3211 49.4193 19.1744 49.6937 18.959 49.9091C18.7437 50.1244 18.4693 50.2711 18.1705 50.3305C17.8718 50.3899 17.5622 50.3594 17.2808 50.2429C16.9994 50.1263 16.7588 49.9289 16.5896 49.6757C16.4204 49.4224 16.3301 49.1247 16.3301 48.8201C16.3301 48.4117 16.4923 48.02 16.7811 47.7312C17.0699 47.4423 17.4617 47.2801 17.8701 47.2801Z" fill="#C4C3C2"/>
<path d="M1.54001 31.5401C1.84459 31.5401 2.14232 31.6304 2.39557 31.7996C2.64882 31.9689 2.84621 32.2094 2.96277 32.4908C3.07933 32.7722 3.10984 33.0818 3.05041 33.3806C2.99099 33.6793 2.84431 33.9537 2.62894 34.1691C2.41356 34.3845 2.13915 34.5311 1.84042 34.5905C1.54169 34.65 1.23205 34.6194 0.950653 34.5029C0.669255 34.3863 0.428739 34.1889 0.259521 33.9357C0.0903041 33.6824 -5.40029e-08 33.3847 -6.73166e-08 33.0801C-8.51698e-08 32.6717 0.162244 32.28 0.45105 31.9912C0.739856 31.7024 1.13157 31.5401 1.54001 31.5401Z" fill="#C4C3C2"/>
<path d="M17.8701 31.5401C18.1747 31.5401 18.4724 31.6304 18.7257 31.7996C18.9789 31.9689 19.1763 32.2094 19.2928 32.4908C19.4094 32.7722 19.4399 33.0818 19.3805 33.3806C19.3211 33.6793 19.1744 33.9537 18.959 34.1691C18.7437 34.3845 18.4693 34.5311 18.1705 34.5905C17.8718 34.65 17.5622 34.6194 17.2808 34.5029C16.9994 34.3863 16.7588 34.1889 16.5896 33.9357C16.4204 33.6824 16.3301 33.3847 16.3301 33.0801C16.3301 32.6717 16.4923 32.28 16.7811 31.9912C17.0699 31.7024 17.4617 31.5401 17.8701 31.5401Z" fill="#C4C3C2"/>
<path d="M3.08 17.3001C3.08 16.4496 2.39052 15.7601 1.54 15.7601C0.689481 15.7601 -1.04493e-07 16.4496 -6.73156e-08 17.3001C-3.01382e-08 18.1506 0.689481 18.8401 1.54 18.8401C2.39052 18.8401 3.08 18.1506 3.08 17.3001Z" fill="#C4C3C2"/>
<path d="M17.8701 15.7601C18.1747 15.7601 18.4724 15.8504 18.7257 16.0197C18.9789 16.1889 19.1763 16.4294 19.2928 16.7108C19.4094 16.9922 19.4399 17.3018 19.3805 17.6005C19.3211 17.8993 19.1744 18.1737 18.959 18.389C18.7437 18.6044 18.4693 18.7511 18.1705 18.8105C17.8718 18.8699 17.5622 18.8395 17.2808 18.7229C16.9994 18.6063 16.7588 18.409 16.5896 18.1557C16.4204 17.9024 16.3301 17.6047 16.3301 17.3001C16.3301 16.8917 16.4923 16.5 16.7811 16.2112C17.0699 15.9224 17.4617 15.7601 17.8701 15.7601Z" fill="#C4C3C2"/>
<path d="M1.54001 0.0100686C1.84459 0.0100686 2.14232 0.100434 2.39557 0.269651C2.64882 0.438868 2.84621 0.679354 2.96277 0.960752C3.07933 1.24215 3.10984 1.55179 3.05041 1.85052C2.99099 2.14925 2.84431 2.42366 2.62894 2.63904C2.41356 2.85441 2.13915 3.00106 1.84042 3.06048C1.54169 3.1199 1.23205 3.08946 0.950653 2.9729C0.669255 2.85634 0.428739 2.65895 0.259521 2.4057C0.0903041 2.15245 -5.40009e-08 1.85469 -6.73147e-08 1.55011C-8.51678e-08 1.14167 0.162244 0.749985 0.45105 0.461179C0.739856 0.172374 1.13157 0.0100686 1.54001 0.0100686Z" fill="#C4C3C2"/>
<path d="M17.8701 0.0100686C18.1747 0.0100686 18.4724 0.100434 18.7257 0.269651C18.9789 0.438868 19.1763 0.679354 19.2928 0.960752C19.4094 1.24215 19.4399 1.55179 19.3805 1.85052C19.3211 2.14925 19.1744 2.42366 18.959 2.63904C18.7437 2.85441 18.4693 3.00106 18.1705 3.06048C17.8718 3.1199 17.5622 3.08946 17.2808 2.9729C16.9994 2.85634 16.7588 2.65895 16.5896 2.4057C16.4204 2.15245 16.3301 1.85469 16.3301 1.55011C16.3301 1.14167 16.4923 0.749985 16.7811 0.461179C17.0699 0.172374 17.4617 0.0100686 17.8701 0.0100686Z" fill="#C4C3C2"/>
<path d="M3.08 144.32C3.08 143.47 2.39052 142.78 1.54 142.78C0.689481 142.78 -1.04493e-07 143.47 -6.73155e-08 144.32C-3.01382e-08 145.171 0.689481 145.86 1.54 145.86C2.39052 145.86 3.08 145.171 3.08 144.32Z" fill="#C4C3C2"/>
<path d="M17.8701 142.78C18.1747 142.78 18.4724 142.87 18.7257 143.04C18.9789 143.209 19.1763 143.449 19.2928 143.731C19.4094 144.012 19.4399 144.322 19.3805 144.621C19.3211 144.919 19.1744 145.194 18.959 145.409C18.7437 145.624 18.4693 145.771 18.1705 145.831C17.8718 145.89 17.5622 145.859 17.2808 145.743C16.9994 145.626 16.7588 145.429 16.5896 145.176C16.4204 144.922 16.3301 144.625 16.3301 144.32C16.3301 143.912 16.4923 143.52 16.7811 143.231C17.0699 142.942 17.4617 142.78 17.8701 142.78Z" fill="#C4C3C2"/>
<path d="M1.54004 127.02C1.84702 127.018 2.14766 127.107 2.40387 127.276C2.66008 127.446 2.86031 127.687 2.97916 127.97C3.09801 128.253 3.13012 128.565 3.07144 128.866C3.01277 129.168 2.86597 129.445 2.6496 129.663C2.43323 129.88 2.15705 130.029 1.85611 130.09C1.55517 130.15 1.24301 130.12 0.9592 130.003C0.675391 129.886 0.432727 129.687 0.261965 129.432C0.0912023 129.177 3.88e-05 128.877 3.23977e-05 128.57C-0.00128631 128.367 0.0375801 128.166 0.114382 127.978C0.191183 127.79 0.304408 127.619 0.447542 127.475C0.590676 127.331 0.76087 127.216 0.948366 127.138C1.13586 127.06 1.33696 127.02 1.54004 127.02Z" fill="#C4C3C2"/>
<path d="M17.8701 127.02C18.1771 127.018 18.4777 127.107 18.7339 127.276C18.9902 127.446 19.1904 127.687 19.3092 127.97C19.4281 128.253 19.4602 128.565 19.4016 128.866C19.3429 129.168 19.196 129.445 18.9797 129.663C18.7633 129.88 18.4872 130.029 18.1862 130.09C17.8853 130.15 17.5731 130.12 17.2893 130.003C17.0055 129.886 16.7628 129.687 16.592 129.432C16.4213 129.177 16.3301 128.877 16.3301 128.57C16.3288 128.367 16.3677 128.166 16.4445 127.978C16.5213 127.79 16.6345 127.619 16.7776 127.475C16.9208 127.331 17.091 127.216 17.2785 127.138C17.466 127.06 17.667 127.02 17.8701 127.02Z" fill="#C4C3C2"/>
<path d="M3.08 112.81C3.08 111.96 2.39052 111.27 1.54 111.27C0.689481 111.27 -1.04493e-07 111.96 -6.73155e-08 112.81C-3.01381e-08 113.661 0.689481 114.35 1.54 114.35C2.39052 114.35 3.08 113.661 3.08 112.81Z" fill="#C4C3C2"/>
<path d="M17.8701 111.27C18.1747 111.27 18.4724 111.36 18.7257 111.53C18.9789 111.699 19.1763 111.939 19.2928 112.221C19.4094 112.502 19.4399 112.812 19.3805 113.111C19.3211 113.409 19.1744 113.684 18.959 113.899C18.7437 114.114 18.4693 114.261 18.1705 114.321C17.8718 114.38 17.5622 114.349 17.2808 114.233C16.9994 114.116 16.7588 113.919 16.5896 113.666C16.4204 113.412 16.3301 113.115 16.3301 112.81C16.3301 112.402 16.4923 112.01 16.7811 111.721C17.0699 111.432 17.4617 111.27 17.8701 111.27Z" fill="#C4C3C2"/>
<path d="M1.54001 95.5401C1.84459 95.5401 2.14232 95.6304 2.39557 95.7996C2.64882 95.9689 2.84621 96.2094 2.96277 96.4908C3.07933 96.7722 3.10984 97.0818 3.05041 97.3806C2.99099 97.6793 2.84431 97.9537 2.62894 98.1691C2.41356 98.3845 2.13915 98.5311 1.84042 98.5905C1.54169 98.65 1.23205 98.6194 0.950653 98.5029C0.669255 98.3863 0.428739 98.1889 0.259521 97.9357C0.0903041 97.6824 -5.40029e-08 97.3847 -6.73166e-08 97.0801C-8.51698e-08 96.6717 0.162244 96.28 0.45105 95.9912C0.739856 95.7024 1.13157 95.5401 1.54001 95.5401Z" fill="#C4C3C2"/>
<path d="M17.8701 95.5401C18.1747 95.5401 18.4724 95.6304 18.7257 95.7996C18.9789 95.9689 19.1763 96.2094 19.2928 96.4908C19.4094 96.7722 19.4399 97.0818 19.3805 97.3806C19.3211 97.6793 19.1744 97.9537 18.959 98.1691C18.7437 98.3845 18.4693 98.5311 18.1705 98.5905C17.8718 98.65 17.5622 98.6194 17.2808 98.5029C16.9994 98.3863 16.7588 98.1889 16.5896 97.9357C16.4204 97.6824 16.3301 97.3847 16.3301 97.0801C16.3301 96.6717 16.4923 96.28 16.7811 95.9912C17.0699 95.7024 17.4617 95.5401 17.8701 95.5401Z" fill="#C4C3C2"/>
<path d="M1.54004 79.7501C1.84702 79.7481 2.14766 79.8374 2.40387 80.0065C2.66008 80.1756 2.86031 80.4169 2.97916 80.6999C3.09801 80.983 3.13012 81.295 3.07144 81.5963C3.01277 81.8976 2.86597 82.1747 2.6496 82.3925C2.43323 82.6103 2.15705 82.7589 1.85611 82.8195C1.55517 82.8801 1.24301 82.85 0.9592 82.733C0.675391 82.616 0.432727 82.4174 0.261965 82.1623C0.0912023 81.9072 3.88e-05 81.6071 3.23977e-05 81.3001C-0.00128631 81.097 0.0375801 80.8957 0.114382 80.7077C0.191183 80.5197 0.304408 80.3488 0.447542 80.2047C0.590676 80.0606 0.76087 79.9463 0.948366 79.8683C1.13586 79.7903 1.33696 79.7501 1.54004 79.7501Z" fill="#C4C3C2"/>
<path d="M17.8701 79.7501C18.1771 79.7481 18.4777 79.8374 18.7339 80.0065C18.9902 80.1756 19.1904 80.4169 19.3092 80.6999C19.4281 80.983 19.4602 81.295 19.4016 81.5963C19.3429 81.8976 19.196 82.1747 18.9797 82.3925C18.7633 82.6103 18.4872 82.7589 18.1862 82.8195C17.8853 82.8801 17.5731 82.85 17.2893 82.733C17.0055 82.616 16.7628 82.4174 16.592 82.1623C16.4213 81.9072 16.3301 81.6071 16.3301 81.3001C16.3288 81.097 16.3677 80.8957 16.4445 80.7077C16.5213 80.5197 16.6345 80.3488 16.7776 80.2047C16.9208 80.0606 17.091 79.9463 17.2785 79.8683C17.466 79.7903 17.667 79.7501 17.8701 79.7501Z" fill="#C4C3C2"/>
</g>
<defs>
<clipPath id="clip0_1_1190">
<rect width="145.86" height="19.41" fill="white" transform="translate(0 145.86) rotate(-90)"/>
</clipPath>
</defs>
</svg>
