<svg width="59" height="94" viewBox="0 0 59 94" fill="none" xmlns="http://www.w3.org/2000/svg">
<path d="M45.79 51.25C45.3944 51.25 45.0078 51.3673 44.6789 51.5871C44.35 51.8068 44.0936 52.1192 43.9423 52.4846C43.7909 52.8501 43.7513 53.2522 43.8285 53.6402C43.9056 54.0282 44.0961 54.3845 44.3758 54.6642C44.6555 54.9439 45.0119 55.1344 45.3998 55.2116C45.7878 55.2887 46.1899 55.2491 46.5554 55.0978C46.9208 54.9464 47.2332 54.69 47.453 54.3611C47.6727 54.0322 47.79 53.6456 47.79 53.25C47.79 52.9865 47.738 52.7256 47.6368 52.4823C47.5357 52.239 47.3875 52.0181 47.2007 51.8322C47.0139 51.6464 46.7923 51.4993 46.5485 51.3994C46.3046 51.2994 46.0435 51.2487 45.78 51.25H45.79ZM45.79 64.05C45.3944 64.05 45.0078 64.1673 44.6789 64.3871C44.35 64.6068 44.0936 64.9192 43.9423 65.2846C43.7909 65.6501 43.7513 66.0522 43.8285 66.4402C43.9056 66.8281 44.0961 67.1845 44.3758 67.4642C44.6555 67.7439 45.0119 67.9344 45.3998 68.0116C45.7878 68.0887 46.1899 68.0491 46.5554 67.8978C46.9208 67.7464 47.2332 67.49 47.453 67.1611C47.6727 66.8322 47.79 66.4456 47.79 66.05C47.79 65.7865 47.738 65.5256 47.6368 65.2823C47.5357 65.039 47.3875 64.8181 47.2007 64.6322C47.0139 64.4464 46.7923 64.2993 46.5485 64.1994C46.3046 64.0994 46.0435 64.0487 45.78 64.05H45.79ZM45.79 89.67C45.3944 89.67 45.0078 89.7873 44.6789 90.0071C44.35 90.2268 44.0936 90.5392 43.9423 90.9046C43.7909 91.2701 43.7513 91.6722 43.8285 92.0602C43.9056 92.4482 44.0961 92.8045 44.3758 93.0842C44.6555 93.3639 45.0119 93.5544 45.3998 93.6316C45.7878 93.7087 46.1899 93.6691 46.5554 93.5178C46.9208 93.3664 47.2332 93.11 47.453 92.7812C47.6727 92.4523 47.79 92.0656 47.79 91.67C47.79 91.4065 47.738 91.1456 47.6368 90.9023C47.5357 90.659 47.3875 90.4381 47.2007 90.2522C47.0139 90.0664 46.7923 89.9193 46.5485 89.8194C46.3046 89.7194 46.0435 89.6687 45.78 89.67H45.79ZM45.79 76.86C45.3944 76.86 45.0078 76.9773 44.6789 77.1971C44.35 77.4168 44.0936 77.7292 43.9423 78.0946C43.7909 78.4601 43.7513 78.8622 43.8285 79.2502C43.9056 79.6382 44.0961 79.9945 44.3758 80.2742C44.6555 80.5539 45.0119 80.7444 45.3998 80.8216C45.7878 80.8987 46.1899 80.8591 46.5554 80.7078C46.9208 80.5564 47.2332 80.3 47.453 79.9711C47.6727 79.6422 47.79 79.2556 47.79 78.86C47.79 78.5965 47.738 78.3356 47.6368 78.0923C47.5357 77.849 47.3875 77.6281 47.2007 77.4422C47.0139 77.2564 46.7923 77.1093 46.5485 77.0094C46.3046 76.9094 46.0435 76.8587 45.78 76.86H45.79ZM60.37 12.86C59.9767 12.8698 59.5951 12.9954 59.2728 13.2211C58.9506 13.4468 58.702 13.7624 58.5583 14.1286C58.4145 14.4949 58.382 14.8953 58.4647 15.2799C58.5475 15.6645 58.7418 16.0162 59.0234 16.2909C59.305 16.5657 59.6613 16.7512 60.0478 16.8244C60.4344 16.8977 60.8339 16.8552 61.1965 16.7025C61.559 16.5498 61.8685 16.2935 62.0861 15.9658C62.3037 15.638 62.4199 15.2534 62.42 14.86C62.4256 14.5889 62.3759 14.3195 62.2741 14.0681C62.1723 13.8168 62.0204 13.5888 61.8277 13.398C61.635 13.2072 61.4056 13.0575 61.1533 12.9582C60.9009 12.8588 60.6311 12.8118 60.36 12.82L60.37 12.86ZM45.79 38.48C45.3944 38.48 45.0078 38.5973 44.6789 38.8171C44.35 39.0368 44.0936 39.3492 43.9423 39.7146C43.7909 40.0801 43.7513 40.4822 43.8285 40.8702C43.9056 41.2581 44.0961 41.6145 44.3758 41.8942C44.6555 42.1739 45.0119 42.3644 45.3998 42.4416C45.7878 42.5187 46.1899 42.4791 46.5554 42.3278C46.9208 42.1764 47.2332 41.92 47.453 41.5911C47.6727 41.2622 47.79 40.8756 47.79 40.48C47.7953 40.2132 47.7472 39.948 47.6485 39.7C47.5497 39.4521 47.4024 39.2264 47.215 39.0363C47.0277 38.8462 46.8043 38.6955 46.5578 38.5931C46.3114 38.4907 46.0469 38.4386 45.78 38.44L45.79 38.48ZM31.24 68.12C31.7811 68.12 32.2999 67.9051 32.6825 67.5225C33.0651 67.1399 33.28 66.621 33.28 66.08C33.28 65.539 33.0651 65.0201 32.6825 64.6375C32.2999 64.2549 31.7811 64.04 31.24 64.04C30.699 64.04 30.1801 64.2549 29.7975 64.6375C29.4149 65.0201 29.2 65.539 29.2 66.08C29.2 66.621 29.4149 67.1399 29.7975 67.5225C30.1801 67.9051 30.699 68.12 31.24 68.12ZM31.24 80.93C31.7811 80.93 32.2999 80.7151 32.6825 80.3325C33.0651 79.9499 33.28 79.431 33.28 78.89C33.28 78.349 33.0651 77.8301 32.6825 77.4475C32.2999 77.0649 31.7811 76.85 31.24 76.85C30.699 76.85 30.1801 77.0649 29.7975 77.4475C29.4149 77.8301 29.2 78.349 29.2 78.89C29.2 79.431 29.4149 79.9499 29.7975 80.3325C30.1801 80.7151 30.699 80.93 31.24 80.93ZM45.83 0C45.4344 0 45.0478 0.117304 44.7189 0.337067C44.39 0.556829 44.1336 0.869182 43.9823 1.23463C43.8309 1.60009 43.7913 2.00222 43.8684 2.39018C43.9456 2.77814 44.1361 3.13451 44.4158 3.41422C44.6955 3.69392 45.0519 3.8844 45.4398 3.96157C45.8278 4.03874 46.2299 3.99914 46.5954 3.84776C46.9608 3.69639 47.2732 3.44004 47.4929 3.11115C47.7127 2.78225 47.83 2.39556 47.83 2C47.8288 1.73394 47.7744 1.4708 47.6702 1.226C47.566 0.981192 47.414 0.75964 47.2231 0.574318C47.0322 0.388996 46.8062 0.243628 46.5584 0.146729C46.3106 0.0498294 46.046 0.00334759 45.78 0.0100021L45.83 0ZM45.83 12.81C45.4344 12.81 45.0478 12.9273 44.7189 13.1471C44.39 13.3668 44.1336 13.6792 43.9823 14.0446C43.8309 14.4101 43.7913 14.8122 43.8684 15.2002C43.9456 15.5881 44.1361 15.9445 44.4158 16.2242C44.6955 16.5039 45.0519 16.6944 45.4398 16.7716C45.8278 16.8487 46.2299 16.8091 46.5954 16.6578C46.9608 16.5064 47.2732 16.25 47.4929 15.9211C47.7127 15.5922 47.83 15.2056 47.83 14.81C47.8288 14.5439 47.7744 14.2808 47.6702 14.036C47.566 13.7912 47.414 13.5696 47.2231 13.3843C47.0322 13.199 46.8062 13.0536 46.5584 12.9567C46.3106 12.8598 46.046 12.8133 45.78 12.82L45.83 12.81ZM45.83 25.62C45.4344 25.62 45.0478 25.7373 44.7189 25.9571C44.39 26.1768 44.1336 26.4892 43.9823 26.8546C43.8309 27.2201 43.7913 27.6222 43.8684 28.0102C43.9456 28.3981 44.1361 28.7545 44.4158 29.0342C44.6955 29.3139 45.0519 29.5044 45.4398 29.5816C45.8278 29.6587 46.2299 29.6191 46.5954 29.4678C46.9608 29.3164 47.2732 29.06 47.4929 28.7311C47.7127 28.4022 47.83 28.0156 47.83 27.62C47.8288 27.3539 47.7744 27.0908 47.6702 26.846C47.566 26.6012 47.414 26.3796 47.2231 26.1943C47.0322 26.009 46.8062 25.8636 46.5584 25.7667C46.3106 25.6698 46.046 25.6234 45.78 25.63L45.83 25.62ZM89.58 55.32C90.121 55.32 90.6399 55.1051 91.0225 54.7225C91.4051 54.3399 91.62 53.821 91.62 53.28C91.62 52.739 91.4051 52.2201 91.0225 51.8375C90.6399 51.4549 90.121 51.24 89.58 51.24C89.039 51.24 88.5201 51.4549 88.1375 51.8375C87.7549 52.2201 87.54 52.739 87.54 53.28C87.54 53.821 87.7549 54.3399 88.1375 54.7225C88.5201 55.1051 89.039 55.32 89.58 55.32ZM89.58 42.51C90.121 42.51 90.6399 42.2951 91.0225 41.9125C91.4051 41.5299 91.62 41.0111 91.62 40.47C91.62 39.929 91.4051 39.4101 91.0225 39.0275C90.6399 38.6449 90.121 38.43 89.58 38.43C89.3121 38.43 89.0468 38.4828 88.7993 38.5853C88.5518 38.6878 88.3269 38.8381 88.1375 39.0275C87.9481 39.2169 87.7978 39.4418 87.6953 39.6893C87.5928 39.9368 87.54 40.2021 87.54 40.47C87.54 40.7379 87.5928 41.0032 87.6953 41.2507C87.7978 41.4982 87.9481 41.7231 88.1375 41.9125C88.3269 42.1019 88.5518 42.2522 88.7993 42.3547C89.0468 42.4572 89.3121 42.51 89.58 42.51ZM88.79 29.51C89.0402 29.6148 89.3087 29.6692 89.58 29.67C89.8674 29.6699 90.1512 29.605 90.41 29.48C90.6561 29.3643 90.877 29.2011 91.06 29C91.4053 28.6312 91.5983 28.1453 91.6 27.64C91.6 27.1096 91.3893 26.6009 91.0142 26.2258C90.6391 25.8507 90.1304 25.64 89.6 25.64C89.0696 25.64 88.5609 25.8507 88.1858 26.2258C87.8107 26.6009 87.6 27.1096 87.6 27.64C87.5805 28.0366 87.6794 28.43 87.8842 28.7701C88.089 29.1103 88.3904 29.3817 88.75 29.55L88.79 29.51ZM32.64 90.27C32.58 90.21 32.5 90.18 32.43 90.12C32.0821 89.8362 31.6489 89.6777 31.2 89.67C30.793 89.6528 30.3905 89.7603 30.0463 89.9781C29.7021 90.1959 29.4325 90.5136 29.2738 90.8888C29.115 91.2639 29.0746 91.6786 29.1579 92.0773C29.2412 92.476 29.4443 92.8398 29.74 93.12C29.9282 93.3175 30.1548 93.4743 30.4059 93.5809C30.657 93.6875 30.9272 93.7417 31.2 93.74C31.3011 93.7258 31.4013 93.7058 31.5 93.68C31.9674 93.613 32.3961 93.3827 32.71 93.03C32.7557 92.974 32.7959 92.9137 32.83 92.85C32.9285 92.7231 33.0123 92.5856 33.08 92.44C33.1767 92.2087 33.2276 91.9607 33.23 91.71C33.226 91.213 33.037 90.7353 32.7 90.37C32.6832 90.3348 32.6632 90.3013 32.64 90.27ZM31.24 55.33C31.7811 55.33 32.2999 55.1151 32.6825 54.7325C33.0651 54.3499 33.28 53.831 33.28 53.29C33.28 52.749 33.0651 52.2301 32.6825 51.8475C32.2999 51.4649 31.7811 51.25 31.24 51.25C30.699 51.25 30.1801 51.4649 29.7975 51.8475C29.4149 52.2301 29.2 52.749 29.2 53.29C29.2 53.831 29.4149 54.3499 29.7975 54.7325C30.1801 55.1151 30.699 55.33 31.24 55.33ZM60.41 76.86C60.0167 76.8698 59.6351 76.9954 59.3128 77.2211C58.9906 77.4467 58.742 77.7624 58.5983 78.1287C58.4546 78.4949 58.422 78.8953 58.5047 79.2799C58.5874 79.6645 58.7818 80.0162 59.0634 80.2909C59.345 80.5657 59.7013 80.7512 60.0879 80.8244C60.4744 80.8976 60.8739 80.8552 61.2365 80.7025C61.599 80.5498 61.9085 80.2935 62.1261 79.9658C62.3438 79.638 62.4599 79.2534 62.46 78.86C62.4604 78.5887 62.4055 78.3202 62.2988 78.0708C62.1921 77.8214 62.0358 77.5963 61.8393 77.4092C61.6429 77.2221 61.4104 77.077 61.1561 76.9826C60.9018 76.8881 60.6309 76.8464 60.36 76.86H60.41ZM60.41 38.44C60.0167 38.4498 59.6351 38.5754 59.3128 38.8011C58.9906 39.0268 58.742 39.3424 58.5983 39.7086C58.4546 40.0748 58.422 40.4753 58.5047 40.8599C58.5874 41.2445 58.7818 41.5962 59.0634 41.8709C59.345 42.1457 59.7013 42.3312 60.0879 42.4044C60.4744 42.4776 60.8739 42.4352 61.2365 42.2825C61.599 42.1298 61.9085 41.8735 62.1261 41.5458C62.3438 41.218 62.4599 40.8334 62.46 40.44C62.4604 40.1687 62.4055 39.9002 62.2988 39.6508C62.1921 39.4014 62.0358 39.1763 61.8393 38.9892C61.6429 38.8021 61.4104 38.657 61.1561 38.5626C60.9018 38.4681 60.6309 38.4264 60.36 38.44H60.41ZM60.41 51.25C60.0167 51.2598 59.6351 51.3854 59.3128 51.6111C58.9906 51.8367 58.742 52.1524 58.5983 52.5187C58.4546 52.8849 58.422 53.2853 58.5047 53.6699C58.5874 54.0545 58.7818 54.4062 59.0634 54.6809C59.345 54.9557 59.7013 55.1413 60.0879 55.2145C60.4744 55.2877 60.8739 55.2452 61.2365 55.0925C61.599 54.9398 61.9085 54.6835 62.1261 54.3558C62.3438 54.028 62.4599 53.6434 62.46 53.25C62.4604 52.9787 62.4055 52.7102 62.2988 52.4608C62.1921 52.2114 62.0358 51.9863 61.8393 51.7992C61.6429 51.6121 61.4104 51.467 61.1561 51.3726C60.9018 51.2781 60.6309 51.2364 60.36 51.25H60.41ZM60.41 64.05C60.0167 64.0598 59.6351 64.1854 59.3128 64.4111C58.9906 64.6367 58.742 64.9524 58.5983 65.3186C58.4546 65.6849 58.422 66.0853 58.5047 66.4699C58.5874 66.8545 58.7818 67.2062 59.0634 67.4809C59.345 67.7557 59.7013 67.9412 60.0879 68.0144C60.4744 68.0876 60.8739 68.0452 61.2365 67.8925C61.599 67.7398 61.9085 67.4835 62.1261 67.1558C62.3438 66.828 62.4599 66.4434 62.46 66.05C62.4604 65.7787 62.4055 65.5102 62.2988 65.2608C62.1921 65.0114 62.0358 64.7863 61.8393 64.5992C61.6429 64.4121 61.4104 64.267 61.1561 64.1726C60.9018 64.0781 60.6309 64.0364 60.36 64.05H60.41ZM60.41 25.63C60.0167 25.6398 59.6351 25.7654 59.3128 25.9911C58.9906 26.2168 58.742 26.5324 58.5983 26.8986C58.4546 27.2649 58.422 27.6653 58.5047 28.0499C58.5874 28.4345 58.7818 28.7862 59.0634 29.0609C59.345 29.3357 59.7013 29.5212 60.0879 29.5944C60.4744 29.6676 60.8739 29.6252 61.2365 29.4725C61.599 29.3198 61.9085 29.0635 62.1261 28.7358C62.3438 28.408 62.4599 28.0234 62.46 27.63C62.4604 27.3587 62.4055 27.0902 62.2988 26.8408C62.1921 26.5914 62.0358 26.3663 61.8393 26.1792C61.6429 25.9921 61.4104 25.847 61.1561 25.7526C60.9018 25.6581 60.6309 25.6164 60.36 25.63H60.41ZM75 12.82C74.6067 12.8298 74.2251 12.9554 73.9028 13.1811C73.5806 13.4068 73.332 13.7224 73.1883 14.0886C73.0445 14.4549 73.012 14.8553 73.0947 15.2399C73.1774 15.6245 73.3718 15.9762 73.6534 16.2509C73.935 16.5257 74.2913 16.7112 74.6778 16.7844C75.0644 16.8577 75.4639 16.8152 75.8265 16.6625C76.189 16.5098 76.4985 16.2535 76.7161 15.9258C76.9337 15.598 77.0499 15.2134 77.05 14.82C77.0503 14.5487 76.9955 14.2802 76.8888 14.0308C76.7821 13.7814 76.6258 13.5563 76.4293 13.3692C76.2329 13.1821 76.0004 13.037 75.7461 12.9426C75.4918 12.8481 75.2209 12.8064 74.95 12.82H75ZM60.37 4.12C60.9005 4.12 61.4092 3.90929 61.7842 3.53422C62.1593 3.15915 62.37 2.65044 62.37 2.12C62.3635 1.8019 62.2813 1.48992 62.13 1.21L62.08 1.14C61.9339 0.882313 61.7324 0.660306 61.49 0.490005C61.156 0.234848 60.7502 0.0913877 60.33 0.0800018C59.789 0.0800018 59.2701 0.294931 58.8875 0.677505C58.5049 1.06008 58.29 1.57896 58.29 2.12C58.29 2.66104 58.5049 3.17993 58.8875 3.5625C59.2701 3.94507 59.789 4.16 60.33 4.16L60.37 4.12ZM74.96 64.12C74.5667 64.1298 74.1851 64.2554 73.8628 64.4811C73.5406 64.7068 73.292 65.0224 73.1483 65.3886C73.0045 65.7549 72.972 66.1553 73.0547 66.5399C73.1375 66.9246 73.3318 67.2762 73.6134 67.5509C73.895 67.8257 74.2513 68.0112 74.6379 68.0844C75.0244 68.1577 75.4239 68.1152 75.7865 67.9625C76.149 67.8098 76.4585 67.5535 76.6761 67.2258C76.8937 66.898 77.0099 66.5134 77.01 66.12C77.0197 65.8464 76.9732 65.5737 76.8732 65.3188C76.7732 65.064 76.622 64.8323 76.4289 64.6383C76.2358 64.4442 76.0049 64.2919 75.7505 64.1907C75.4961 64.0895 75.2236 64.0416 74.95 64.05L74.96 64.12ZM74.96 76.93C74.5667 76.9398 74.1851 77.0654 73.8628 77.2911C73.5406 77.5168 73.292 77.8324 73.1483 78.1986C73.0045 78.5649 72.972 78.9653 73.0547 79.3499C73.1375 79.7346 73.3318 80.0862 73.6134 80.3609C73.895 80.6357 74.2513 80.8212 74.6379 80.8944C75.0244 80.9677 75.4239 80.9252 75.7865 80.7725C76.149 80.6198 76.4585 80.3635 76.6761 80.0358C76.8937 79.708 77.0099 79.3234 77.01 78.93C77.0197 78.6564 76.9732 78.3837 76.8732 78.1289C76.7732 77.874 76.622 77.6423 76.4289 77.4483C76.2358 77.2542 76.0049 77.1019 75.7505 77.0007C75.4961 76.8995 75.2236 76.8516 74.95 76.86L74.96 76.93ZM74.96 25.7C74.5667 25.7098 74.1851 25.8354 73.8628 26.0611C73.5406 26.2868 73.292 26.6024 73.1483 26.9686C73.0045 27.3349 72.972 27.7353 73.0547 28.1199C73.1375 28.5045 73.3318 28.8562 73.6134 29.1309C73.895 29.4057 74.2513 29.5912 74.6379 29.6644C75.0244 29.7376 75.4239 29.6952 75.7865 29.5425C76.149 29.3898 76.4585 29.1335 76.6761 28.8058C76.8937 28.478 77.0099 28.0934 77.01 27.7C77.0197 27.4264 76.9732 27.1537 76.8732 26.8988C76.7732 26.644 76.622 26.4123 76.4289 26.2183C76.2358 26.0242 76.0049 25.8719 75.7505 25.7707C75.4961 25.6695 75.2236 25.6216 74.95 25.63L74.96 25.7ZM74.96 51.32C74.5667 51.3298 74.1851 51.4554 73.8628 51.6811C73.5406 51.9068 73.292 52.2224 73.1483 52.5886C73.0045 52.9549 72.972 53.3553 73.0547 53.7399C73.1375 54.1245 73.3318 54.4762 73.6134 54.7509C73.895 55.0257 74.2513 55.2112 74.6379 55.2844C75.0244 55.3577 75.4239 55.3152 75.7865 55.1625C76.149 55.0098 76.4585 54.7535 76.6761 54.4258C76.8937 54.098 77.0099 53.7134 77.01 53.32C77.0197 53.0464 76.9732 52.7737 76.8732 52.5189C76.7732 52.264 76.622 52.0323 76.4289 51.8383C76.2358 51.6442 76.0049 51.4919 75.7505 51.3907C75.4961 51.2895 75.2236 51.2416 74.95 51.25L74.96 51.32ZM2.03002 25.7C1.80705 25.7015 1.58643 25.7457 1.38003 25.83C1.20136 25.8957 1.03299 25.9867 0.880028 26.1C0.611398 26.2816 0.390934 26.5257 0.237633 26.8114C0.0843315 27.0971 0.00278457 27.4158 2.30642e-05 27.74C0.0118651 27.8242 0.0285473 27.9077 0.0500109 27.99C0.102903 28.4739 0.330468 28.9219 0.690026 29.25L0.849999 29.35C1.10641 29.5253 1.40015 29.6385 1.70791 29.6806C2.01567 29.7227 2.32903 29.6925 2.6231 29.5925C2.91717 29.4924 3.18388 29.3253 3.40212 29.1042C3.62036 28.8832 3.78411 28.6143 3.88039 28.319C3.97668 28.0237 4.00286 27.71 3.95684 27.4028C3.91082 27.0956 3.79388 26.8033 3.61529 26.5492C3.43669 26.295 3.20137 26.086 2.92794 25.9386C2.65451 25.7912 2.35048 25.7095 2.04 25.7H2.03002ZM74.96 38.51C74.5667 38.5198 74.1851 38.6454 73.8628 38.8711C73.5406 39.0968 73.292 39.4124 73.1483 39.7786C73.0045 40.1449 72.972 40.5453 73.0547 40.9299C73.1375 41.3145 73.3318 41.6662 73.6134 41.9409C73.895 42.2157 74.2513 42.4012 74.6379 42.4744C75.0244 42.5477 75.4239 42.5052 75.7865 42.3525C76.149 42.1998 76.4585 41.9435 76.6761 41.6158C76.8937 41.288 77.0099 40.9034 77.01 40.51C77.0197 40.2364 76.9732 39.9637 76.8732 39.7088C76.7732 39.454 76.622 39.2223 76.4289 39.0283C76.2358 38.8342 76.0049 38.6819 75.7505 38.5807C75.4961 38.4795 75.2236 38.4316 74.95 38.44L74.96 38.51ZM2.03002 64.12C1.78252 64.1224 1.53788 64.1733 1.31002 64.27C1.20155 64.3167 1.09776 64.3737 1.00002 64.44L0.750023 64.61C0.621317 64.722 0.507104 64.8497 0.410027 64.99L0.349999 65.08C0.240714 65.2504 0.156518 65.4356 0.0999987 65.63C0.0465819 65.7989 0.0130467 65.9734 2.30642e-05 66.15C-0.00180838 66.5314 0.105467 66.9055 0.309227 67.2279C0.512987 67.5504 0.804726 67.8079 1.15002 67.97C1.42263 68.1098 1.72371 68.185 2.03002 68.19C2.56045 68.19 3.06916 67.9793 3.44424 67.6042C3.81931 67.2291 4.03002 66.7204 4.03002 66.19C4.03002 65.6596 3.81931 65.1509 3.44424 64.7758C3.06916 64.4007 2.56045 64.19 2.03002 64.19V64.12ZM2.03002 38.51C1.63674 38.5198 1.25508 38.6454 0.932823 38.8711C0.610568 39.0968 0.362022 39.4124 0.218285 39.7786C0.0745476 40.1449 0.0419932 40.5453 0.124718 40.9299C0.207443 41.3145 0.401779 41.6662 0.683373 41.9409C0.964966 42.2157 1.32131 42.4012 1.70785 42.4744C2.09438 42.5477 2.49392 42.5052 2.85647 42.3525C3.21902 42.1998 3.52849 41.9435 3.74612 41.6158C3.96375 41.288 4.07989 40.9034 4.08001 40.51C4.08972 40.2364 4.04316 39.9637 3.9432 39.7088C3.84324 39.454 3.69201 39.2223 3.49889 39.0283C3.30578 38.8342 3.07487 38.6819 2.82049 38.5807C2.5661 38.4795 2.29366 38.4316 2.02001 38.44L2.03002 38.51ZM2.03002 51.32C1.49959 51.32 0.99088 51.5307 0.615807 51.9058C0.240734 52.2809 0.0300218 52.7896 0.0300218 53.32C0.0300218 53.7156 0.147326 54.1022 0.367088 54.4311C0.586851 54.76 0.899189 55.0164 1.26464 55.1678C1.63009 55.3191 2.03223 55.3587 2.42019 55.2816C2.80815 55.2044 3.16453 55.0139 3.44424 54.7342C3.72394 54.4545 3.9144 54.0981 3.99157 53.7102C4.06874 53.3222 4.02914 52.9201 3.87777 52.5546C3.72639 52.1892 3.47007 51.8768 3.14117 51.6571C2.81227 51.4373 2.42558 51.32 2.03002 51.32ZM16.62 38.51C16.2267 38.5198 15.8451 38.6454 15.5228 38.8711C15.2006 39.0968 14.952 39.4124 14.8083 39.7786C14.6645 40.1449 14.632 40.5453 14.7147 40.9299C14.7975 41.3145 14.9918 41.6662 15.2734 41.9409C15.555 42.2157 15.9113 42.4012 16.2978 42.4744C16.6844 42.5477 17.0839 42.5052 17.4465 42.3525C17.809 42.1998 18.1185 41.9435 18.3361 41.6158C18.5537 41.288 18.6699 40.9034 18.67 40.51C18.6797 40.2364 18.6332 39.9637 18.5332 39.7088C18.4332 39.454 18.282 39.2223 18.0889 39.0283C17.8958 38.8342 17.6649 38.6819 17.4105 38.5807C17.1561 38.4795 16.8837 38.4316 16.61 38.44L16.62 38.51ZM31.24 4.12C31.7811 4.12 32.2999 3.90507 32.6825 3.5225C33.0651 3.13993 33.28 2.62104 33.28 2.08C33.28 1.53896 33.0651 1.02008 32.6825 0.637505C32.2999 0.25493 31.7811 0.0400009 31.24 0.0400009C30.699 0.0400009 30.1801 0.25493 29.7975 0.637505C29.4149 1.02008 29.2 1.53896 29.2 2.08C29.2 2.62104 29.4149 3.13993 29.7975 3.5225C30.1801 3.90507 30.699 4.12 31.24 4.12ZM31.24 29.74C31.5079 29.74 31.7732 29.6872 32.0207 29.5847C32.2682 29.4822 32.4931 29.3319 32.6825 29.1425C32.8719 28.9531 33.0222 28.7282 33.1247 28.4807C33.2272 28.2332 33.28 27.9679 33.28 27.7C33.28 27.4321 33.2272 27.1668 33.1247 26.9193C33.0222 26.6718 32.8719 26.4469 32.6825 26.2575C32.4931 26.0681 32.2682 25.9178 32.0207 25.8153C31.7732 25.7128 31.5079 25.66 31.24 25.66C30.699 25.66 30.1801 25.8749 29.7975 26.2575C29.4149 26.6401 29.2 27.159 29.2 27.7C29.2 28.241 29.4149 28.7599 29.7975 29.1425C30.1801 29.5251 30.699 29.74 31.24 29.74ZM31.24 16.93C31.7811 16.93 32.2999 16.7151 32.6825 16.3325C33.0651 15.9499 33.28 15.431 33.28 14.89C33.28 14.349 33.0651 13.8301 32.6825 13.4475C32.2999 13.0649 31.7811 12.85 31.24 12.85C30.699 12.85 30.1801 13.0649 29.7975 13.4475C29.4149 13.8301 29.2 14.349 29.2 14.89C29.2 15.431 29.4149 15.9499 29.7975 16.3325C30.1801 16.7151 30.699 16.93 31.24 16.93ZM16.66 64.08C16.2667 64.0898 15.8851 64.2154 15.5628 64.4411C15.2406 64.6667 14.992 64.9824 14.8483 65.3486C14.7046 65.7149 14.672 66.1153 14.7547 66.4999C14.8374 66.8845 15.0318 67.2362 15.3134 67.5109C15.595 67.7857 15.9513 67.9712 16.3379 68.0444C16.7244 68.1176 17.1239 68.0752 17.4865 67.9225C17.849 67.7698 18.1585 67.5135 18.3761 67.1858C18.5938 66.858 18.7099 66.4734 18.71 66.08C18.7145 65.8062 18.6626 65.5344 18.5578 65.2815C18.4529 65.0285 18.2972 64.7998 18.1003 64.6095C17.9035 64.4192 17.6696 64.2713 17.4132 64.1751C17.1569 64.0789 16.8835 64.0363 16.61 64.05L16.66 64.08ZM16.66 51.28C16.2667 51.2898 15.8851 51.4155 15.5628 51.6411C15.2406 51.8668 14.992 52.1824 14.8483 52.5487C14.7046 52.9149 14.672 53.3153 14.7547 53.6999C14.8374 54.0845 15.0318 54.4362 15.3134 54.7109C15.595 54.9857 15.9513 55.1712 16.3379 55.2445C16.7244 55.3177 17.1239 55.2752 17.4865 55.1225C17.849 54.9698 18.1585 54.7135 18.3761 54.3858C18.5938 54.058 18.7099 53.6734 18.71 53.28C18.7145 53.0062 18.6626 52.7344 18.5578 52.4815C18.4529 52.2285 18.2972 51.9998 18.1003 51.8095C17.9035 51.6192 17.6696 51.4713 17.4132 51.3751C17.1569 51.2789 16.8835 51.2363 16.61 51.25L16.66 51.28ZM16.66 12.85C16.2667 12.8598 15.8851 12.9854 15.5628 13.2111C15.2406 13.4368 14.992 13.7524 14.8483 14.1186C14.7046 14.4849 14.672 14.8853 14.7547 15.2699C14.8374 15.6545 15.0318 16.0062 15.3134 16.2809C15.595 16.5557 15.9513 16.7412 16.3379 16.8144C16.7244 16.8876 17.1239 16.8452 17.4865 16.6925C17.849 16.5398 18.1585 16.2835 18.3761 15.9558C18.5938 15.628 18.7099 15.2434 18.71 14.85C18.7145 14.5762 18.6626 14.3044 18.5578 14.0515C18.4529 13.7985 18.2972 13.5698 18.1003 13.3795C17.9035 13.1892 17.6696 13.0413 17.4132 12.9451C17.1569 12.8489 16.8835 12.8063 16.61 12.82L16.66 12.85ZM31.24 42.52C31.5079 42.52 31.7732 42.4672 32.0207 42.3647C32.2682 42.2622 32.4931 42.1119 32.6825 41.9225C32.8719 41.7331 33.0222 41.5082 33.1247 41.2607C33.2272 41.0132 33.28 40.7479 33.28 40.48C33.28 40.2121 33.2272 39.9468 33.1247 39.6993C33.0222 39.4518 32.8719 39.2269 32.6825 39.0375C32.4931 38.8481 32.2682 38.6978 32.0207 38.5953C31.7732 38.4928 31.5079 38.44 31.24 38.44C30.699 38.44 30.1801 38.6549 29.7975 39.0375C29.4149 39.4201 29.2 39.939 29.2 40.48C29.2 41.021 29.4149 41.5399 29.7975 41.9225C30.1801 42.3051 30.699 42.52 31.24 42.52ZM16.66 76.86C16.2667 76.8698 15.8851 76.9954 15.5628 77.2211C15.2406 77.4467 14.992 77.7624 14.8483 78.1287C14.7046 78.4949 14.672 78.8953 14.7547 79.2799C14.8374 79.6645 15.0318 80.0162 15.3134 80.2909C15.595 80.5657 15.9513 80.7512 16.3379 80.8244C16.7244 80.8976 17.1239 80.8552 17.4865 80.7025C17.849 80.5498 18.1585 80.2935 18.3761 79.9658C18.5938 79.638 18.7099 79.2534 18.71 78.86C18.7104 78.5887 18.6555 78.3202 18.5488 78.0708C18.4421 77.8214 18.2858 77.5963 18.0893 77.4092C17.8929 77.2221 17.6604 77.077 17.4061 76.9826C17.1518 76.8881 16.8809 76.8464 16.61 76.86H16.66ZM16.66 25.63C16.2667 25.6398 15.8851 25.7654 15.5628 25.9911C15.2406 26.2168 14.992 26.5324 14.8483 26.8986C14.7046 27.2649 14.672 27.6653 14.7547 28.0499C14.8374 28.4345 15.0318 28.7862 15.3134 29.0609C15.595 29.3357 15.9513 29.5212 16.3379 29.5944C16.7244 29.6676 17.1239 29.6252 17.4865 29.4725C17.849 29.3198 18.1585 29.0635 18.3761 28.7358C18.5938 28.408 18.7099 28.0234 18.71 27.63C18.7104 27.3587 18.6555 27.0902 18.5488 26.8408C18.4421 26.5914 18.2858 26.3663 18.0893 26.1792C17.8929 25.9921 17.6604 25.847 17.4061 25.7526C17.1518 25.6581 16.8809 25.6164 16.61 25.63H16.66ZM90.34 64.21C90.1336 64.1256 89.913 64.0815 89.69 64.08C89.6535 64.0755 89.6165 64.0755 89.58 64.08C89.0496 64.08 88.5409 64.2907 88.1658 64.6658C87.7907 65.0409 87.58 65.5496 87.58 66.08C87.5737 66.5284 87.7341 66.9631 88.03 67.3C88.0667 67.359 88.1067 67.4157 88.15 67.47C88.4988 67.8377 88.9741 68.0593 89.48 68.09C89.5266 68.0947 89.5735 68.0947 89.62 68.09C90.1255 68.1573 90.6376 68.0289 91.0516 67.7312C91.4656 67.4334 91.7502 66.9888 91.8473 66.4882C91.9443 65.9875 91.8465 65.4687 91.5738 65.0378C91.301 64.6069 90.874 64.2965 90.38 64.17L90.34 64.21ZM60.41 89.67C59.9599 89.6805 59.5266 89.8426 59.18 90.13C59.1063 90.1708 59.036 90.2176 58.97 90.27C58.6356 90.6155 58.4367 91.0699 58.41 91.55C58.4053 91.6032 58.4053 91.6568 58.41 91.71C58.4064 92.0294 58.4894 92.3439 58.65 92.62C58.7187 92.7665 58.8098 92.9015 58.92 93.02C58.968 93.0846 59.0215 93.1448 59.08 93.2C59.2402 93.3546 59.4264 93.4798 59.63 93.57C59.89 93.6875 60.172 93.748 60.4572 93.7475C60.7425 93.747 61.0243 93.6855 61.2838 93.5671C61.5433 93.4487 61.7745 93.2762 61.9618 93.0611C62.1492 92.846 62.2884 92.5933 62.37 92.32C62.4462 92.129 62.4869 91.9256 62.49 91.72C62.4975 91.4428 62.4472 91.167 62.3423 90.9103C62.2375 90.6535 62.0804 90.4214 61.881 90.2286C61.6816 90.0358 61.4444 89.8866 61.1842 89.7904C60.9241 89.6943 60.6468 89.6533 60.37 89.67H60.41Z" fill="#C89211"/>
</svg>
