<svg width="45" height="73" viewBox="0 0 45 73" fill="none" xmlns="http://www.w3.org/2000/svg">
<path d="M9.05839 39.4274C8.80114 39.5759 8.5941 39.798 8.46343 40.0656C8.33275 40.3333 8.28431 40.6344 8.32426 40.9309C8.3642 41.2275 8.49073 41.5061 8.68783 41.7316C8.88493 41.9571 9.14374 42.1193 9.43156 42.1977C9.71938 42.2762 10.0233 42.2673 10.3048 42.1722C10.5863 42.0772 10.8329 41.9002 11.0132 41.6637C11.1936 41.4272 11.2996 41.1418 11.318 40.8435C11.3364 40.5453 11.2662 40.2477 11.1164 39.9882C11.0167 39.8154 10.884 39.6638 10.7261 39.5422C10.5682 39.4206 10.3882 39.3313 10.1963 39.2796C10.0045 39.2278 9.8046 39.2146 9.6082 39.2406C9.41181 39.2666 9.22276 39.3313 9.0519 39.4311L9.05839 39.4274ZM13.9055 47.8227C13.6482 47.9713 13.4412 48.1934 13.3105 48.461C13.1798 48.7286 13.1314 49.0298 13.1713 49.3263C13.2113 49.6228 13.3378 49.9015 13.5349 50.1269C13.732 50.3524 13.9908 50.5146 14.2786 50.5931C14.5664 50.6715 14.8703 50.6626 15.1519 50.5676C15.4334 50.4725 15.6799 50.2956 15.8603 50.0591C16.0406 49.8226 16.1467 49.5371 16.1651 49.2389C16.1834 48.9407 16.1133 48.643 15.9635 48.3836C15.8637 48.2107 15.7311 48.0592 15.5732 47.9376C15.4153 47.816 15.2352 47.7267 15.0434 47.6749C14.8515 47.6232 14.6517 47.6099 14.4553 47.6359C14.2589 47.6619 14.0698 47.7267 13.899 47.8265L13.9055 47.8227ZM23.6072 64.6266C23.3499 64.7751 23.1429 64.9972 23.0122 65.2648C22.8815 65.5325 22.8331 65.8336 22.873 66.1301C22.913 66.4267 23.0395 66.7053 23.2366 66.9308C23.4337 67.1563 23.6925 67.3185 23.9803 67.3969C24.2681 67.4754 24.572 67.4665 24.8536 67.3714C25.1351 67.2764 25.3816 67.0994 25.562 66.8629C25.7423 66.6264 25.8484 66.341 25.8668 66.0427C25.8851 65.7445 25.815 65.4468 25.6652 65.1874C25.5654 65.0146 25.4328 64.863 25.2749 64.7414C25.117 64.6198 24.9369 64.5305 24.7451 64.4788C24.5532 64.427 24.3534 64.4138 24.157 64.4398C23.9606 64.4658 23.7715 64.5305 23.6007 64.6303L23.6072 64.6266ZM18.7563 56.2247C18.4991 56.3732 18.292 56.5953 18.1613 56.8629C18.0307 57.1306 17.9822 57.4317 18.0222 57.7282C18.0621 58.0248 18.1886 58.3034 18.3857 58.5289C18.5828 58.7543 18.8417 58.9166 19.1295 58.995C19.4173 59.0734 19.7212 59.0646 20.0027 58.9695C20.2842 58.8744 20.5308 58.6975 20.7111 58.461C20.8915 58.2245 20.9975 57.939 21.0159 57.6408C21.0343 57.3426 20.9641 57.0449 20.8143 56.7855C20.7146 56.6127 20.5819 56.4611 20.424 56.3395C20.2661 56.2179 20.0861 56.1286 19.8942 56.0769C19.7024 56.0251 19.5025 56.0118 19.3061 56.0378C19.1097 56.0638 18.9207 56.1286 18.7498 56.2284L18.7563 56.2247ZM4.00296 8.77344C3.75092 8.92756 3.55027 9.15325 3.42615 9.42225C3.30202 9.69125 3.25992 9.99163 3.30512 10.2858C3.35032 10.58 3.48081 10.8548 3.68025 11.076C3.8797 11.2972 4.13923 11.4549 4.4264 11.5294C4.71356 11.6038 5.01558 11.5918 5.29468 11.4946C5.57378 11.3975 5.81757 11.2197 5.99552 10.9834C6.17346 10.7471 6.27766 10.4628 6.29509 10.1661C6.31252 9.86946 6.2424 9.57358 6.0935 9.3155C5.99444 9.13559 5.86014 8.97753 5.69876 8.85091C5.53736 8.72429 5.35225 8.63178 5.15469 8.57898C4.95712 8.52617 4.75122 8.51419 4.54951 8.54375C4.34779 8.57332 4.15447 8.64382 3.9813 8.75096L4.00296 8.77344ZM4.22269 31.0517C3.96544 31.2002 3.7584 31.4223 3.62773 31.69C3.49705 31.9576 3.44861 32.2587 3.48855 32.5553C3.52849 32.8518 3.65503 33.1304 3.85212 33.3559C4.04922 33.5814 4.30803 33.7436 4.59585 33.822C4.88367 33.9005 5.18757 33.8916 5.4691 33.7965C5.75063 33.7015 5.99716 33.5245 6.17751 33.288C6.35785 33.0515 6.46392 32.7661 6.4823 32.4679C6.50068 32.1696 6.43051 31.872 6.28072 31.6125C6.18315 31.4355 6.05144 31.2796 5.89333 31.1541C5.73522 31.0285 5.55391 30.9358 5.3601 30.8815C5.1663 30.8271 4.96391 30.8122 4.76485 30.8376C4.56579 30.8629 4.37409 30.9281 4.20105 31.0292L4.22269 31.0517ZM5.98423 55.9553C6.33609 55.7522 6.59216 55.4164 6.69609 55.0218C6.80002 54.6273 6.74331 54.2062 6.53843 53.8514C6.33355 53.4965 5.99728 53.2369 5.60361 53.1296C5.20993 53.0223 4.79109 53.0762 4.43923 53.2793C4.08737 53.4825 3.8313 53.8183 3.72737 54.2128C3.62344 54.6074 3.68015 55.0284 3.88503 55.3833C4.08991 55.7382 4.42617 55.9978 4.81985 56.1051C5.21352 56.2123 5.63237 56.1585 5.98423 55.9553ZM10.8351 64.3573C11.1869 64.1541 11.443 63.8183 11.5469 63.4237C11.6509 63.0292 11.5942 62.6081 11.3893 62.2533C11.1844 61.8984 10.8481 61.6388 10.4545 61.5315C10.0608 61.4242 9.64194 61.4781 9.29007 61.6812C8.93821 61.8844 8.68215 62.2202 8.57822 62.6148C8.47429 63.0093 8.531 63.4304 8.73588 63.7852C8.94076 64.1401 9.27702 64.3997 9.6707 64.507C10.0644 64.6143 10.4832 64.5604 10.8351 64.3573ZM-10.3228 5.79812C-10.58 5.94665 -10.7871 6.16878 -10.9178 6.43641C-11.0484 6.70404 -11.0969 7.00515 -11.0569 7.30169C-11.017 7.59822 -10.8905 7.87685 -10.6934 8.10234C-10.4963 8.32782 -10.2374 8.49003 -9.94961 8.56847C-9.66179 8.6469 -9.35789 8.63802 -9.07636 8.54297C-8.79483 8.44791 -8.54831 8.27095 -8.36796 8.03444C-8.18761 7.79794 -8.08156 7.51253 -8.06319 7.2143C-8.04481 6.91606 -8.11495 6.6184 -8.26474 6.35895C-8.36631 6.18491 -8.50128 6.03273 -8.66176 5.91129C-8.82223 5.78985 -9.00497 5.70161 -9.19931 5.65174C-9.39364 5.60187 -9.59565 5.59137 -9.79349 5.62086C-9.99133 5.65034 -10.181 5.71922 -10.3515 5.82345L-10.3228 5.79812ZM-5.47192 14.2C-5.72917 14.3486 -5.93623 14.5707 -6.06691 14.8383C-6.19759 15.106 -6.246 15.4071 -6.20606 15.7036C-6.16612 16.0001 -6.03961 16.2788 -5.84251 16.5043C-5.64541 16.7297 -5.38659 16.892 -5.09876 16.9704C-4.81094 17.0488 -4.50704 17.0399 -4.22551 16.9449C-3.94398 16.8498 -3.69746 16.6729 -3.51711 16.4364C-3.33676 16.1999 -3.23071 15.9145 -3.21234 15.6162C-3.19396 15.318 -3.2641 15.0203 -3.41389 14.7609C-3.51545 14.5868 -3.65043 14.4346 -3.81091 14.3132C-3.97138 14.1918 -4.15413 14.1035 -4.34846 14.0537C-4.54279 14.0038 -4.7448 13.9933 -4.94264 14.0228C-5.14048 14.0523 -5.33019 14.1211 -5.50065 14.2254L-5.47192 14.2ZM-0.621074 22.602C-0.878324 22.7505 -1.08539 22.9726 -1.21606 23.2402C-1.34674 23.5079 -1.39515 23.809 -1.35521 24.1055C-1.31527 24.4021 -1.18876 24.6807 -0.991662 24.9062C-0.794562 25.1317 -0.535734 25.2939 -0.247912 25.3723C0.0399097 25.4507 0.343809 25.4419 0.625339 25.3468C0.906869 25.2517 1.15339 25.0748 1.33374 24.8383C1.51409 24.6018 1.62014 24.3164 1.63851 24.0181C1.65689 23.7199 1.58675 23.4222 1.43696 23.1628C1.3354 22.9888 1.20042 22.8366 1.03994 22.7151C0.879465 22.5937 0.696727 22.5054 0.502393 22.4556C0.308059 22.4057 0.106053 22.3952 -0.0917885 22.4247C-0.289633 22.4542 -0.479339 22.5231 -0.649798 22.6273L-0.621074 22.602ZM39.078 25.6548C39.4299 25.4517 39.6859 25.1159 39.7899 24.7213C39.8938 24.3267 39.8371 23.9057 39.6322 23.5509C39.4273 23.196 39.0911 22.9364 38.6974 22.8291C38.3037 22.7218 37.8849 22.7757 37.533 22.9788C37.1811 23.182 36.9251 23.5178 36.8211 23.9123C36.7172 24.3069 36.7739 24.7279 36.9788 25.0828C37.1837 25.4377 37.52 25.6973 37.9136 25.8046C38.3073 25.9118 38.7261 25.858 39.078 25.6548ZM34.2272 17.2529C34.579 17.0498 34.8351 16.714 34.939 16.3194C35.0429 15.9248 34.9862 15.5038 34.7814 15.1489C34.5765 14.7941 34.2402 14.5344 33.8465 14.4272C33.4529 14.3199 33.034 14.3737 32.6822 14.5769C32.5079 14.6775 32.3554 14.8117 32.2333 14.9719C32.1111 15.132 32.0218 15.315 31.9703 15.5104C31.9188 15.7058 31.9063 15.9097 31.9333 16.1105C31.9604 16.3114 32.0265 16.5052 32.128 16.6809C32.2294 16.8566 32.3642 17.0108 32.5246 17.1346C32.685 17.2584 32.8678 17.3495 33.0628 17.4026C33.2577 17.4558 33.4609 17.4699 33.6607 17.4442C33.8604 17.4185 34.0529 17.3535 34.2272 17.2529ZM28.7906 9.023C28.993 8.99781 29.1882 8.93267 29.3649 8.83132C29.5519 8.72335 29.7118 8.57422 29.8328 8.39505C29.949 8.22673 30.0309 8.03682 30.0737 7.83617C30.1586 7.46458 30.1001 7.07347 29.9099 6.74141C29.709 6.39351 29.3794 6.13897 28.9934 6.0338C28.6075 5.92862 28.1968 5.98142 27.8519 6.18059C27.5069 6.37975 27.2559 6.70895 27.154 7.09579C27.0521 7.48262 27.1077 7.8954 27.3085 8.24331C27.446 8.51074 27.6593 8.73163 27.9213 8.87783C28.1833 9.02403 28.4821 9.08892 28.7797 9.06425L28.7906 9.023ZM15.2824 69.9576C15.2207 69.9408 15.1573 69.9511 15.089 69.9381C14.7553 69.8825 14.4135 69.9412 14.1187 70.1047C13.8475 70.2463 13.6264 70.4679 13.4851 70.74C13.3437 71.0121 13.2887 71.3217 13.3275 71.6274C13.3663 71.933 13.4971 72.2202 13.7022 72.4504C13.9074 72.6807 14.1772 72.843 14.4756 72.9157C14.6728 72.9746 14.8796 72.9924 15.0832 72.968C15.2869 72.9437 15.4831 72.8777 15.6599 72.7742C15.7203 72.7269 15.7778 72.6762 15.8323 72.6222C16.1109 72.4027 16.3025 72.0908 16.3731 71.7416C16.3816 71.6877 16.3849 71.633 16.3829 71.5784C16.3989 71.4583 16.4014 71.3366 16.3903 71.2157C16.3656 71.0276 16.3048 70.8459 16.2114 70.6805C16.0206 70.3561 15.7168 70.1137 15.3593 70.0007C15.3351 69.9839 15.3093 69.9695 15.2824 69.9576ZM1.14095 47.5665C1.49282 47.3634 1.74888 47.0276 1.85281 46.633C1.95675 46.2385 1.90003 45.8174 1.69515 45.4626C1.49027 45.1077 1.15401 44.8481 0.760332 44.7408C0.366657 44.6335 -0.0521867 44.6874 -0.404048 44.8905C-0.755908 45.0937 -1.01197 45.4295 -1.11591 45.824C-1.21984 46.2186 -1.16313 46.6396 -0.958248 46.9945C-0.753368 47.3494 -0.417099 47.609 -0.0234235 47.7163C0.370251 47.8236 0.789094 47.7697 1.14095 47.5665ZM28.2643 50.7352C28.0123 50.8893 27.8116 51.115 27.6875 51.384C27.5634 51.653 27.5213 51.9534 27.5665 52.2476C27.6117 52.5417 27.7421 52.8166 27.9416 53.0378C28.141 53.259 28.4006 53.4167 28.6877 53.4912C28.9749 53.5656 29.2769 53.5535 29.556 53.4564C29.8351 53.3593 30.0789 53.1815 30.2568 52.9451C30.4348 52.7088 30.539 52.4246 30.5564 52.1279C30.5739 51.8312 30.5037 51.5354 30.3548 51.2773C30.2523 51.0992 30.115 50.9437 29.9511 50.8202C29.7873 50.6967 29.6004 50.6077 29.4018 50.5588C29.2032 50.5098 28.9971 50.5019 28.7959 50.5355C28.5948 50.569 28.4028 50.6434 28.2318 50.754L28.2643 50.7352ZM13.7155 25.536C13.4635 25.6901 13.2628 25.9158 13.1387 26.1848C13.0146 26.4538 12.9725 26.7542 13.0177 27.0484C13.0629 27.3425 13.1934 27.6174 13.3928 27.8386C13.5923 28.0598 13.8518 28.2175 14.139 28.292C14.4261 28.3664 14.7281 28.3543 15.0072 28.2572C15.2863 28.1601 15.5301 27.9823 15.7081 27.746C15.886 27.5097 15.9902 27.2254 16.0077 26.9287C16.0251 26.632 15.955 26.3362 15.8061 26.0781C15.7036 25.9 15.5662 25.7445 15.4024 25.621C15.2385 25.4975 15.0516 25.4085 14.853 25.3596C14.6544 25.3106 14.4483 25.3027 14.2472 25.3363C14.046 25.3698 13.8541 25.4442 13.683 25.5548L13.7155 25.536ZM18.5664 33.9379C18.3143 34.0921 18.1137 34.3177 17.9896 34.5867C17.8654 34.8557 17.8233 35.1561 17.8685 35.4503C17.9137 35.7445 18.0442 36.0193 18.2437 36.2405C18.4431 36.4617 18.7027 36.6194 18.9898 36.6939C19.277 36.7683 19.579 36.7563 19.8581 36.6591C20.1372 36.562 20.381 36.3842 20.5589 36.1479C20.7369 35.9116 20.8411 35.6273 20.8585 35.3306C20.8759 35.034 20.8058 34.7381 20.6569 34.48C20.5544 34.3019 20.4171 34.1464 20.2532 34.0229C20.0894 33.8994 19.9025 33.8105 19.7039 33.7615C19.5053 33.7126 19.2991 33.7046 19.098 33.7382C18.8969 33.7717 18.7049 33.8461 18.5339 33.9567L18.5664 33.9379ZM23.4134 42.3333C23.1614 42.4874 22.9608 42.7131 22.8366 42.9821C22.7125 43.2511 22.6704 43.5515 22.7156 43.8456C22.7608 44.1398 22.8913 44.4147 23.0907 44.6359C23.2902 44.8571 23.5497 45.0148 23.8369 45.0892C24.124 45.1637 24.4261 45.1516 24.7052 45.0545C24.9843 44.9574 25.228 44.7795 25.406 44.5432C25.5839 44.3069 25.6881 44.0227 25.7056 43.726C25.723 43.4293 25.6529 43.1334 25.504 42.8754C25.4015 42.6973 25.2641 42.5418 25.1003 42.4183C24.9364 42.2948 24.7495 42.2058 24.5509 42.1569C24.3523 42.1079 24.1462 42.1 23.9451 42.1335C23.7439 42.1671 23.552 42.2415 23.3809 42.3521L23.4134 42.3333ZM8.86468 17.1341C8.61264 17.2882 8.41199 17.5139 8.28787 17.7829C8.16374 18.0519 8.12165 18.3523 8.16684 18.6464C8.21204 18.9406 8.34252 19.2155 8.54196 19.4367C8.7414 19.6579 9.00095 19.8156 9.28812 19.89C9.57528 19.9645 9.8773 19.9524 10.1564 19.8553C10.4355 19.7582 10.6793 19.5803 10.8572 19.344C11.0352 19.1077 11.1394 18.8235 11.1568 18.5268C11.1742 18.2301 11.1041 17.9342 10.9552 17.6762C10.8527 17.4981 10.7154 17.3426 10.5515 17.2191C10.3877 17.0956 10.2008 17.0066 10.0022 16.9577C9.80358 16.9087 9.59745 16.9008 9.39631 16.9343C9.19516 16.9679 9.00322 17.0423 8.83215 17.1529L8.86468 17.1341ZM13.5023 3.25402C13.2502 3.40814 13.0496 3.63383 12.9255 3.90283C12.8014 4.17183 12.7593 4.47221 12.8045 4.76637C12.8496 5.06053 12.9801 5.33542 13.1796 5.55662C13.379 5.77782 13.6386 5.9355 13.9257 6.00996C14.2129 6.08442 14.5149 6.07234 14.794 5.97522C15.0731 5.8781 15.3169 5.70026 15.4948 5.46396C15.6728 5.22765 15.777 4.94337 15.7944 4.64671C15.8119 4.35004 15.7417 4.05415 15.5928 3.79608C15.4903 3.61802 15.353 3.46251 15.1891 3.339C15.0253 3.21548 14.8384 3.12654 14.6398 3.07759C14.4412 3.02864 14.2351 3.0207 14.0339 3.05426C13.8328 3.08782 13.6408 3.16217 13.4698 3.2728L13.5023 3.25402ZM0.693323 3.04099C1.03829 2.84182 1.28933 2.51261 1.39122 2.12578C1.49311 1.73894 1.43751 1.32617 1.23665 0.978265C1.11198 0.772056 0.940339 0.598326 0.735979 0.471514L0.676941 0.444384C0.484346 0.330228 0.269222 0.26028 0.0471071 0.239588C-0.266719 0.197636 -0.585003 0.255939 -0.862551 0.406224C-1.21441 0.60937 -1.47048 0.94517 -1.57441 1.33974C-1.67834 1.73431 -1.62163 2.15534 -1.41675 2.51021C-1.21187 2.86507 -0.875601 3.12469 -0.481927 3.23197C-0.0882523 3.33925 0.330592 3.28539 0.682451 3.08225L0.693323 3.04099ZM32.9024 36.9161C32.6503 37.0702 32.4497 37.2959 32.3256 37.5649C32.2015 37.8339 32.1594 38.1343 32.2046 38.4284C32.2498 38.7226 32.3802 38.9975 32.5797 39.2187C32.7791 39.4399 33.0387 39.5976 33.3258 39.672C33.613 39.7465 33.915 39.7344 34.1941 39.6373C34.4732 39.5401 34.717 39.3623 34.8949 39.126C35.0729 38.8897 35.1771 38.6054 35.1945 38.3088C35.212 38.0121 35.1418 37.7162 34.9929 37.4581C34.8956 37.275 34.7621 37.1137 34.6006 36.984C34.4391 36.8544 34.253 36.7592 34.0539 36.7045C33.8549 36.6497 33.647 36.6365 33.4433 36.6656C33.2395 36.6948 33.0442 36.7657 32.8694 36.8739L32.9024 36.9161ZM37.7532 45.318C37.5012 45.4721 37.3006 45.6978 37.1764 45.9668C37.0523 46.2358 37.0102 46.5362 37.0554 46.8303C37.1006 47.1245 37.2311 47.3994 37.4305 47.6206C37.63 47.8418 37.8895 47.9995 38.1767 48.0739C38.4638 48.1484 38.7659 48.1363 39.045 48.0392C39.3241 47.9421 39.5679 47.7642 39.7458 47.5279C39.9237 47.2916 40.0279 47.0073 40.0454 46.7107C40.0628 46.414 39.9927 46.1181 39.8438 45.86C39.7465 45.6769 39.613 45.5156 39.4514 45.386C39.2899 45.2563 39.1039 45.1612 38.9048 45.1064C38.7057 45.0516 38.4979 45.0384 38.2941 45.0675C38.0903 45.0967 37.895 45.1676 37.7202 45.2758L37.7532 45.318ZM18.3536 11.7169C18.1016 11.871 17.9009 12.0967 17.7768 12.3657C17.6527 12.6347 17.6106 12.9351 17.6558 13.2292C17.701 13.5234 17.8315 13.7983 18.0309 14.0195C18.2304 14.2407 18.4899 14.3984 18.7771 14.4728C19.0642 14.5473 19.3663 14.5352 19.6454 14.4381C19.9245 14.3409 20.1682 14.1631 20.3462 13.9268C20.5241 13.6905 20.6283 13.4062 20.6458 13.1096C20.6632 12.8129 20.5931 12.517 20.4442 12.2589C20.3469 12.0758 20.2133 11.9145 20.0518 11.7848C19.8903 11.6552 19.7043 11.56 19.5052 11.5053C19.3061 11.4505 19.0982 11.4373 18.8945 11.4664C18.6907 11.4956 18.4954 11.5665 18.3206 11.6747L18.3536 11.7169ZM28.0553 28.5207C27.8033 28.6748 27.6026 28.9005 27.4785 29.1695C27.3544 29.4385 27.3123 29.7389 27.3575 30.0331C27.4027 30.3272 27.5332 30.6021 27.7326 30.8233C27.9321 31.0445 28.1916 31.2022 28.4788 31.2766C28.7659 31.3511 29.068 31.339 29.3471 31.2419C29.6262 31.1448 29.8699 30.9669 30.0479 30.7306C30.2258 30.4943 30.33 30.2101 30.3475 29.9134C30.3649 29.6167 30.2948 29.3208 30.1459 29.0628C30.0486 28.8797 29.915 28.7183 29.7535 28.5887C29.592 28.459 29.406 28.3639 29.2069 28.3091C29.0078 28.2543 28.7999 28.2411 28.5962 28.2703C28.3924 28.2994 28.1971 28.3703 28.0223 28.4786L28.0553 28.5207ZM-29.0757 39.1002C-29.2201 39.1849 -29.3469 39.2967 -29.4492 39.4295C-29.5405 39.5397 -29.6155 39.6626 -29.6721 39.7943C-29.778 40.0143 -29.829 40.2572 -29.8205 40.5021C-29.812 40.7471 -29.7443 40.9867 -29.6234 41.2004C-29.5838 41.2512 -29.5413 41.2997 -29.4962 41.3456C-29.2785 41.6431 -28.9609 41.8515 -28.6028 41.9317L-28.4609 41.9373C-28.2278 41.956 -27.9939 41.9199 -27.7778 41.832C-27.5617 41.744 -27.3693 41.6066 -27.216 41.4305C-27.0626 41.2545 -26.9525 41.0447 -26.8942 40.8178C-26.836 40.5909 -26.8313 40.3531 -26.8805 40.1232C-26.9298 39.8933 -27.0315 39.6778 -27.1778 39.4936C-27.324 39.3093 -27.5108 39.1616 -27.7231 39.0619C-27.9355 38.9623 -28.1677 38.9135 -28.4014 38.9195C-28.635 38.9255 -28.8637 38.9861 -29.0692 39.0964L-29.0757 39.1002ZM23.2045 20.1188C22.9524 20.2729 22.7518 20.4986 22.6277 20.7676C22.5035 21.0366 22.4614 21.337 22.5066 21.6311C22.5518 21.9253 22.6823 22.2002 22.8818 22.4214C23.0812 22.6426 23.3408 22.8003 23.6279 22.8747C23.9151 22.9492 24.2171 22.9371 24.4962 22.84C24.7753 22.7429 25.0191 22.565 25.197 22.3287C25.375 22.0924 25.4792 21.8081 25.4966 21.5115C25.514 21.2148 25.4439 20.9189 25.295 20.6608C25.1977 20.4778 25.0642 20.3164 24.9027 20.1867C24.7411 20.0571 24.5551 19.962 24.356 19.9072C24.1569 19.8524 23.9491 19.8392 23.7453 19.8683C23.5416 19.8975 23.3462 19.9684 23.1715 20.0766L23.2045 20.1188ZM-14.5269 64.2994C-14.687 64.3939 -14.8268 64.5192 -14.9384 64.6681C-14.9912 64.7395 -15.0371 64.8158 -15.0756 64.896L-15.1738 65.1014C-15.2151 65.2232 -15.241 65.3498 -15.251 65.4783L-15.256 65.5598C-15.2625 65.7126 -15.2471 65.8657 -15.2103 66.0144C-15.1811 66.1453 -15.1368 66.2723 -15.0784 66.3931C-14.9351 66.6439 -14.7237 66.849 -14.4691 66.984C-14.2145 67.119 -13.9272 67.1783 -13.6413 67.155C-13.4111 67.1443 -13.1868 67.0806 -12.9857 66.9689C-12.6407 66.7697 -12.3897 66.4405 -12.2878 66.0536C-12.1859 65.6668 -12.2415 65.254 -12.4424 64.9061C-12.6432 64.5582 -12.9729 64.3037 -13.3589 64.1985C-13.7448 64.0933 -14.1554 64.1461 -14.5004 64.3453L-14.5269 64.2994ZM-24.2248 47.5021C-24.4769 47.6562 -24.6775 47.8819 -24.8016 48.1509C-24.9258 48.4199 -24.9679 48.7203 -24.9227 49.0145C-24.8775 49.3086 -24.747 49.5835 -24.5475 49.8047C-24.3481 50.0259 -24.0885 50.1836 -23.8014 50.2581C-23.5142 50.3325 -23.2122 50.3204 -22.9331 50.2233C-22.654 50.1262 -22.4102 49.9484 -22.2323 49.712C-22.0543 49.4757 -21.9501 49.1915 -21.9327 48.8948C-21.9153 48.5981 -21.9854 48.3022 -22.1343 48.0442C-22.2316 47.8611 -22.3651 47.6997 -22.5266 47.5701C-22.6882 47.4404 -22.8742 47.3453 -23.0733 47.2905C-23.2724 47.2358 -23.4802 47.2225 -23.684 47.2517C-23.8877 47.2808 -24.083 47.3517 -24.2578 47.46L-24.2248 47.5021ZM-19.374 55.904C-19.7189 56.1032 -19.97 56.4324 -20.0719 56.8192C-20.1738 57.2061 -20.1182 57.6188 -19.9173 57.9668C-19.7675 58.2262 -19.5448 58.4358 -19.2773 58.569C-19.0099 58.7022 -18.7097 58.753 -18.4147 58.7151C-18.1197 58.6772 -17.8432 58.5522 -17.6201 58.3559C-17.397 58.1596 -17.2374 57.9008 -17.1614 57.6124C-17.0854 57.3239 -17.0965 57.0186 -17.1932 56.7352C-17.2899 56.4518 -17.4679 56.2029 -17.7048 56.02C-17.9416 55.8372 -18.2266 55.7285 -18.5237 55.7079C-18.8208 55.6873 -19.1167 55.7555 -19.374 55.904ZM-14.7364 42.0239C-14.9884 42.1781 -15.189 42.4038 -15.3132 42.6728C-15.4373 42.9418 -15.4794 43.2421 -15.4342 43.5363C-15.389 43.8305 -15.2585 44.1053 -15.0591 44.3265C-14.8596 44.5477 -14.6001 44.7054 -14.3129 44.7799C-14.0258 44.8543 -13.7237 44.8423 -13.4446 44.7451C-13.1655 44.648 -12.9217 44.4702 -12.7438 44.2339C-12.5659 43.9976 -12.4617 43.7133 -12.4442 43.4166C-12.4268 43.12 -12.4969 42.8241 -12.6458 42.566C-12.7431 42.3829 -12.8767 42.2215 -13.0382 42.0919C-13.1997 41.9623 -13.3858 41.8671 -13.5848 41.8124C-13.7839 41.7576 -13.9918 41.7444 -14.1955 41.7735C-14.3993 41.8027 -14.5946 41.8735 -14.7694 41.9818L-14.7364 42.0239ZM-18.2511 13.9785C-17.8992 13.7754 -17.6432 13.4396 -17.5392 13.045C-17.4353 12.6505 -17.492 12.2294 -17.6969 11.8746C-17.9018 11.5197 -18.238 11.2601 -18.6317 11.1528C-19.0254 11.0455 -19.4442 11.0994 -19.7961 11.3025C-20.1479 11.5057 -20.404 11.8415 -20.5079 12.236C-20.6119 12.6306 -20.5552 13.0516 -20.3503 13.4065C-20.1454 13.7614 -19.8091 14.021 -19.4155 14.1283C-19.0218 14.2356 -18.6029 14.1817 -18.2511 13.9785ZM-8.54939 30.7824C-8.37516 30.6818 -8.22263 30.5476 -8.10049 30.3874C-7.97835 30.2272 -7.88899 30.0442 -7.83753 29.8489C-7.78607 29.6535 -7.77351 29.4496 -7.80057 29.2487C-7.82762 29.0479 -7.89374 28.8541 -7.99519 28.6784C-8.09663 28.5027 -8.23142 28.3485 -8.39181 28.2247C-8.55221 28.1008 -8.73508 28.0098 -8.93001 27.9566C-9.12493 27.9035 -9.3281 27.8894 -9.52789 27.9151C-9.72767 27.9408 -9.92016 28.0058 -10.0944 28.1064C-10.4462 28.3095 -10.7023 28.6453 -10.8062 29.0399C-10.9102 29.4345 -10.8535 29.8555 -10.6486 30.2103C-10.4437 30.5652 -10.1074 30.8248 -9.71377 30.9321C-9.32009 31.0394 -8.90125 30.9855 -8.54939 30.7824ZM-13.4002 22.3805C-13.0484 22.1773 -12.7923 21.8415 -12.6884 21.447C-12.5844 21.0524 -12.6412 20.6313 -12.846 20.2765C-13.0509 19.9216 -13.3872 19.662 -13.7809 19.5547C-14.1745 19.4474 -14.5934 19.5013 -14.9452 19.7044C-15.2971 19.9076 -15.5532 20.2434 -15.6571 20.638C-15.761 21.0325 -15.7043 21.4536 -15.4994 21.8084C-15.2946 22.1633 -14.9583 22.4229 -14.5646 22.5302C-14.1709 22.6375 -13.7521 22.5836 -13.4002 22.3805ZM-5.02757 58.78C-5.27962 58.9341 -5.48027 59.1598 -5.60439 59.4288C-5.72851 59.6978 -5.77061 59.9981 -5.72542 60.2923C-5.68022 60.5865 -5.54974 60.8614 -5.3503 61.0826C-5.15086 61.3038 -4.8913 61.4615 -4.60413 61.5359C-4.31697 61.6104 -4.01496 61.5983 -3.73586 61.5012C-3.45676 61.404 -3.21298 61.2262 -3.03504 60.9899C-2.8571 60.7536 -2.75288 60.4693 -2.73545 60.1727C-2.71802 59.876 -2.78814 59.5801 -2.93703 59.322C-3.03781 59.1408 -3.17444 58.982 -3.33843 58.8555C-3.50242 58.7289 -3.69027 58.6374 -3.89038 58.5865C-4.09048 58.5356 -4.29856 58.5264 -4.50172 58.5595C-4.70489 58.5927 -4.89881 58.6674 -5.07147 58.7791L-5.02757 58.78ZM-9.87464 50.3846C-10.1267 50.5387 -10.3273 50.7644 -10.4514 51.0334C-10.5756 51.3024 -10.6177 51.6028 -10.5725 51.897C-10.5273 52.1911 -10.3968 52.466 -10.1974 52.6872C-9.99792 52.9084 -9.73836 53.0661 -9.4512 53.1406C-9.16404 53.215 -8.86202 53.2029 -8.58292 53.1058C-8.30382 53.0087 -8.06004 52.8309 -7.8821 52.5945C-7.70416 52.3582 -7.59994 52.074 -7.58251 51.7773C-7.56508 51.4806 -7.6352 51.1847 -7.78409 50.9267C-7.88488 50.7454 -8.0215 50.5866 -8.18549 50.4601C-8.34948 50.3336 -8.53733 50.242 -8.73743 50.1911C-8.93754 50.1402 -9.14563 50.131 -9.34879 50.1642C-9.55195 50.1973 -9.74587 50.272 -9.91853 50.3837L-9.87464 50.3846ZM-24.4272 25.1789C-24.6792 25.333 -24.8799 25.5587 -25.004 25.8277C-25.1281 26.0967 -25.1702 26.397 -25.125 26.6912C-25.0798 26.9854 -24.9494 27.2602 -24.7499 27.4814C-24.5505 27.7026 -24.2909 27.8603 -24.0037 27.9348C-23.7166 28.0093 -23.4146 27.9972 -23.1355 27.9C-22.8564 27.8029 -22.6126 27.6251 -22.4347 27.3888C-22.2567 27.1525 -22.1525 26.8682 -22.1351 26.5715C-22.1176 26.2749 -22.1877 25.979 -22.3366 25.7209C-22.4374 25.5397 -22.5741 25.3809 -22.738 25.2543C-22.902 25.1278 -23.0899 25.0363 -23.29 24.9854C-23.4901 24.9344 -23.6982 24.9253 -23.9013 24.9584C-24.1045 24.9915 -24.2984 25.0663 -24.4711 25.178L-24.4272 25.1789ZM-3.7099 39.1646C-3.53568 39.064 -3.38314 38.9298 -3.261 38.7697C-3.13886 38.6095 -3.0495 38.4265 -2.99804 38.2311C-2.94657 38.0357 -2.93402 37.8318 -2.96108 37.631C-2.98813 37.4302 -3.05425 37.2364 -3.1557 37.0606C-3.25714 36.8849 -3.39192 36.7308 -3.55232 36.6069C-3.71272 36.4831 -3.89559 36.392 -4.09052 36.3389C-4.28545 36.2858 -4.48861 36.2716 -4.68839 36.2973C-4.88818 36.323 -5.08067 36.388 -5.2549 36.4886C-5.60676 36.6918 -5.86282 37.0276 -5.96676 37.4221C-6.07069 37.8167 -6.01398 38.2377 -5.8091 38.5926C-5.60422 38.9474 -5.26795 39.2071 -4.87428 39.3143C-4.4806 39.4216 -4.06176 39.3678 -3.7099 39.1646ZM-0.188083 67.1622C-0.440128 67.3163 -0.640776 67.542 -0.764901 67.811C-0.889026 68.08 -0.931118 68.3804 -0.885922 68.6746C-0.840724 68.9687 -0.710253 69.2436 -0.51081 69.4648C-0.311367 69.686 -0.0518099 69.8437 0.235354 69.9182C0.522517 69.9926 0.824531 69.9805 1.10363 69.8834C1.38273 69.7863 1.6265 69.6084 1.80445 69.3721C1.98239 69.1358 2.08661 68.8516 2.10404 68.5549C2.12147 68.2582 2.05135 67.9623 1.90246 67.7043C1.79995 67.5262 1.6626 67.3707 1.49876 67.2472C1.33492 67.1237 1.14801 67.0347 0.949414 66.9858C0.750816 66.9368 0.544679 66.9289 0.343536 66.9624C0.142392 66.996 -0.0495481 67.0704 -0.220612 67.181L-0.188083 67.1622ZM-19.5877 33.5611C-19.8397 33.7152 -20.0404 33.9409 -20.1645 34.2099C-20.2886 34.4789 -20.3307 34.7793 -20.2855 35.0734C-20.2403 35.3676 -20.1099 35.6425 -19.9104 35.8637C-19.711 36.0849 -19.4514 36.2426 -19.1643 36.317C-18.8771 36.3915 -18.5751 36.3794 -18.296 36.2823C-18.0169 36.1852 -17.7731 36.0073 -17.5952 35.771C-17.4172 35.5347 -17.313 35.2504 -17.2956 34.9538C-17.2781 34.6571 -17.3483 34.3612 -17.4972 34.1032C-17.5997 33.9251 -17.737 33.7696 -17.9009 33.6461C-18.0647 33.5225 -18.2516 33.4336 -18.4502 33.3847C-18.6488 33.3357 -18.8549 33.3278 -19.0561 33.3613C-19.2572 33.3949 -19.4492 33.4692 -19.6202 33.5799L-19.5877 33.5611ZM42.9387 31.2003C42.7725 31.2225 42.6123 31.2764 42.4668 31.3591C42.4413 31.3699 42.4173 31.3837 42.3952 31.4004C42.0503 31.5996 41.7992 31.9288 41.6973 32.3156C41.5954 32.7025 41.651 33.1152 41.8519 33.4631C42.0176 33.7596 42.2865 33.9845 42.6065 34.0943C42.6527 34.1193 42.7002 34.1415 42.7489 34.1608C43.115 34.271 43.5081 34.2379 43.8487 34.0681C43.8807 34.0537 43.9112 34.036 43.9397 34.0155C44.2939 33.8698 44.5784 33.5933 44.7349 33.2426C44.8913 32.8919 44.9081 32.4934 44.7816 32.1286C44.6552 31.7638 44.3951 31.4602 44.0546 31.28C43.714 31.0998 43.3188 31.0565 42.9496 31.1591L42.9387 31.2003ZM33.1151 59.1371C32.8264 59.313 32.6059 59.5821 32.4894 59.9007C32.4569 59.9551 32.429 60.0122 32.4059 60.0714C32.3192 60.4235 32.3619 60.7962 32.5264 61.1211C32.5434 61.1578 32.5637 61.193 32.587 61.2261C32.7056 61.437 32.8786 61.6121 33.0876 61.7328C33.1878 61.8032 33.2981 61.8575 33.4147 61.8938C33.4703 61.9182 33.528 61.9376 33.5869 61.9518C33.7497 61.993 33.9182 62.0053 34.0847 61.988C34.2982 61.9674 34.5046 61.9012 34.6899 61.7938C34.8752 61.6864 35.0352 61.5402 35.1591 61.3651C35.2831 61.19 35.3681 60.9901 35.4085 60.7786C35.4489 60.5672 35.4437 60.3492 35.3933 60.1393C35.3705 59.9854 35.3199 59.8368 35.2441 59.7007C35.144 59.5161 35.0069 59.3541 34.8414 59.2251C34.676 59.0961 34.486 59.0028 34.2833 58.9512C34.0806 58.8996 33.8698 58.8908 33.6642 58.9254C33.4587 58.96 33.2628 59.0372 33.0891 59.1522L33.1151 59.1371Z" fill="#C89211"/>
</svg>
