<svg width="94" height="94" viewBox="0 0 94 94" fill="none" xmlns="http://www.w3.org/2000/svg">
<rect y="46.5425" width="3.87181" height="3.87181" transform="rotate(-45 0 46.5425)" fill="#F3F3F3"/>
<rect x="7.30078" y="39.2417" width="3.87181" height="3.87181" transform="rotate(-45 7.30078 39.2417)" fill="#F3F3F3"/>
<rect x="14.6016" y="31.9409" width="3.87181" height="3.87181" transform="rotate(-45 14.6016 31.9409)" fill="#F3F3F3"/>
<rect x="21.9023" y="24.6401" width="3.87181" height="3.87181" transform="rotate(-45 21.9023 24.6401)" fill="#F3F3F3"/>
<rect x="29.2031" y="17.3394" width="3.87181" height="3.87181" transform="rotate(-45 29.2031 17.3394)" fill="#F3F3F3"/>
<rect x="36.5039" y="10.0388" width="3.87181" height="3.87181" transform="rotate(-45 36.5039 10.0388)" fill="#F3F3F3"/>
<rect x="43.8047" y="2.73804" width="3.87181" height="3.87181" transform="rotate(-45 43.8047 2.73804)" fill="#F3F3F3"/>
<rect x="7.30078" y="53.8433" width="3.87181" height="3.87181" transform="rotate(-45 7.30078 53.8433)" fill="#F3F3F3"/>
<rect x="14.6016" y="46.5425" width="3.87181" height="3.87181" transform="rotate(-45 14.6016 46.5425)" fill="#F3F3F3"/>
<rect x="21.9023" y="39.2417" width="3.87181" height="3.87181" transform="rotate(-45 21.9023 39.2417)" fill="#F3F3F3"/>
<rect x="29.2031" y="31.9409" width="3.87181" height="3.87181" transform="rotate(-45 29.2031 31.9409)" fill="#F3F3F3"/>
<rect x="36.5039" y="24.6401" width="3.87181" height="3.87181" transform="rotate(-45 36.5039 24.6401)" fill="#F3F3F3"/>
<rect x="43.8047" y="17.3394" width="3.87181" height="3.87181" transform="rotate(-45 43.8047 17.3394)" fill="#F3F3F3"/>
<rect x="51.1055" y="10.0388" width="3.87181" height="3.87181" transform="rotate(-45 51.1055 10.0388)" fill="#F3F3F3"/>
<rect x="14.6016" y="61.144" width="3.87181" height="3.87181" transform="rotate(-45 14.6016 61.144)" fill="#F3F3F3"/>
<rect x="21.9023" y="53.8433" width="3.87181" height="3.87181" transform="rotate(-45 21.9023 53.8433)" fill="#F3F3F3"/>
<rect x="29.2031" y="46.5425" width="3.87181" height="3.87181" transform="rotate(-45 29.2031 46.5425)" fill="#F3F3F3"/>
<rect x="36.5039" y="39.2417" width="3.87181" height="3.87181" transform="rotate(-45 36.5039 39.2417)" fill="#F3F3F3"/>
<rect x="43.8047" y="31.9409" width="3.87181" height="3.87181" transform="rotate(-45 43.8047 31.9409)" fill="#F3F3F3"/>
<rect x="51.1055" y="24.6401" width="3.87181" height="3.87181" transform="rotate(-45 51.1055 24.6401)" fill="#F3F3F3"/>
<rect x="58.4062" y="17.3394" width="3.87181" height="3.87181" transform="rotate(-45 58.4062 17.3394)" fill="#F3F3F3"/>
<rect x="21.9023" y="68.4448" width="3.87181" height="3.87181" transform="rotate(-45 21.9023 68.4448)" fill="#F3F3F3"/>
<rect x="29.2031" y="61.144" width="3.87181" height="3.87181" transform="rotate(-45 29.2031 61.144)" fill="#F3F3F3"/>
<rect x="36.5039" y="53.8433" width="3.87181" height="3.87181" transform="rotate(-45 36.5039 53.8433)" fill="#F3F3F3"/>
<rect x="43.8047" y="46.5425" width="3.87181" height="3.87181" transform="rotate(-45 43.8047 46.5425)" fill="#F3F3F3"/>
<rect x="51.1055" y="39.2417" width="3.87181" height="3.87181" transform="rotate(-45 51.1055 39.2417)" fill="#F3F3F3"/>
<rect x="58.4062" y="31.9409" width="3.87181" height="3.87181" transform="rotate(-45 58.4062 31.9409)" fill="#F3F3F3"/>
<rect x="65.707" y="24.6401" width="3.87181" height="3.87181" transform="rotate(-45 65.707 24.6401)" fill="#F3F3F3"/>
<rect x="29.2031" y="75.7456" width="3.87181" height="3.87181" transform="rotate(-45 29.2031 75.7456)" fill="#F3F3F3"/>
<rect x="36.5039" y="68.4448" width="3.87181" height="3.87181" transform="rotate(-45 36.5039 68.4448)" fill="#F3F3F3"/>
<rect x="43.8047" y="61.144" width="3.87181" height="3.87181" transform="rotate(-45 43.8047 61.144)" fill="#F3F3F3"/>
<rect x="51.1055" y="53.8433" width="3.87181" height="3.87181" transform="rotate(-45 51.1055 53.8433)" fill="#F3F3F3"/>
<rect x="58.4062" y="46.5425" width="3.87181" height="3.87181" transform="rotate(-45 58.4062 46.5425)" fill="#F3F3F3"/>
<rect x="65.707" y="39.2417" width="3.87181" height="3.87181" transform="rotate(-45 65.707 39.2417)" fill="#F3F3F3"/>
<rect x="73.0078" y="31.9409" width="3.87181" height="3.87181" transform="rotate(-45 73.0078 31.9409)" fill="#F3F3F3"/>
<rect x="36.5039" y="83.0461" width="3.87181" height="3.87181" transform="rotate(-45 36.5039 83.0461)" fill="#F3F3F3"/>
<rect x="43.8047" y="75.7456" width="3.87181" height="3.87181" transform="rotate(-45 43.8047 75.7456)" fill="#F3F3F3"/>
<rect x="51.1055" y="68.4448" width="3.87181" height="3.87181" transform="rotate(-45 51.1055 68.4448)" fill="#F3F3F3"/>
<rect x="58.4062" y="61.144" width="3.87181" height="3.87181" transform="rotate(-45 58.4062 61.144)" fill="#F3F3F3"/>
<rect x="65.707" y="53.8433" width="3.87181" height="3.87181" transform="rotate(-45 65.707 53.8433)" fill="#F3F3F3"/>
<rect x="73.0078" y="46.5425" width="3.87181" height="3.87181" transform="rotate(-45 73.0078 46.5425)" fill="#F3F3F3"/>
<rect x="80.3086" y="39.2417" width="3.87181" height="3.87181" transform="rotate(-45 80.3086 39.2417)" fill="#F3F3F3"/>
<rect x="43.8047" y="90.3469" width="3.87181" height="3.87181" transform="rotate(-45 43.8047 90.3469)" fill="#F3F3F3"/>
<rect x="51.1055" y="83.0461" width="3.87181" height="3.87181" transform="rotate(-45 51.1055 83.0461)" fill="#F3F3F3"/>
<rect x="58.4062" y="75.7456" width="3.87181" height="3.87181" transform="rotate(-45 58.4062 75.7456)" fill="#F3F3F3"/>
<rect x="65.707" y="68.4448" width="3.87181" height="3.87181" transform="rotate(-45 65.707 68.4448)" fill="#F3F3F3"/>
<rect x="73.0078" y="61.144" width="3.87181" height="3.87181" transform="rotate(-45 73.0078 61.144)" fill="#F3F3F3"/>
<rect x="80.3086" y="53.8433" width="3.87181" height="3.87181" transform="rotate(-45 80.3086 53.8433)" fill="#F3F3F3"/>
<rect x="87.6094" y="46.5425" width="3.87181" height="3.87181" transform="rotate(-45 87.6094 46.5425)" fill="#F3F3F3"/>
</svg>
