<svg width="26" height="26" viewBox="0 0 26 26" fill="none" xmlns="http://www.w3.org/2000/svg">
<path d="M3.21875 24.5938C2.62201 24.5938 2.04972 24.3567 1.62776 23.9347C1.2058 23.5128 0.96875 22.9405 0.96875 22.3438V13.3438H2.65625" stroke="#C89211" stroke-miterlimit="10" stroke-linecap="square"/>
<path d="M5.46875 0.96875V22.3438C5.46875 22.9405 5.2317 23.5128 4.80974 23.9347C4.38778 24.3567 3.81549 24.5938 3.21875 24.5938H22.3438C22.9405 24.5938 23.5128 24.3567 23.9347 23.9347C24.3567 23.5128 24.5938 22.9405 24.5938 22.3438V0.96875H5.46875Z" stroke="#C89211" stroke-miterlimit="10" stroke-linecap="square"/>
<path d="M9.40625 14.4688H20.6562" stroke="#C89211" stroke-miterlimit="10" stroke-linecap="square"/>
<path d="M9.40625 18.9688H20.6562" stroke="#C89211" stroke-miterlimit="10" stroke-linecap="square"/>
<path d="M20.6562 5.46875H9.40625V9.96875H20.6562V5.46875Z" stroke="#C89211" stroke-miterlimit="10" stroke-linecap="square"/>
</svg>
