<svg width="14" height="71" viewBox="0 0 14 71" fill="none" xmlns="http://www.w3.org/2000/svg">
<path d="M0.407999 62.7113L8.364 62.7113L8.364 62.1113L9 62.1113L9 62.7113C9.92 62.7113 10.628 62.9753 11.124 63.5033C11.62 64.0313 11.868 64.7753 11.868 65.7353L11.868 67.1753C11.868 68.0793 11.648 68.7913 11.208 69.3113C10.712 69.9033 9.984 70.1993 9.024 70.1993L6.252 70.1993L5.964 69.8513L5.964 69.5033L9.036 69.5033C9.868 69.5033 10.444 69.2833 10.764 68.8433C11.084 68.4033 11.244 67.6073 11.244 66.4553C11.244 65.4073 11.104 64.6633 10.824 64.2233C10.48 63.6793 9.884 63.4073 9.036 63.4073L0.407999 63.4073L0.407999 62.7113ZM6.708 59.3485C5.372 58.6685 4.444 57.9005 3.924 57.0445C3.532 56.3885 3.336 55.6005 3.336 54.6805C3.336 53.8485 3.592 53.1605 4.104 52.6165C4.648 52.0565 5.36 51.7765 6.24 51.7765L8.004 51.7765C8.276 51.7765 8.512 51.8805 8.712 52.0885C8.904 52.2725 9 52.4925 9 52.7485L9 62.1925L8.364 62.1925L8.364 60.0325L3.48 60.0325L3.48 59.3485L6.708 59.3485ZM6.012 52.4725C5.388 52.4725 4.896 52.6605 4.536 53.0365C4.128 53.4605 3.924 54.0285 3.924 54.7405C3.924 55.4925 4.108 56.1525 4.476 56.7205C5.18 57.8165 6.476 58.6845 8.364 59.3245L8.364 53.0365C8.364 52.6605 8.176 52.4725 7.8 52.4725L6.012 52.4725ZM0.407999 49.5932L9.012 49.5932L9.3 49.9532L9.3 50.2892L0.407999 50.2892L0.407999 49.5932ZM9 45.4017C9 46.3377 8.712 47.0377 8.136 47.5017C7.64 47.9017 6.976 48.1017 6.144 48.1017C5.248 48.1017 4.556 47.8657 4.068 47.3937C3.58 46.9137 3.336 46.2417 3.336 45.3777C3.336 44.7297 3.504 44.2097 3.84 43.8177C4.216 43.3777 4.764 43.1577 5.484 43.1577L8.364 43.1577L8.364 42.7617L9 42.7617L9 43.1577C10.008 43.1577 10.76 43.4817 11.256 44.1297C11.656 44.6577 11.856 45.3617 11.856 46.2417C11.856 46.4177 11.852 46.5777 11.844 46.7217L11.412 47.0697L11.208 47.0697C11.224 46.8537 11.232 46.6457 11.232 46.4457C11.232 45.5177 11.06 44.8577 10.716 44.4657C10.364 44.0657 9.792 43.8577 9 43.8417L9 45.4017ZM5.496 43.8417C5.016 43.8417 4.644 43.9737 4.38 44.2377C4.108 44.5097 3.972 44.8897 3.972 45.3777C3.972 46.0257 4.16 46.5257 4.536 46.8777C4.912 47.2297 5.448 47.4057 6.144 47.4057C6.832 47.4057 7.376 47.2457 7.776 46.9257C8.168 46.6057 8.364 46.1537 8.364 45.5697L8.364 43.8417L5.496 43.8417ZM0.839999 41.5126C0.839999 41.3846 0.883998 41.2766 0.971998 41.1886C1.06 41.1006 1.168 41.0566 1.296 41.0566C1.416 41.0566 1.524 41.1006 1.62 41.1886C1.708 41.2766 1.752 41.3846 1.752 41.5126C1.752 41.6326 1.708 41.7366 1.62 41.8246C1.524 41.9126 1.416 41.9566 1.296 41.9566C1.168 41.9566 1.06 41.9126 0.971998 41.8246C0.883999 41.7366 0.839999 41.6326 0.839999 41.5126ZM0.839999 40.3246C0.839999 40.2046 0.883998 40.1006 0.971998 40.0126C1.06 39.9166 1.168 39.8686 1.296 39.8686C1.416 39.8686 1.524 39.9166 1.62 40.0126C1.708 40.1006 1.752 40.2046 1.752 40.3246C1.752 40.4526 1.708 40.5606 1.62 40.6486C1.524 40.7366 1.416 40.7806 1.296 40.7806C1.168 40.7806 1.06 40.7366 0.971998 40.6486C0.883998 40.5606 0.839999 40.4526 0.839999 40.3246ZM3.48 39.9886L8.004 39.9886C8.276 39.9886 8.512 40.0926 8.712 40.3006C8.904 40.4846 9 40.7046 9 40.9606L9 42.8566L8.364 42.8566L8.364 41.2486C8.364 41.0726 8.32 40.9366 8.232 40.8406C8.128 40.7366 7.984 40.6846 7.8 40.6846L3.48 40.6846L3.48 39.9886ZM6.912 35.308L9.036 35.308C9.868 35.308 10.444 35.088 10.764 34.648C11.084 34.208 11.244 33.412 11.244 32.26C11.244 31.204 11.1 30.452 10.812 30.004C10.468 29.476 9.864 29.212 9 29.212L9 30.232L8.664 30.508L8.364 30.508L8.364 28.3L9 28.3L9 28.516C9.92 28.516 10.628 28.78 11.124 29.308C11.62 29.836 11.868 30.58 11.868 31.54L11.868 32.98C11.868 33.884 11.648 34.596 11.208 35.116C10.712 35.708 9.984 36.004 9.024 36.004L7.188 36.004L6.912 35.656L6.912 35.308ZM12.564 32.884C12.564 32.756 12.608 32.648 12.696 32.56C12.792 32.472 12.9 32.428 13.02 32.428C13.148 32.428 13.256 32.472 13.344 32.56C13.432 32.648 13.476 32.756 13.476 32.884C13.476 33.004 13.432 33.112 13.344 33.208C13.256 33.296 13.148 33.34 13.02 33.34C12.9 33.34 12.792 33.296 12.696 33.208C12.608 33.112 12.564 33.004 12.564 32.884ZM12.564 31.696C12.564 31.576 12.608 31.472 12.696 31.384C12.792 31.296 12.9 31.252 13.02 31.252C13.148 31.252 13.256 31.296 13.344 31.384C13.432 31.472 13.476 31.576 13.476 31.696C13.476 31.824 13.432 31.932 13.344 32.02C13.256 32.108 13.148 32.152 13.02 32.152C12.9 32.152 12.792 32.108 12.696 32.02C12.608 31.932 12.564 31.824 12.564 31.696ZM0.407998 25.8206L8.004 25.8206C8.116 25.8206 8.236 25.8446 8.364 25.8926L8.364 25.2326L9 25.2326L9 25.7486L8.628 26.0126L8.628 26.0486C8.876 26.2566 9 26.5046 9 26.7926L9 28.6886L8.364 28.6886L8.364 27.0686C8.364 26.8766 8.308 26.7326 8.196 26.6366C8.1 26.5486 7.968 26.5046 7.8 26.5046L0.407998 26.5046L0.407998 25.8206ZM8.364 22.5176C7.772 23.1496 7.028 23.4656 6.132 23.4656C5.228 23.4656 4.52 23.1856 4.008 22.6256C3.56 22.1376 3.336 21.5056 3.336 20.7296C3.336 20.3216 3.404 19.8896 3.54 19.4336L4.128 19.4336C4 19.8816 3.936 20.3016 3.936 20.6936C3.936 21.3976 4.16 21.9336 4.608 22.3016C4.992 22.6136 5.496 22.7696 6.12 22.7696C6.72 22.7696 7.248 22.5856 7.704 22.2176C8.144 21.8656 8.364 21.4416 8.364 20.9456L8.364 18.4616L8.652 18.4616L9 18.7496L9 25.3136L8.364 25.3136L8.364 22.5176ZM3.336 11.142C3.336 11.022 3.38 10.918 3.468 10.83C3.556 10.742 3.664 10.698 3.792 10.698C3.912 10.698 4.02 10.742 4.116 10.83C4.204 10.918 4.248 11.022 4.248 11.142C4.248 11.27 4.204 11.378 4.116 11.466C4.02 11.554 3.912 11.598 3.792 11.598C3.664 11.598 3.556 11.554 3.468 11.466C3.38 11.378 3.336 11.27 3.336 11.142ZM3.48 7.266L8.364 7.266L8.364 6.666L9 6.666L9 7.266C9.92 7.266 10.628 7.53 11.124 8.058C11.62 8.586 11.868 9.33 11.868 10.29L11.868 11.73C11.868 12.634 11.648 13.346 11.208 13.866C10.712 14.458 9.984 14.754 9.024 14.754L6.252 14.754L5.964 14.406L5.964 14.058L9.036 14.058C9.868 14.058 10.444 13.838 10.764 13.398C11.084 12.958 11.244 12.162 11.244 11.01C11.244 9.962 11.104 9.218 10.824 8.778C10.48 8.234 9.884 7.962 9.036 7.962L3.48 7.962L3.48 7.266ZM0.215996 1.81519L0.827996 1.81519L2.664 5.01919C2.88 3.74719 3.52 2.67919 4.584 1.81519C5.512 1.05519 6.528 0.675187 7.632 0.675187C8.544 0.675187 9 1.01119 9 1.68319L9 6.91519L8.364 6.91519L8.364 1.95919C8.364 1.55919 8.1 1.35919 7.572 1.35919C6.444 1.35919 5.432 1.82319 4.536 2.75119C3.784 3.53519 3.352 4.41519 3.24 5.39119C3.232 5.43119 3.208 5.45119 3.168 5.45119L2.304 5.45119L0.215996 1.81519Z" fill="#D7D7D7"/>
</svg>
