<svg width="57" height="114" viewBox="0 0 57 114" fill="none" xmlns="http://www.w3.org/2000/svg">
<g clip-path="url(#clip0_1_568)">
<path d="M0.905124 57.0811L0 58.124L1.04297 59.0291L1.94809 57.9862L0.905124 57.0811Z" fill="#A2A19F"/>
<path d="M7.20786 62.5511L6.30273 63.5941L7.3457 64.4992L8.25083 63.4563L7.20786 62.5511Z" fill="#A2A19F"/>
<path d="M13.5165 68.0256L12.6113 69.0686L13.6543 69.9737L14.5594 68.9308L13.5165 68.0256Z" fill="#A2A19F"/>
<path d="M19.8192 73.4957L18.9141 74.5387L19.957 75.4438L20.8622 74.4009L19.8192 73.4957Z" fill="#A2A19F"/>
<path d="M26.1229 78.9658L25.2178 80.0088L26.2607 80.9139L27.1659 79.8709L26.1229 78.9658Z" fill="#A2A19F"/>
<path d="M32.4256 84.4359L31.5205 85.4789L32.5635 86.384L33.4686 85.341L32.4256 84.4359Z" fill="#A2A19F"/>
<path d="M38.7342 89.9104L37.8291 90.9534L38.8721 91.8585L39.7772 90.8155L38.7342 89.9104Z" fill="#A2A19F"/>
<path d="M45.037 95.3805L44.1318 96.4235L45.1748 97.3286L46.0799 96.2856L45.037 95.3805Z" fill="#A2A19F"/>
<path d="M51.3407 100.851L50.4355 101.894L51.4785 102.799L52.3836 101.756L51.3407 100.851Z" fill="#A2A19F"/>
<path d="M57.6483 106.325L56.7432 107.368L57.7861 108.273L58.6913 107.23L57.6483 106.325Z" fill="#A2A19F"/>
<path d="M5.85923 51.3724L4.9541 52.4154L5.99707 53.3205L6.90219 52.2776L5.85923 51.3724Z" fill="#A2A19F"/>
<path d="M12.162 56.8425L11.2568 57.8855L12.2998 58.7906L13.2049 57.7477L12.162 56.8425Z" fill="#A2A19F"/>
<path d="M18.4706 62.317L17.5654 63.36L18.6084 64.2651L19.5135 63.2221L18.4706 62.317Z" fill="#A2A19F"/>
<path d="M24.7733 67.7871L23.8682 68.8301L24.9111 69.7352L25.8163 68.6922L24.7733 67.7871Z" fill="#A2A19F"/>
<path d="M31.077 73.2572L30.1719 74.3002L31.2148 75.2053L32.12 74.1623L31.077 73.2572Z" fill="#A2A19F"/>
<path d="M37.3797 78.7273L36.4746 79.7703L37.5176 80.6754L38.4227 79.6324L37.3797 78.7273Z" fill="#A2A19F"/>
<path d="M43.6883 84.2018L42.7832 85.2448L43.8262 86.1499L44.7313 85.1069L43.6883 84.2018Z" fill="#A2A19F"/>
<path d="M49.9911 89.6719L49.0859 90.7148L50.1289 91.62L51.034 90.577L49.9911 89.6719Z" fill="#A2A19F"/>
<path d="M56.2948 95.142L55.3896 96.1849L56.4326 97.0901L57.3377 96.0471L56.2948 95.142Z" fill="#A2A19F"/>
<path d="M10.8133 45.6638L9.9082 46.7068L10.9512 47.6119L11.8563 46.5689L10.8133 45.6638Z" fill="#A2A19F"/>
<path d="M17.1161 51.1339L16.2109 52.1769L17.2539 53.082L18.159 52.039L17.1161 51.1339Z" fill="#A2A19F"/>
<path d="M23.4247 56.6084L22.5195 57.6514L23.5625 58.5565L24.4676 57.5135L23.4247 56.6084Z" fill="#A2A19F"/>
<path d="M29.7284 62.0785L28.8232 63.1215L29.8662 64.0266L30.7713 62.9836L29.7284 62.0785Z" fill="#A2A19F"/>
<path d="M36.0311 67.5486L35.126 68.5916L36.1689 69.4967L37.0741 68.4537L36.0311 67.5486Z" fill="#A2A19F"/>
<path d="M42.3338 73.0187L41.4287 74.0616L42.4717 74.9668L43.3768 73.9238L42.3338 73.0187Z" fill="#A2A19F"/>
<path d="M48.6424 78.4932L47.7373 79.5361L48.7803 80.4413L49.6854 79.3983L48.6424 78.4932Z" fill="#A2A19F"/>
<path d="M54.9452 83.9633L54.04 85.0062L55.083 85.9114L55.9881 84.8684L54.9452 83.9633Z" fill="#A2A19F"/>
<path d="M15.7674 39.9553L14.8623 40.9982L15.9053 41.9034L16.8104 40.8604L15.7674 39.9553Z" fill="#A2A19F"/>
<path d="M22.0711 45.4254L21.166 46.4683L22.209 47.3734L23.1141 46.3305L22.0711 45.4254Z" fill="#A2A19F"/>
<path d="M28.3788 50.8998L27.4736 51.9428L28.5166 52.8479L29.4217 51.805L28.3788 50.8998Z" fill="#A2A19F"/>
<path d="M34.6825 56.3699L33.7773 57.4128L34.8203 58.318L35.7254 57.275L34.6825 56.3699Z" fill="#A2A19F"/>
<path d="M40.9852 61.84L40.0801 62.883L41.123 63.7881L42.0282 62.7452L40.9852 61.84Z" fill="#A2A19F"/>
<path d="M47.2879 67.3101L46.3828 68.3531L47.4258 69.2582L48.3309 68.2152L47.2879 67.3101Z" fill="#A2A19F"/>
<path d="M53.5965 72.7846L52.6914 73.8276L53.7344 74.7327L54.6395 73.6897L53.5965 72.7846Z" fill="#A2A19F"/>
<path d="M20.7215 34.2466L19.8164 35.2896L20.8594 36.1947L21.7645 35.1518L20.7215 34.2466Z" fill="#A2A19F"/>
<path d="M27.0252 39.7167L26.1201 40.7597L27.1631 41.6648L28.0682 40.6219L27.0252 39.7167Z" fill="#A2A19F"/>
<path d="M33.3329 45.1912L32.4277 46.2342L33.4707 47.1393L34.3758 46.0963L33.3329 45.1912Z" fill="#A2A19F"/>
<path d="M39.6366 50.6613L38.7314 51.7043L39.7744 52.6094L40.6795 51.5664L39.6366 50.6613Z" fill="#A2A19F"/>
<path d="M45.9393 56.1314L45.0342 57.1744L46.0771 58.0795L46.9823 57.0365L45.9393 56.1314Z" fill="#A2A19F"/>
<path d="M52.242 61.6015L51.3369 62.6445L52.3799 63.5496L53.285 62.5066L52.242 61.6015Z" fill="#A2A19F"/>
<path d="M25.6756 28.538L24.7705 29.581L25.8135 30.4861L26.7186 29.4431L25.6756 28.538Z" fill="#A2A19F"/>
<path d="M31.9793 34.0081L31.0742 35.0511L32.1172 35.9562L33.0223 34.9132L31.9793 34.0081Z" fill="#A2A19F"/>
<path d="M38.287 39.4826L37.3818 40.5256L38.4248 41.4307L39.3299 40.3877L38.287 39.4826Z" fill="#A2A19F"/>
<path d="M44.5907 44.9527L43.6855 45.9957L44.7285 46.9008L45.6336 45.8578L44.5907 44.9527Z" fill="#A2A19F"/>
<path d="M50.8934 50.4228L49.9883 51.4658L51.0312 52.3709L51.9364 51.3279L50.8934 50.4228Z" fill="#A2A19F"/>
<path d="M57.1961 55.8929L56.291 56.9359L57.334 57.841L58.2391 56.798L57.1961 55.8929Z" fill="#A2A19F"/>
<path d="M30.6297 22.8294L29.7246 23.8724L30.7676 24.7775L31.6727 23.7345L30.6297 22.8294Z" fill="#A2A19F"/>
<path d="M36.9334 28.2995L36.0283 29.3425L37.0713 30.2476L37.9764 29.2046L36.9334 28.2995Z" fill="#A2A19F"/>
<path d="M43.2411 33.774L42.3359 34.817L43.3789 35.7221L44.284 34.6791L43.2411 33.774Z" fill="#A2A19F"/>
<path d="M49.5448 39.2441L48.6396 40.287L49.6826 41.1922L50.5877 40.1492L49.5448 39.2441Z" fill="#A2A19F"/>
<path d="M55.8475 44.7142L54.9424 45.7571L55.9853 46.6623L56.8905 45.6193L55.8475 44.7142Z" fill="#A2A19F"/>
<path d="M35.5799 17.1259L34.6748 18.1688L35.7178 19.0739L36.6229 18.031L35.5799 17.1259Z" fill="#A2A19F"/>
<path d="M41.8827 22.596L40.9775 23.6389L42.0205 24.544L42.9256 23.5011L41.8827 22.596Z" fill="#A2A19F"/>
<path d="M48.1913 28.0704L47.2861 29.1134L48.3291 30.0185L49.2342 28.9756L48.1913 28.0704Z" fill="#A2A19F"/>
<path d="M54.494 33.5405L53.5889 34.5835L54.6318 35.4886L55.537 34.4457L54.494 33.5405Z" fill="#A2A19F"/>
<path d="M40.534 11.4172L39.6289 12.4602L40.6719 13.3653L41.577 12.3224L40.534 11.4172Z" fill="#A2A19F"/>
<path d="M46.8368 16.8873L45.9316 17.9303L46.9746 18.8354L47.8797 17.7925L46.8368 16.8873Z" fill="#A2A19F"/>
<path d="M53.1454 22.3618L52.2402 23.4048L53.2832 24.3099L54.1883 23.2669L53.1454 22.3618Z" fill="#A2A19F"/>
<path d="M45.4881 5.70862L44.583 6.75159L45.626 7.65671L46.5311 6.61374L45.4881 5.70862Z" fill="#A2A19F"/>
<path d="M51.7909 11.1787L50.8857 12.2217L51.9287 13.1268L52.8338 12.0838L51.7909 11.1787Z" fill="#A2A19F"/>
<path d="M50.4422 6.98391e-05L49.5371 1.04303L50.5801 1.94815L51.4852 0.905194L50.4422 6.98391e-05Z" fill="#A2A19F"/>
<path d="M56.745 5.47015L55.8398 6.51312L56.8828 7.41825L57.7879 6.37528L56.745 5.47015Z" fill="#A2A19F"/>
</g>
<defs>
<clipPath id="clip0_1_568">
<rect width="76.9597" height="84.8585" fill="white" transform="translate(0 58.124) rotate(-49.0474)"/>
</clipPath>
</defs>
</svg>
