<svg width="54" height="99" viewBox="0 0 54 99" fill="none" xmlns="http://www.w3.org/2000/svg">
<rect x="1.5293" y="2.90808" width="4.11266" height="4.11266" transform="rotate(-45 1.5293 2.90808)" fill="#C4C3C2"/>
<rect x="1.5293" y="18.4179" width="4.11266" height="4.11266" transform="rotate(-45 1.5293 18.4179)" fill="#C4C3C2"/>
<rect x="9.28418" y="10.663" width="4.11266" height="4.11266" transform="rotate(-45 9.28418 10.663)" fill="#C4C3C2"/>
<rect x="1.5293" y="33.9277" width="4.11266" height="4.11266" transform="rotate(-45 1.5293 33.9277)" fill="#C4C3C2"/>
<rect x="9.28418" y="26.1729" width="4.11266" height="4.11266" transform="rotate(-45 9.28418 26.1729)" fill="#C4C3C2"/>
<rect x="17.0391" y="18.4179" width="4.11266" height="4.11266" transform="rotate(-45 17.0391 18.4179)" fill="#C4C3C2"/>
<rect x="1.5293" y="49.4375" width="4.11266" height="4.11266" transform="rotate(-45 1.5293 49.4375)" fill="#C4C3C2"/>
<rect x="9.28418" y="41.6826" width="4.11266" height="4.11266" transform="rotate(-45 9.28418 41.6826)" fill="#C4C3C2"/>
<rect x="17.0391" y="33.9277" width="4.11266" height="4.11266" transform="rotate(-45 17.0391 33.9277)" fill="#C4C3C2"/>
<rect x="24.7939" y="26.1729" width="4.11266" height="4.11266" transform="rotate(-45 24.7939 26.1729)" fill="#C4C3C2"/>
<rect x="1.5293" y="64.9473" width="4.11266" height="4.11266" transform="rotate(-45 1.5293 64.9473)" fill="#C4C3C2"/>
<rect x="9.28418" y="57.1924" width="4.11266" height="4.11266" transform="rotate(-45 9.28418 57.1924)" fill="#C4C3C2"/>
<rect x="17.0391" y="49.4375" width="4.11266" height="4.11266" transform="rotate(-45 17.0391 49.4375)" fill="#C4C3C2"/>
<rect x="24.7939" y="41.6826" width="4.11266" height="4.11266" transform="rotate(-45 24.7939 41.6826)" fill="#C4C3C2"/>
<rect x="32.5488" y="33.9277" width="4.11266" height="4.11266" transform="rotate(-45 32.5488 33.9277)" fill="#C4C3C2"/>
<rect x="1.5293" y="80.4572" width="4.11266" height="4.11266" transform="rotate(-45 1.5293 80.4572)" fill="#C4C3C2"/>
<rect x="9.28418" y="72.7021" width="4.11266" height="4.11266" transform="rotate(-45 9.28418 72.7021)" fill="#C4C3C2"/>
<rect x="17.0391" y="64.9473" width="4.11266" height="4.11266" transform="rotate(-45 17.0391 64.9473)" fill="#C4C3C2"/>
<rect x="24.7939" y="57.1924" width="4.11266" height="4.11266" transform="rotate(-45 24.7939 57.1924)" fill="#C4C3C2"/>
<rect x="32.5488" y="49.4375" width="4.11266" height="4.11266" transform="rotate(-45 32.5488 49.4375)" fill="#C4C3C2"/>
<rect x="40.3037" y="41.6826" width="4.11266" height="4.11266" transform="rotate(-45 40.3037 41.6826)" fill="#C4C3C2"/>
<rect x="1.5293" y="95.9669" width="4.11266" height="4.11266" transform="rotate(-45 1.5293 95.9669)" fill="#C4C3C2"/>
<rect x="9.28418" y="88.212" width="4.11266" height="4.11266" transform="rotate(-45 9.28418 88.212)" fill="#C4C3C2"/>
<rect x="17.0391" y="80.4572" width="4.11266" height="4.11266" transform="rotate(-45 17.0391 80.4572)" fill="#C4C3C2"/>
<rect x="24.7939" y="72.7021" width="4.11266" height="4.11266" transform="rotate(-45 24.7939 72.7021)" fill="#C4C3C2"/>
<rect x="32.5488" y="64.9473" width="4.11266" height="4.11266" transform="rotate(-45 32.5488 64.9473)" fill="#C4C3C2"/>
<rect x="40.3037" y="57.1924" width="4.11266" height="4.11266" transform="rotate(-45 40.3037 57.1924)" fill="#C4C3C2"/>
<rect x="48.0586" y="49.4375" width="4.11266" height="4.11266" transform="rotate(-45 48.0586 49.4375)" fill="#C4C3C2"/>
</svg>
