<svg width="60" height="60" viewBox="0 0 60 60" fill="none" xmlns="http://www.w3.org/2000/svg">
<circle cx="30" cy="30" r="30" fill="#C89211" fill-opacity="0.5"/>
<path d="M29.7071 23.2929C30.0976 23.6834 30.0976 24.3166 29.7071 24.7071L25.4142 29H37C37.5523 29 38 29.4477 38 30C38 30.5523 37.5523 31 37 31H25.4142L29.7071 35.2929C30.0976 35.6834 30.0976 36.3166 29.7071 36.7071C29.3166 37.0976 28.6834 37.0976 28.2929 36.7071L22.2929 30.7071C22.1054 30.5196 22 30.2652 22 30C22 29.7348 22.1054 29.4804 22.2929 29.2929L28.2929 23.2929C28.6834 22.9024 29.3166 22.9024 29.7071 23.2929Z" fill="white"/>
</svg>
