<svg width="60" height="60" viewBox="0 0 60 60" fill="none" xmlns="http://www.w3.org/2000/svg">
<circle r="30" transform="matrix(-1 0 0 1 30 30)" fill="#C89211" fill-opacity="0.5"/>
<path d="M30.2929 23.2929C29.9024 23.6834 29.9024 24.3166 30.2929 24.7071L34.5858 29H23C22.4477 29 22 29.4477 22 30C22 30.5523 22.4477 31 23 31H34.5858L30.2929 35.2929C29.9024 35.6834 29.9024 36.3166 30.2929 36.7071C30.6834 37.0976 31.3166 37.0976 31.7071 36.7071L37.7071 30.7071C37.8946 30.5196 38 30.2652 38 30C38 29.7348 37.8946 29.4804 37.7071 29.2929L31.7071 23.2929C31.3166 22.9024 30.6834 22.9024 30.2929 23.2929Z" fill="white"/>
</svg>
