<svg width="12" height="12" viewBox="0 0 12 12" fill="none" xmlns="http://www.w3.org/2000/svg">
<path d="M6.834 1.12804C6.76212 1.06352 6.67309 1.0212 6.57767 1.00619C6.48226 0.991187 6.38453 1.00414 6.29632 1.04349C6.20811 1.08283 6.13318 1.14689 6.08059 1.22791C6.02801 1.30893 6.00002 1.40345 6 1.50004V4.01404C3.866 4.13004 0 5.09004 0 10.5C0.000179659 10.6077 0.035132 10.7125 0.099655 10.7987C0.164178 10.885 0.254822 10.9481 0.358097 10.9786C0.461372 11.0092 0.571756 11.0056 0.672822 10.9684C0.773887 10.9312 0.86023 10.8623 0.919 10.772C1.47024 9.92436 2.22268 9.22625 3.10923 8.73996C3.99578 8.25368 4.98888 7.99433 6 7.98504V10.5C6.00002 10.5966 6.02801 10.6912 6.08059 10.7722C6.13318 10.8532 6.20811 10.9172 6.29632 10.9566C6.38453 10.9959 6.48226 11.0089 6.57767 10.9939C6.67309 10.9789 6.76212 10.9366 6.834 10.872L11.834 6.37204C11.8862 6.32515 11.928 6.26779 11.9566 6.2037C11.9851 6.13961 11.9999 6.07022 11.9999 6.00004C11.9999 5.92986 11.9851 5.86047 11.9566 5.79638C11.928 5.73229 11.8862 5.67493 11.834 5.62804L6.834 1.12804Z" fill="#8D8D8D"/>
</svg>
