<svg width="12" height="12" viewBox="0 0 12 12" fill="none" xmlns="http://www.w3.org/2000/svg">
<path d="M5.166 1.12804C5.23788 1.06352 5.32691 1.0212 5.42233 1.00619C5.51774 0.991187 5.61547 1.00414 5.70368 1.04349C5.79189 1.08283 5.86682 1.14689 5.91941 1.22791C5.97199 1.30893 5.99998 1.40345 6 1.50004V4.01404C8.134 4.13004 12 5.09004 12 10.5C11.9998 10.6077 11.9649 10.7125 11.9003 10.7987C11.8358 10.885 11.7452 10.9481 11.6419 10.9786C11.5386 11.0092 11.4282 11.0056 11.3272 10.9684C11.2261 10.9312 11.1398 10.8623 11.081 10.772C10.5298 9.92436 9.77732 9.22625 8.89077 8.73996C8.00422 8.25368 7.01112 7.99433 6 7.98504V10.5C5.99998 10.5966 5.97199 10.6912 5.91941 10.7722C5.86682 10.8532 5.79189 10.9172 5.70368 10.9566C5.61547 10.9959 5.51774 11.0089 5.42233 10.9939C5.32691 10.9789 5.23788 10.9366 5.166 10.872L0.166 6.37204C0.113789 6.32515 0.072032 6.26779 0.0434475 6.2037C0.014863 6.13961 8.96454e-05 6.07022 8.96454e-05 6.00004C8.96454e-05 5.92986 0.014863 5.86047 0.0434475 5.79638C0.072032 5.73229 0.113789 5.67493 0.166 5.62804L5.166 1.12804Z" fill="#8D8D8D"/>
</svg>
