<svg width="44" height="44" viewBox="0 0 44 44" fill="none" xmlns="http://www.w3.org/2000/svg">
<g clip-path="url(#clip0_1_1008)">
<path d="M18.333 42.1666H1.83301V41.0281C1.83301 39.401 2.90001 37.972 4.46017 37.51C5.92134 37.0773 7.88667 36.6666 10.083 36.6666C12.2427 36.6666 14.2208 37.0846 15.6976 37.521C17.2605 37.983 18.333 39.4111 18.333 41.0419V42.1666Z" stroke="#5D2509" stroke-width="2" stroke-miterlimit="10" stroke-linecap="square"/>
<path d="M10.0833 33C12.6146 33 14.6667 30.948 14.6667 28.4166C14.6667 25.8853 12.6146 23.8333 10.0833 23.8333C7.55203 23.8333 5.5 25.8853 5.5 28.4166C5.5 30.948 7.55203 33 10.0833 33Z" stroke="#5D2509" stroke-width="2" stroke-miterlimit="10" stroke-linecap="square"/>
<path d="M42.166 42.1666H25.666V41.0281C25.666 39.401 26.733 37.972 28.2932 37.51C29.7543 37.0773 31.7197 36.6666 33.916 36.6666C36.0757 36.6666 38.0538 37.0846 39.5306 37.521C41.0935 37.983 42.166 39.4111 42.166 41.0419V42.1666Z" stroke="#5D2509" stroke-width="2" stroke-miterlimit="10" stroke-linecap="square"/>
<path d="M33.9163 33C36.4476 33 38.4997 30.948 38.4997 28.4166C38.4997 25.8853 36.4476 23.8333 33.9163 23.8333C31.385 23.8333 29.333 25.8853 29.333 28.4166C29.333 30.948 31.385 33 33.9163 33Z" stroke="#5D2509" stroke-width="2" stroke-miterlimit="10" stroke-linecap="square"/>
<path d="M30.25 20.1666H13.75V19.0281C13.75 17.401 14.817 15.972 16.3772 15.51C17.8383 15.0773 19.8037 14.6666 22 14.6666C24.1597 14.6666 26.1378 15.0846 27.6146 15.521C29.1775 15.983 30.25 17.4111 30.25 19.0419V20.1666Z" stroke="#5D2509" stroke-width="2" stroke-miterlimit="10" stroke-linecap="square"/>
<path d="M21.9993 11C24.5307 11 26.5827 8.94795 26.5827 6.41665C26.5827 3.88534 24.5307 1.83331 21.9993 1.83331C19.468 1.83331 17.416 3.88534 17.416 6.41665C17.416 8.94795 19.468 11 21.9993 11Z" stroke="#5D2509" stroke-width="2" stroke-miterlimit="10" stroke-linecap="square"/>
</g>
<defs>
<clipPath id="clip0_1_1008">
<rect width="44" height="44" fill="white"/>
</clipPath>
</defs>
</svg>
