<svg width="16" height="16" viewBox="0 0 16 16" fill="none" xmlns="http://www.w3.org/2000/svg">
<path d="M8 1.44152C10.136 1.44152 10.389 1.44952 11.2328 1.488C11.7401 1.49421 12.2426 1.58737 12.7185 1.76343C13.0636 1.89651 13.3769 2.10038 13.6385 2.3619C13.9 2.62343 14.1039 2.93682 14.237 3.2819C14.413 3.75776 14.5062 4.26028 14.5124 4.76762C14.5505 5.61143 14.5589 5.86438 14.5589 8.00038C14.5589 10.1364 14.5509 10.3893 14.5124 11.2331C14.5062 11.7405 14.413 12.243 14.237 12.7189C14.1039 13.0639 13.9 13.3773 13.6385 13.6389C13.3769 13.9004 13.0636 14.1042 12.7185 14.2373C12.2426 14.4134 11.7401 14.5066 11.2328 14.5128C10.3893 14.5509 10.1364 14.5592 8 14.5592C5.86362 14.5592 5.61067 14.5512 4.76724 14.5128C4.2599 14.5066 3.75738 14.4134 3.28152 14.2373C2.93644 14.1042 2.62305 13.9004 2.36152 13.6389C2.1 13.3773 1.89613 13.0639 1.76305 12.7189C1.58699 12.243 1.49383 11.7405 1.48762 11.2331C1.44952 10.3893 1.44114 10.1364 1.44114 8.00038C1.44114 5.86438 1.44914 5.61143 1.48762 4.76762C1.49383 4.26028 1.58699 3.75776 1.76305 3.2819C1.89613 2.93682 2.1 2.62343 2.36152 2.3619C2.62305 2.10038 2.93644 1.89651 3.28152 1.76343C3.75738 1.58737 4.2599 1.49421 4.76724 1.488C5.61105 1.4499 5.864 1.44152 8 1.44152ZM8 0C5.82857 0 5.55505 0.00914283 4.70171 0.048C4.03773 0.0612068 3.3808 0.186926 2.75886 0.41981C2.22533 0.620825 1.74209 0.935834 1.34286 1.34286C0.935467 1.74224 0.620188 2.22575 0.419048 2.75962C0.186164 3.38156 0.060445 4.03849 0.0472381 4.70248C0.00914288 5.55505 0 5.82857 0 8C0 10.1714 0.00914283 10.445 0.048 11.2983C0.0612068 11.9623 0.186926 12.6192 0.41981 13.2411C0.620727 13.7749 0.935742 14.2584 1.34286 14.6579C1.74231 15.065 2.22582 15.38 2.75962 15.581C3.38156 15.8138 4.03849 15.9396 4.70248 15.9528C5.55581 15.9909 5.82819 16.0008 8.00076 16.0008C10.1733 16.0008 10.4457 15.9916 11.299 15.9528C11.963 15.9396 12.62 15.8138 13.2419 15.581C13.7732 15.375 14.2556 15.0605 14.6584 14.6575C15.0611 14.2544 15.3754 13.7718 15.581 13.2404C15.8138 12.6184 15.9396 11.9615 15.9528 11.2975C15.9909 10.445 16 10.1714 16 8C16 5.82857 15.9909 5.55505 15.952 4.70171C15.9388 4.03773 15.8131 3.3808 15.5802 2.75886C15.3793 2.22506 15.0643 1.74155 14.6571 1.3421C14.2577 0.934979 13.7742 0.619965 13.2404 0.419048C12.6184 0.186164 11.9615 0.0604449 11.2975 0.0472381C10.445 0.00914288 10.1714 0 8 0Z" fill="white"/>
<path d="M8.00004 3.8916C7.18751 3.8916 6.39324 4.13254 5.71765 4.58396C5.04206 5.03537 4.5155 5.67698 4.20457 6.42766C3.89363 7.17833 3.81227 8.00435 3.97079 8.80126C4.1293 9.59817 4.52057 10.3302 5.09511 10.9047C5.66965 11.4793 6.40166 11.8705 7.19857 12.029C7.99548 12.1876 8.8215 12.1062 9.57217 11.7953C10.3228 11.4843 10.9645 10.9578 11.4159 10.2822C11.8673 9.60659 12.1082 8.81231 12.1082 7.99979C12.1082 6.91023 11.6754 5.8653 10.905 5.09486C10.1345 4.32443 9.0896 3.8916 8.00004 3.8916ZM8.00004 10.6665C7.47262 10.6665 6.95705 10.5101 6.51852 10.217C6.07999 9.92403 5.73819 9.50755 5.53636 9.02028C5.33453 8.53301 5.28172 7.99683 5.38461 7.47955C5.4875 6.96227 5.74148 6.48711 6.11442 6.11417C6.48736 5.74123 6.96251 5.48726 7.4798 5.38436C7.99708 5.28147 8.53326 5.33428 9.02053 5.53611C9.5078 5.73795 9.92427 6.07974 10.2173 6.51827C10.5103 6.9568 10.6667 7.47237 10.6667 7.99979C10.6667 8.70703 10.3858 9.38531 9.88566 9.88541C9.38556 10.3855 8.70728 10.6665 8.00004 10.6665Z" fill="white"/>
<path d="M12.2705 4.68953C12.8007 4.68953 13.2305 4.25972 13.2305 3.72953C13.2305 3.19934 12.8007 2.76953 12.2705 2.76953C11.7404 2.76953 11.3105 3.19934 11.3105 3.72953C11.3105 4.25972 11.7404 4.68953 12.2705 4.68953Z" fill="white"/>
</svg>
