<svg width="105" height="60" viewBox="0 0 105 60" fill="none" xmlns="http://www.w3.org/2000/svg">
<g clip-path="url(#clip0_433_331)">
<path fill-rule="evenodd" clip-rule="evenodd" d="M98.1874 15.5293L104.953 18.6179C86.7348 21.0395 70.0548 29.0773 56.6484 43.307C68.1035 27.5933 82.0973 18.7286 98.1874 15.5293Z" fill="#5D2509"/>
<path fill-rule="evenodd" clip-rule="evenodd" d="M91.8959 8.93848L98.8953 10.831C82.987 14.5792 64.1271 29.6308 54.3039 44.4586C63.5569 28.831 76.7495 13.1099 91.8959 8.93848Z" fill="#5D2509"/>
<path fill-rule="evenodd" clip-rule="evenodd" d="M86.113 2.89671L95.1768 2.83765C77.8013 9.81468 61.3106 27.5243 53.3577 44.4537C59.4109 28.3881 73.1736 9.7876 86.113 2.89671Z" fill="#5D2509"/>
<path fill-rule="evenodd" clip-rule="evenodd" d="M70.0844 0.147663L82.7707 0C67.1353 7.6292 56.0956 27.79 52.8097 43.4791C52.3083 26.9335 60.6274 9.83921 70.0844 0.147663Z" fill="#C89211"/>
<path fill-rule="evenodd" clip-rule="evenodd" d="M59.3199 0.13541L70.0844 0.115723C55.2107 9.36429 51.5611 28.8754 52.8121 43.4791C49.0421 30.0788 49.9588 9.29538 59.3199 0.13541Z" fill="#C89211"/>
<path fill-rule="evenodd" clip-rule="evenodd" d="M8.52556 15.5293L1.76215 18.6179C19.9831 21.0395 36.6606 29.0773 50.0694 43.307C38.6095 27.5933 24.6182 18.7286 8.52556 15.5293Z" fill="#5D2509"/>
<path fill-rule="evenodd" clip-rule="evenodd" d="M15.2938 8.93848L8.29695 10.831C24.2028 14.5792 43.0651 29.6308 52.8809 44.4586C43.6353 28.831 30.4427 13.1099 15.2938 8.93848Z" fill="#5D2509"/>
<path fill-rule="evenodd" clip-rule="evenodd" d="M26.5539 4.01384L17.5 3.96216C33.5926 10.2427 46.881 25.3018 51.494 40.8506C48.9896 26.3896 38.9428 10.0655 26.5539 4.01384Z" fill="#C89211"/>
<path fill-rule="evenodd" clip-rule="evenodd" d="M2.8656 18.0469L0 19.4078C3.65788 20.2476 7.12693 21.7641 10.2287 23.8795C8.68528 19.2995 7.83248 19.5112 2.8656 18.0469Z" fill="#5D2509"/>
<path d="M26.0755 58.1861C26.018 58.1723 25.9648 58.1444 25.9207 58.1049C25.8775 58.0638 25.8475 58.0106 25.8347 57.9523C25.8156 57.8718 25.8073 57.789 25.8101 57.7062V56.68H26.8865V56.0303H25.8101V54.9917H25.1097V56.0303H24.5764V56.6849H25.1097V57.9646C25.1057 58.1102 25.1282 58.2553 25.176 58.3929C25.2177 58.5023 25.2892 58.5978 25.3825 58.6685C25.487 58.7441 25.607 58.7954 25.7339 58.8186C25.9013 58.8528 26.0719 58.8685 26.2426 58.8654H26.9111V58.2107H26.3139C26.2338 58.2116 26.1538 58.2033 26.0755 58.1861Z" fill="#5D2509"/>
<path d="M15.9304 56.9313C15.8678 56.7305 15.7649 56.5446 15.6281 56.3849C15.5001 56.2367 15.3394 56.1204 15.1587 56.0453C14.9681 55.9658 14.7631 55.9264 14.5566 55.9296C14.3563 55.9283 14.1577 55.9659 13.9717 56.0404C13.7891 56.1104 13.6221 56.2158 13.4801 56.3505C13.3433 56.4861 13.2347 56.6475 13.1607 56.8254C13.0784 57.0165 13.0373 57.2228 13.0402 57.4309C13.0389 57.6335 13.0781 57.8344 13.1557 58.0215C13.2313 58.1999 13.3415 58.3613 13.4801 58.4965C13.6214 58.6332 13.7885 58.7403 13.9717 58.8115C14.1697 58.8891 14.3808 58.9275 14.5935 58.9247C14.8342 58.9301 15.0745 58.8994 15.3062 58.8337C15.4874 58.778 15.6627 58.7046 15.8296 58.6146L15.5249 57.9846C15.4806 58.026 15.43 58.0601 15.375 58.0855C15.3078 58.1172 15.2379 58.1427 15.1661 58.1618C15.0852 58.1842 15.0031 58.2023 14.9203 58.2159C14.839 58.2288 14.7569 58.2354 14.6746 58.2356H14.5984C14.4037 58.2424 14.2111 58.1938 14.0429 58.0953C13.9672 58.0467 13.9021 57.9833 13.8514 57.9089C13.8007 57.8345 13.7656 57.7506 13.748 57.6622H16.0164C16.0316 57.4154 16.0025 57.1678 15.9304 56.9313ZM13.8021 57.0765C13.8466 56.9263 13.9389 56.7949 14.0651 56.7024C14.2074 56.5986 14.3807 56.5466 14.5566 56.5547C14.7299 56.5465 14.9016 56.5921 15.0481 56.6852C15.1132 56.7306 15.1684 56.7886 15.2106 56.8559C15.2529 56.9231 15.2812 56.9981 15.2939 57.0765H13.8021Z" fill="#5D2509"/>
<path d="M28.7371 58.1861C28.6796 58.1723 28.6264 58.1444 28.5823 58.1049C28.5391 58.0638 28.5091 58.0106 28.4963 57.9523C28.4772 57.8718 28.4689 57.789 28.4717 57.7062V56.68H29.5481V56.0303H28.4717V54.9917H27.7663V56.0303H27.233V56.6849H27.7663V57.9646C27.7624 58.1102 27.7849 58.2553 27.8327 58.3929C27.8726 58.5032 27.9445 58.5992 28.0391 58.6685C28.1437 58.7441 28.2637 58.7954 28.3906 58.8186C28.5579 58.8528 28.7285 58.8685 28.8993 58.8654H29.5678V58.2107H28.973C28.8937 58.2115 28.8146 58.2032 28.7371 58.1861Z" fill="#5D2509"/>
<path d="M19.5775 47.6087V48.8958C19.9413 48.8958 20.332 49.0459 20.4352 49.324H19.2236V50.6087H21.7722V49.324C21.662 48.9138 21.4389 48.5428 21.1283 48.2535C20.9255 48.0483 20.6839 47.8857 20.4176 47.775C20.1514 47.6643 19.8658 47.6077 19.5775 47.6087Z" fill="#5D2509"/>
<path d="M11.2068 56.8424C11.2762 56.7706 11.3599 56.7144 11.4526 56.6775C11.5585 56.6372 11.6711 56.6171 11.7844 56.6184C11.9065 56.6177 12.0281 56.6343 12.1456 56.6677C12.2532 56.6966 12.3565 56.7396 12.4528 56.7956L12.7355 56.1607C12.5904 56.0874 12.438 56.0296 12.2808 55.9884C12.1078 55.9471 11.9303 55.9273 11.7524 55.9293C11.5454 55.9272 11.3401 55.9657 11.1478 56.0426C10.9678 56.113 10.8039 56.2193 10.6662 56.3551C10.5284 56.4909 10.4197 56.6533 10.3467 56.8325C10.1959 57.2161 10.1959 57.6426 10.3467 58.0261C10.4189 58.2044 10.5268 58.3661 10.6637 58.5011C10.8058 58.6356 10.9727 58.7409 11.1552 58.8112C11.3474 58.8881 11.5528 58.9266 11.7598 58.9244C11.9376 58.9272 12.115 58.9082 12.2882 58.8678C12.4456 58.8285 12.5982 58.7716 12.7428 58.698L12.4602 58.0581C12.3646 58.1168 12.2612 58.1615 12.153 58.191C12.035 58.2215 11.9136 58.2364 11.7917 58.2353C11.6787 58.2362 11.5664 58.217 11.46 58.1787C11.3638 58.1437 11.2764 58.0881 11.2038 58.0159C11.1313 57.9436 11.0753 57.8564 11.0397 57.7603C10.9995 57.6551 10.9794 57.5432 10.9807 57.4306C10.979 57.3179 10.999 57.2059 11.0397 57.1008C11.0771 57.0041 11.134 56.9161 11.2068 56.8424Z" fill="#5D2509"/>
<path d="M15.5912 50.6087H16.8716V46.3215L15.5912 46.7522V50.6087Z" fill="#5D2509"/>
<path d="M24.0234 56.5275C23.9664 56.3915 23.8759 56.2721 23.7604 56.1805C23.6407 56.091 23.5046 56.0258 23.3598 55.9886C23.199 55.9489 23.0339 55.9291 22.8683 55.9295C22.6789 55.9282 22.4901 55.9489 22.3055 55.991C22.1543 56.0237 22.0074 56.0741 21.868 56.1412L21.7771 56.8598C21.8484 56.8278 21.9246 56.7958 22.0081 56.7638C22.0917 56.7318 22.1801 56.7072 22.2686 56.685C22.3553 56.6617 22.443 56.6428 22.5316 56.6284C22.613 56.6162 22.6951 56.6097 22.7773 56.6087C22.939 56.6029 23.1 56.6323 23.2492 56.6949C23.3093 56.7243 23.359 56.7714 23.3915 56.8299C23.424 56.8884 23.4379 56.9556 23.4311 57.0222V57.0616C23.3318 57.0457 23.2317 57.035 23.1313 57.0296H22.8855C22.7076 57.0282 22.5303 57.0481 22.3571 57.0886C22.2079 57.1232 22.0663 57.185 21.9393 57.2708C21.8263 57.3493 21.7329 57.4529 21.6665 57.5735C21.5998 57.7027 21.5661 57.8464 21.5682 57.9918C21.5631 58.1462 21.6015 58.2988 21.6788 58.4324C21.7526 58.5513 21.8537 58.6509 21.9737 58.7228C22.1069 58.7984 22.2512 58.8524 22.4013 58.8827C22.5695 58.917 22.7409 58.9335 22.9125 58.932C23.1268 58.9324 23.3407 58.9135 23.5515 58.8754C23.7538 58.8395 23.9521 58.7843 24.1438 58.7105V57.0591C24.1418 56.8754 24.1007 56.6942 24.0234 56.5275ZM23.4163 58.2109C23.3365 58.2384 23.2542 58.2582 23.1706 58.2699C23.0828 58.2844 22.9941 58.2919 22.9051 58.2921C22.7547 58.2962 22.605 58.2694 22.4652 58.2133C22.4097 58.1928 22.3623 58.1549 22.33 58.1053C22.2976 58.0556 22.2822 57.9969 22.2858 57.9377C22.2838 57.8766 22.3029 57.8166 22.3399 57.7679C22.3766 57.7182 22.4258 57.6791 22.4824 57.6547C22.5486 57.6237 22.619 57.6029 22.6913 57.5932C22.7727 57.5813 22.8549 57.5755 22.9371 57.5759C23.0193 57.5758 23.1015 57.5815 23.1829 57.5932C23.2656 57.6033 23.3476 57.6181 23.4286 57.6375L23.4163 58.2109Z" fill="#5D2509"/>
<path d="M23.9152 47.6111L22.6348 48.0393V49.3264H21.7746V50.6086H23.9152V47.6111Z" fill="#5D2509"/>
<path d="M20.6442 56.8695C20.524 56.7674 20.3889 56.6844 20.2436 56.6234C20.0847 56.5545 19.9203 56.4993 19.752 56.4585L19.408 56.3724C19.2319 56.3374 19.0647 56.2671 18.9164 56.1656C18.8669 56.1281 18.827 56.0793 18.8001 56.0232C18.7732 55.9671 18.76 55.9054 18.7616 55.8432C18.7604 55.7738 18.781 55.7058 18.8206 55.6488C18.8626 55.5921 18.9162 55.5451 18.9779 55.511C19.0554 55.4714 19.1381 55.4432 19.2237 55.4273C19.3141 55.4081 19.4064 55.399 19.4989 55.4003C19.7051 55.4004 19.9102 55.4294 20.1084 55.4864C20.2986 55.5355 20.4801 55.6135 20.6466 55.7177L20.9317 55.0705C20.836 55.013 20.7358 54.9636 20.6319 54.9228C20.5188 54.881 20.4009 54.8416 20.2755 54.8072C20.1494 54.7737 20.0214 54.7482 19.8921 54.7309C19.7628 54.7114 19.6322 54.7016 19.5014 54.7013C19.2978 54.6988 19.0949 54.7262 18.8992 54.7825C18.7306 54.8306 18.5717 54.9081 18.4298 55.0114C18.3035 55.106 18.2002 55.228 18.1275 55.3683C18.0567 55.5086 18.0205 55.6639 18.0219 55.8211C18.0148 56.1045 18.1159 56.38 18.3045 56.5914C18.5338 56.8213 18.8265 56.9773 19.145 57.0393L19.4817 57.1254C19.5997 57.155 19.7053 57.1845 19.8012 57.2165C19.888 57.2413 19.9708 57.2786 20.047 57.3272C20.1108 57.3658 20.1647 57.4189 20.2042 57.4823C20.2419 57.5481 20.2606 57.6231 20.2583 57.6989C20.2609 57.7856 20.2378 57.8713 20.192 57.945C20.1442 58.0149 20.0812 58.073 20.0076 58.1148C19.922 58.1621 19.8289 58.1946 19.7324 58.2108C19.6188 58.2312 19.5037 58.2411 19.3883 58.2403C19.2789 58.2406 19.1696 58.2323 19.0614 58.2157C18.95 58.1976 18.8419 58.1755 18.737 58.1492C18.6349 58.1235 18.5347 58.0906 18.4372 58.0508C18.3511 58.0167 18.2688 57.9738 18.1914 57.9228L17.9039 58.5627C17.9997 58.6208 18.1009 58.6695 18.2062 58.7079C18.3264 58.7545 18.4496 58.7931 18.5748 58.8236C18.7095 58.8552 18.8456 58.8798 18.9828 58.8974C19.1237 58.9161 19.2658 58.9252 19.408 58.9245C19.6252 58.9271 19.8417 58.9006 20.0519 58.8457C20.2347 58.7985 20.4077 58.7193 20.5631 58.6119C20.7027 58.5119 20.8178 58.3815 20.8998 58.2304C20.9767 58.0754 21.0185 57.9052 21.0224 57.7321C21.0262 57.559 20.9919 57.3871 20.9219 57.2288C20.8542 57.0916 20.7598 56.9695 20.6442 56.8695Z" fill="#5D2509"/>
<path d="M22.8905 52.5875L23.7949 51.6794L22.8905 50.7712L21.9836 51.6794L22.8905 52.5875Z" fill="#5D2509"/>
<path d="M0.919296 51.9475C1.29184 51.5762 1.56267 51.1152 1.70574 50.6087H5.24473V47.6087L3.97414 48.0394V49.324H1.82371V47.6013L0.533448 48.0369V49.7596C0.53468 49.9981 0.488607 50.2345 0.397902 50.455C0.307198 50.6756 0.173667 50.8759 0.00505588 51.0443L-0.00968933 51.0591L0.897179 51.9672L0.919296 51.9475Z" fill="#5D2509"/>
<path d="M72.3135 49.3241C72.2904 49.0319 72.197 48.7496 72.0412 48.5015C71.8854 48.2533 71.6719 48.0466 71.4189 47.8992C71.0386 47.6879 70.6074 47.5857 70.1729 47.6039H68.8924V49.3266H68.0323V50.6113H72.3135V49.3241ZM70.1729 49.3241V48.8861C70.3726 48.8641 70.5746 48.8928 70.7602 48.9698C70.8185 49.0082 70.866 49.061 70.8983 49.123C70.9305 49.185 70.9465 49.2542 70.9446 49.3241H70.1729Z" fill="#5D2509"/>
<path d="M75.3167 45.2264H74.1813C74.2048 45.1894 74.2348 45.1568 74.2697 45.1304C74.3442 45.0682 74.4382 45.0342 74.5352 45.0344H75.125L74.9259 44.4536H74.5352C74.4009 44.4529 74.2679 44.4797 74.1444 44.5324C73.9993 44.5932 73.871 44.6879 73.77 44.8087C73.6691 44.9294 73.5986 45.0727 73.5644 45.2264H73.3678L73.1761 45.8072H75.125L75.3167 45.2264Z" fill="#5D2509"/>
<path d="M47.7887 46.3215L46.5082 46.7522V50.6087H47.7887V46.3215Z" fill="#5D2509"/>
<path d="M34.2496 47.8205L33.3403 46.9075L32.431 47.8205L33.3403 48.7286L34.2496 47.8205Z" fill="#5D2509"/>
<path d="M100.564 52.5875L101.471 51.6794L100.564 50.7664L99.6522 51.6794L100.564 52.5875Z" fill="#5D2509"/>
<path d="M29.4867 49.324H26.1467C26.2623 49.009 26.5572 48.886 26.9184 48.886H28.6388L28.2112 47.6038H26.9283C26.4283 47.6016 25.9427 47.7715 25.553 48.0852C25.1633 48.3988 24.8931 48.8371 24.7877 49.3265H23.9275V50.6112H28.6388L29.4867 49.324Z" fill="#5D2509"/>
<path d="M105 49.3241H104.164C104.056 48.8359 103.786 48.3992 103.396 48.086C103.007 47.7728 102.523 47.6018 102.024 47.6013H97.7426L97.315 48.8835H102.034C102.358 48.8835 102.717 48.9795 102.81 49.3216H96.4327V50.6063H104.145L105 49.3241Z" fill="#5D2509"/>
<path d="M83.1099 46.5848L83.9627 47.4413L84.8671 46.5332L83.9627 45.6201L83.1099 46.4815L82.2546 45.6201L81.3453 46.5332L82.2546 47.4413L83.1099 46.5848Z" fill="#5D2509"/>
<path d="M96.4302 46.3215L95.1498 46.7522V50.6087H96.4302V46.3215Z" fill="#5D2509"/>
<path d="M12.8067 50.6086H14.9424V46.324L13.662 46.7547V49.324H12.035C12.116 49.1914 12.2293 49.0816 12.3643 49.0049C12.4993 48.9283 12.6515 48.8873 12.8067 48.8859V47.6037H8.04629V48.8859C8.20162 48.8849 8.3545 48.9248 8.48953 49.0017C8.62456 49.0786 8.737 49.1898 8.81553 49.324H7.18366V47.6012L5.90323 48.0295V49.7522C5.90446 49.9907 5.85839 50.2271 5.76768 50.4476C5.67698 50.6681 5.54345 50.8684 5.37484 51.0369L5.36009 51.0516L6.26696 51.9597V51.9474C6.6395 51.5761 6.91034 51.1151 7.0534 50.6086H12.7944H12.8067ZM10.6661 49.324H10.1746C10.1435 49.1731 10.0957 49.0262 10.0321 48.8859H10.8013C10.7413 49.0269 10.696 49.1737 10.6661 49.324Z" fill="#5D2509"/>
<path d="M4.29348 55.9934L4.00839 56.018L3.71348 56.0574C3.61271 56.0721 3.51932 56.0869 3.43085 56.1041V58.8654H4.13619V56.7096C4.1697 56.699 4.20435 56.6923 4.23941 56.6899L4.39424 56.6726L4.55399 56.6603H5.07501V55.986H4.5417C4.46551 55.9835 4.38687 55.9885 4.29348 55.9934Z" fill="#5D2509"/>
<path d="M7.5007 46.5383L6.59629 45.6277L5.68942 46.5383L6.59629 47.4464L7.5007 46.5383Z" fill="#5D2509"/>
<path d="M6.33823 56.0303H5.63289V58.8654H6.33823V56.0303Z" fill="#5D2509"/>
<path d="M9.34637 56.1608C9.22291 56.0704 9.08112 56.0082 8.93103 55.9787C8.76268 55.9454 8.59145 55.9289 8.41984 55.9295C8.34366 55.9295 8.25518 55.9295 8.15442 55.9418L7.83493 55.9713C7.72188 55.9713 7.60882 55.9984 7.49086 56.0181L7.14925 56.0747V58.8655H7.85213V56.6752C7.95289 56.6579 8.04874 56.6432 8.13967 56.6333C8.22128 56.6241 8.30331 56.6192 8.38544 56.6186C8.47568 56.6032 8.56832 56.6104 8.6551 56.6395C8.74189 56.6687 8.82014 56.7189 8.88289 56.7856C8.94565 56.8523 8.99096 56.9336 9.01479 57.0221C9.03862 57.1106 9.04024 57.2036 9.01951 57.2929V58.8655H9.72485V57.0911C9.73127 56.8948 9.69609 56.6993 9.62163 56.5177C9.56195 56.377 9.46716 56.2541 9.34637 56.1608Z" fill="#5D2509"/>
<path d="M5.98676 54.8367C5.87903 54.8331 5.77385 54.87 5.69184 54.94C5.65314 54.9729 5.62241 55.0141 5.60197 55.0605C5.58154 55.107 5.57193 55.1575 5.57387 55.2083C5.57078 55.2618 5.58029 55.3153 5.60163 55.3645C5.62298 55.4136 5.65556 55.4571 5.69676 55.4913C5.77999 55.5546 5.88228 55.5876 5.98676 55.5848C6.09365 55.5907 6.1986 55.5545 6.27922 55.4839C6.31723 55.4491 6.34724 55.4064 6.36718 55.3588C6.38712 55.3112 6.39652 55.2599 6.39473 55.2083C6.39644 55.1578 6.38698 55.1076 6.367 55.0612C6.34703 55.0148 6.31705 54.9734 6.27922 54.94C6.1982 54.8699 6.09376 54.833 5.98676 54.8367Z" fill="#5D2509"/>
<path d="M32.2614 56.1805C32.1416 56.091 32.0056 56.0258 31.8608 55.9886C31.696 55.948 31.5267 55.9281 31.357 55.9295C31.1676 55.9282 30.9788 55.9489 30.7942 55.991C30.6429 56.0232 30.496 56.0737 30.3567 56.1412L30.2658 56.8598C30.3371 56.8278 30.4133 56.7958 30.4968 56.7638C30.5804 56.7318 30.6688 56.7072 30.7573 56.6851C30.844 56.6617 30.9317 56.6428 31.0203 56.6284C31.1017 56.6161 31.1838 56.6096 31.2661 56.6088C31.4277 56.6029 31.5887 56.6323 31.7379 56.6949C31.798 56.7243 31.8477 56.7714 31.8802 56.8299C31.9127 56.8885 31.9266 56.9556 31.9198 57.0222V57.0616C31.8205 57.0457 31.7204 57.0351 31.62 57.0296H31.3742C31.1963 57.0282 31.019 57.0481 30.8458 57.0887C30.6966 57.1232 30.555 57.185 30.428 57.2708C30.315 57.3493 30.2216 57.4529 30.1552 57.5735C30.0874 57.7023 30.0535 57.8463 30.0569 57.9919C30.0518 58.1462 30.0902 58.2988 30.1675 58.4324C30.2413 58.5513 30.3424 58.6509 30.4624 58.7228C30.5956 58.7985 30.7399 58.8525 30.89 58.8828C31.0582 58.917 31.2296 58.9335 31.4012 58.932C31.6155 58.9325 31.8294 58.9135 32.0402 58.8754C32.2425 58.8395 32.4408 58.7843 32.6325 58.7105V57.0591C32.6372 56.8796 32.6046 56.7011 32.5366 56.5349C32.4763 56.3954 32.3816 56.2734 32.2614 56.1805ZM31.9173 58.2109C31.8375 58.2384 31.7552 58.2582 31.6716 58.27C31.5838 58.2845 31.4951 58.2919 31.4061 58.2921C31.2557 58.2962 31.1059 58.2694 30.9662 58.2134C30.9107 58.1928 30.8633 58.1549 30.8309 58.1053C30.7986 58.0556 30.7832 57.9969 30.7868 57.9377C30.7848 57.8766 30.8039 57.8166 30.8409 57.7679C30.8776 57.7182 30.9268 57.6792 30.9834 57.6547C31.0495 57.6237 31.12 57.603 31.1923 57.5932C31.2737 57.5813 31.3559 57.5755 31.4381 57.5759C31.5203 57.5759 31.6024 57.5817 31.6838 57.5932C31.7624 57.6037 31.8403 57.6185 31.9173 57.6375V58.2109Z" fill="#5D2509"/>
<path d="M5.41909 51.6794L4.51468 50.7712L3.65942 51.6277L2.80416 50.7712L1.89484 51.6794L2.80416 52.5875L3.65942 51.731L4.51468 52.5875L5.41909 51.6794Z" fill="#5D2509"/>
<path d="M2.14061 46.5383L1.2362 45.6277L0.32933 46.5383L1.2362 47.4464L2.14061 46.5383Z" fill="#5D2509"/>
<path d="M2.66653 55.1665C2.53283 55.043 2.37571 54.9475 2.2045 54.8859C1.98739 54.8103 1.75845 54.7745 1.52865 54.7801H0V58.8655H0.737291V57.3396H1.54094C1.76603 57.3438 1.99002 57.3071 2.20204 57.2313C2.37523 57.1662 2.5339 57.0675 2.66899 56.9409C2.79035 56.8234 2.88434 56.6806 2.94425 56.5225C3.00508 56.3656 3.03592 56.1986 3.03518 56.0303C3.03556 55.8703 3.00553 55.7116 2.9467 55.5627C2.88424 55.4112 2.78848 55.2758 2.66653 55.1665ZM2.19712 56.3429C2.15478 56.4214 2.09191 56.4869 2.01526 56.5324C1.92793 56.5829 1.83216 56.6171 1.73263 56.6333C1.61423 56.6547 1.49414 56.6654 1.37382 56.6653H0.725002V55.4544H1.37382C1.60588 55.4385 1.83768 55.4889 2.04229 55.5996C2.11508 55.6496 2.17312 55.7182 2.2103 55.7983C2.24749 55.8784 2.26246 55.967 2.25365 56.0549C2.25698 56.154 2.23765 56.2525 2.19712 56.3429Z" fill="#5D2509"/>
<path d="M84.2379 56.1608C84.1153 56.0704 83.9743 56.0082 83.825 55.9787C83.6566 55.9455 83.4854 55.929 83.3138 55.9295C83.2352 55.9295 83.1467 55.9295 83.0459 55.9418L82.7265 55.9713C82.6159 55.9713 82.5004 55.9984 82.3824 56.0181L82.0408 56.0747V58.8655H82.7437V56.6751C82.8444 56.6579 82.9403 56.6432 83.0312 56.6333C83.1128 56.6241 83.1948 56.6192 83.277 56.6185C83.4471 56.6071 83.6156 56.6579 83.7513 56.7613C83.813 56.8341 83.8591 56.9189 83.8865 57.0104C83.914 57.1019 83.9224 57.198 83.911 57.2929V58.8655H84.6164V57.0911C84.6228 56.8948 84.5876 56.6993 84.5131 56.5176C84.4535 56.377 84.3587 56.2541 84.2379 56.1608Z" fill="#5D2509"/>
<path d="M87.9956 58.196L87.2755 56.0303H86.5382L87.5115 58.8654H88.4773L89.4554 56.0303H88.7157L87.9956 58.196Z" fill="#5D2509"/>
<path d="M78.3936 46.3215L77.1132 46.7522V50.6087H78.3936V46.3215Z" fill="#5D2509"/>
<path d="M86.086 56.0303H85.3807V58.8654H86.086V56.0303Z" fill="#5D2509"/>
<path d="M85.7322 54.8366C85.6245 54.8333 85.5194 54.8702 85.4373 54.94C85.3988 54.9748 85.368 55.0174 85.347 55.0648C85.3259 55.1123 85.3151 55.1637 85.3151 55.2156C85.3151 55.2676 85.3259 55.3189 85.347 55.3664C85.368 55.4139 85.3988 55.4564 85.4373 55.4913C85.5195 55.5547 85.6211 55.5878 85.7248 55.5848C85.8324 55.59 85.9378 55.5539 86.0197 55.4839C86.0574 55.4489 86.087 55.4061 86.1066 55.3585C86.1261 55.3109 86.135 55.2597 86.1328 55.2082C86.1345 55.1578 86.125 55.1075 86.105 55.0612C86.0851 55.0148 86.0551 54.9734 86.0173 54.94C85.9384 54.8712 85.8367 54.8344 85.7322 54.8366Z" fill="#5D2509"/>
<path d="M80.4556 57.0983C80.4581 57.264 80.4399 57.4294 80.4015 57.5905C80.3709 57.7216 80.3104 57.8438 80.2246 57.9474C80.1398 58.0463 80.0304 58.1211 79.9075 58.164C79.7543 58.2168 79.5928 58.2418 79.4307 58.2378C79.2638 58.2431 79.0973 58.2181 78.9392 58.164C78.8163 58.1211 78.7069 58.0463 78.6222 57.9474C78.538 57.8434 78.4791 57.7212 78.4501 57.5905C78.4117 57.4294 78.3935 57.264 78.3961 57.0983V54.78H77.6588V57.2632C77.6571 57.4842 77.6894 57.7042 77.7546 57.9154C77.8146 58.1127 77.9189 58.2937 78.0594 58.4445C78.2099 58.6022 78.395 58.7227 78.6001 58.7964C79.1265 58.9671 79.6932 58.9671 80.2196 58.7964C80.425 58.7233 80.6102 58.6028 80.7603 58.4445C80.9008 58.2937 81.0051 58.1127 81.0651 57.9154C81.1303 57.7042 81.1626 57.4842 81.1609 57.2632V54.78H80.4556V57.0983Z" fill="#5D2509"/>
<path d="M75.1889 48.4576C75.0237 48.457 74.8589 48.4743 74.6974 48.5093C74.4903 48.309 74.3314 48.0641 74.2329 47.7931C74.1534 47.5677 74.1193 47.3287 74.1328 47.09C74.1463 46.8513 74.2071 46.6176 74.3116 46.4026L73.154 45.8464C72.9776 46.2135 72.8754 46.6119 72.8535 47.0186C72.8316 47.4254 72.8903 47.8325 73.0262 48.2164C73.1488 48.5644 73.3309 48.8884 73.5644 49.1738L73.4809 49.2648C73.162 49.6568 72.9883 50.1472 72.9894 50.6528H74.2624C74.2627 50.5328 74.2867 50.4141 74.333 50.3034C74.3793 50.1927 74.447 50.0923 74.5322 50.0079C74.6174 49.9235 74.7184 49.8568 74.8294 49.8117C74.9404 49.7665 75.0593 49.7437 75.1791 49.7447V50.6012H76.4743V46.314L75.1939 46.7423L75.1889 48.4576Z" fill="#5D2509"/>
<path d="M72.0308 54.8367C71.9231 54.8331 71.8179 54.87 71.7359 54.94C71.6972 54.9729 71.6665 55.0141 71.646 55.0605C71.6256 55.107 71.616 55.1575 71.6179 55.2083C71.6148 55.2618 71.6244 55.3153 71.6457 55.3645C71.667 55.4136 71.6996 55.4571 71.7408 55.4913C71.8241 55.5546 71.9264 55.5876 72.0308 55.5848C72.1384 55.59 72.2439 55.5539 72.3257 55.4839C72.3629 55.4486 72.3922 55.4057 72.4117 55.3582C72.4312 55.3107 72.4404 55.2596 72.4388 55.2083C72.4405 55.1578 72.431 55.1076 72.4111 55.0612C72.3911 55.0148 72.3611 54.9734 72.3233 54.94C72.2423 54.8699 72.1378 54.833 72.0308 54.8367Z" fill="#5D2509"/>
<path d="M75.415 56.68V56.0303H73.1073V56.6849H74.5499L72.9868 58.2108V58.8654H75.4666V58.2108H73.8814L75.415 56.68Z" fill="#5D2509"/>
<path d="M94.5034 49.3241C94.4804 49.0319 94.387 48.7496 94.2312 48.5015C94.0754 48.2533 93.8619 48.0466 93.6089 47.8992C93.2286 47.6879 92.7974 47.5857 92.3628 47.6039H91.0824V49.3266H89.453C89.5345 49.194 89.6483 49.0842 89.7837 49.0076C89.9191 48.931 90.0717 48.89 90.2272 48.8885V47.6063H85.4643V48.8885C85.62 48.8873 85.7732 48.9272 85.9087 49.0041C86.0442 49.081 86.157 49.1922 86.236 49.3266H84.6041V47.6039H82.896C81.5591 47.6039 80.7554 48.7286 80.7554 49.5383V50.6088H94.5034V49.3241ZM83.3237 49.3241H82.1268C82.2226 48.9427 82.5741 48.8861 82.8985 48.8861H83.3261L83.3237 49.3241ZM88.0841 49.3241H87.6049C87.5718 49.1735 87.5232 49.0267 87.4599 48.8861H88.2316C88.1664 49.0262 88.1169 49.1731 88.0841 49.3241ZM92.3628 49.3241V48.8861C92.5618 48.8638 92.763 48.8926 92.9478 48.9698C93.0064 49.0079 93.0542 49.0606 93.0865 49.1227C93.1188 49.1848 93.1345 49.2542 93.1321 49.3241H92.3628Z" fill="#5D2509"/>
<path d="M72.3822 56.0303H71.6769V58.8654H72.3822V56.0303Z" fill="#5D2509"/>
<path d="M101.065 58.1861C101.007 58.1722 100.953 58.1444 100.908 58.1049C100.866 58.0631 100.836 58.0102 100.822 57.9523C100.804 57.8715 100.796 57.7889 100.797 57.7062V56.68H101.874V56.0303H100.805V54.9917H100.102V56.0303H99.5686V56.6849H100.102V57.9646C100.097 58.1101 100.119 58.2551 100.166 58.3929C100.207 58.5023 100.279 58.5978 100.372 58.6685C100.477 58.7441 100.597 58.7954 100.724 58.8186C100.891 58.8526 101.062 58.8683 101.232 58.8654H101.901V58.2107H101.296C101.219 58.2112 101.141 58.203 101.065 58.1861Z" fill="#5D2509"/>
<path d="M104.245 56.0254V58.1099C104.152 58.1373 104.057 58.1571 103.96 58.169C103.879 58.1808 103.797 58.1865 103.715 58.1862C103.631 58.1869 103.549 58.1753 103.469 58.1517C103.402 58.1316 103.341 58.0933 103.294 58.041C103.245 57.9807 103.211 57.91 103.194 57.8343C103.169 57.7277 103.159 57.6186 103.162 57.5094V56.0328H102.451V57.7186C102.446 57.9145 102.477 58.1097 102.542 58.2945C102.593 58.4325 102.677 58.5553 102.788 58.6513C102.902 58.7405 103.035 58.8028 103.176 58.8334C103.338 58.8666 103.503 58.8831 103.668 58.8827C103.857 58.8825 104.046 58.8619 104.231 58.8211V58.8827C104.233 58.9577 104.215 59.032 104.177 59.0968C104.138 59.1576 104.085 59.2076 104.022 59.242C103.95 59.2847 103.871 59.3138 103.788 59.3281C103.69 59.3477 103.591 59.3567 103.491 59.3552C103.409 59.3551 103.327 59.3502 103.245 59.3404C103.157 59.3302 103.069 59.3155 102.982 59.2961C102.891 59.2764 102.803 59.2518 102.717 59.2272C102.637 59.205 102.559 59.177 102.483 59.1435L102.633 59.8818C102.692 59.8991 102.754 59.9163 102.825 59.9311L103.041 59.9704C103.115 59.9827 103.186 59.9926 103.258 59.9975C103.321 60.0008 103.385 60.0008 103.449 59.9975C103.685 60.0027 103.921 59.9796 104.152 59.9286C104.321 59.892 104.477 59.8133 104.607 59.6997C104.725 59.5861 104.81 59.4423 104.853 59.2838C104.906 59.0765 104.931 58.8629 104.926 58.6489V56.0254H104.245Z" fill="#5D2509"/>
<path d="M99.0575 56.0303H98.3521V58.8654H99.0575V56.0303Z" fill="#5D2509"/>
<path d="M98.706 54.8367C98.5983 54.8331 98.4931 54.87 98.4111 54.94C98.3724 54.9728 98.3417 55.0141 98.3212 55.0605C98.3008 55.107 98.2912 55.1575 98.2931 55.2083C98.29 55.2618 98.2996 55.3153 98.3209 55.3645C98.3422 55.4136 98.3748 55.4571 98.416 55.4913C98.4991 55.5549 98.6015 55.588 98.706 55.5848C98.8129 55.5907 98.9179 55.5545 98.9985 55.4839C99.0362 55.4489 99.0658 55.4062 99.0853 55.3586C99.1049 55.311 99.1138 55.2597 99.1115 55.2083C99.1139 55.1577 99.1048 55.1072 99.0848 55.0608C99.0648 55.0143 99.0344 54.973 98.996 54.94C98.9159 54.8701 98.8123 54.8331 98.706 54.8367Z" fill="#5D2509"/>
<path d="M92.498 56.931C92.4344 56.7306 92.3316 56.5449 92.1957 56.3847C92.0677 56.2364 91.907 56.1202 91.7263 56.045C91.5356 55.9657 91.3307 55.9263 91.1242 55.9294C90.9239 55.928 90.7252 55.9657 90.5393 56.0401C90.36 56.1106 90.1967 56.2164 90.0591 56.3512C89.9215 56.4861 89.8123 56.6473 89.7381 56.8252C89.5823 57.2086 89.5823 57.6378 89.7381 58.0212C89.8136 58.1996 89.9239 58.3611 90.0625 58.4962C90.2037 58.633 90.3708 58.7401 90.554 58.8112C90.752 58.8888 90.9632 58.9273 91.1758 58.9244C91.4166 58.9298 91.6568 58.8991 91.8885 58.8334C92.0697 58.7777 92.2451 58.7044 92.412 58.6144L92.0999 57.9843C92.0556 58.0258 92.005 58.0598 91.9499 58.0852C91.8828 58.1169 91.8128 58.1425 91.741 58.1615C91.6601 58.1839 91.5781 58.202 91.4953 58.2157C91.414 58.2285 91.3318 58.2351 91.2495 58.2354H91.1733C90.9787 58.2421 90.7861 58.1935 90.6179 58.0951C90.5422 58.0465 90.477 57.983 90.4263 57.9086C90.3757 57.8342 90.3405 57.7503 90.323 57.6619H92.5668C92.5876 57.4161 92.5642 57.1686 92.498 56.931ZM90.3697 57.0762C90.4131 56.9256 90.5057 56.7939 90.6326 56.7021C90.775 56.5984 90.9483 56.5463 91.1242 56.5545C91.2975 56.5466 91.469 56.5921 91.6157 56.6849C91.6807 56.7303 91.736 56.7884 91.7782 56.8556C91.8204 56.9228 91.8487 56.9978 91.8615 57.0762H90.3697Z" fill="#5D2509"/>
<path d="M93.9996 55.9935L93.7146 56.0181L93.4319 56.055C93.3312 56.0698 93.2353 56.0845 93.1493 56.1018V58.8631H93.8546V56.7072C93.8874 56.6968 93.9212 56.6902 93.9554 56.6875L94.1127 56.6703L94.2725 56.658H94.7935V55.9836H94.2602C94.1692 55.9836 94.0906 55.9886 93.9996 55.9935Z" fill="#5D2509"/>
<path d="M96.6269 57.1182L96.4057 57.0764C96.2781 57.0599 96.1542 57.0216 96.0395 56.9632C96.0102 56.9483 95.9854 56.9258 95.9677 56.8982C95.95 56.8705 95.94 56.8385 95.9388 56.8057C95.9388 56.6802 96.0862 56.6186 96.3811 56.6186C96.4632 56.6191 96.5453 56.6241 96.6269 56.6334C96.7163 56.6428 96.805 56.6584 96.8923 56.6802C96.9783 56.6999 97.0619 56.7245 97.1381 56.7515C97.2119 56.7785 97.2841 56.8097 97.3543 56.845L97.6001 56.1904C97.4263 56.0983 97.24 56.032 97.0471 55.9935C96.8327 55.9507 96.6145 55.9293 96.3959 55.9295C96.0877 55.9151 95.7831 56.0014 95.5283 56.1756C95.4276 56.2484 95.3463 56.3448 95.2915 56.4564C95.2366 56.5679 95.21 56.6912 95.2138 56.8155C95.2094 56.9268 95.2319 57.0375 95.2794 57.1382C95.3269 57.2389 95.3979 57.3266 95.4865 57.3939C95.7112 57.552 95.9695 57.6557 96.241 57.6966L96.4671 57.7359C96.5952 57.7554 96.7195 57.7944 96.8358 57.8516C96.8663 57.8686 96.8916 57.8937 96.9089 57.924C96.9262 57.9544 96.9349 57.9889 96.9341 58.0239C96.9341 58.1051 96.8825 58.1617 96.7793 58.1962C96.6579 58.231 96.532 58.2476 96.4057 58.2454C96.2168 58.2455 96.0289 58.2181 95.8478 58.1642C95.684 58.1197 95.5281 58.05 95.3858 57.9574L95.1204 58.6441C95.2054 58.6938 95.2951 58.735 95.3882 58.7671C95.4912 58.8036 95.5963 58.834 95.7028 58.8582C95.8147 58.8834 95.9279 58.9023 96.042 58.9148C96.1561 58.9286 96.271 58.9352 96.386 58.9345C96.5772 58.9381 96.7681 58.9165 96.9537 58.8705C97.0984 58.8346 97.2351 58.772 97.3568 58.6859C97.4578 58.617 97.5401 58.524 97.5963 58.4153C97.6525 58.3066 97.6808 58.1856 97.6787 58.0633C97.6848 57.9508 97.6658 57.8385 97.6233 57.7342C97.5809 57.63 97.5158 57.5364 97.433 57.4603C97.1973 57.2802 96.92 57.1625 96.6269 57.1182Z" fill="#5D2509"/>
<path d="M68.0274 47.6087L66.7469 48.0394V49.324H64.6063V47.6013L63.3259 48.0295V49.7523C63.3269 49.9913 63.2804 50.2282 63.1893 50.4491C63.0982 50.6701 62.9642 50.8707 62.795 51.0394L63.7019 51.9475C64.0737 51.577 64.3438 51.1168 64.4859 50.6112H68.0274V47.6087Z" fill="#5D2509"/>
<path d="M44.0089 54.8367C43.9011 54.8331 43.7959 54.87 43.7139 54.94C43.6752 54.9729 43.6445 55.0141 43.6241 55.0605C43.6036 55.107 43.594 55.1575 43.596 55.2083C43.5929 55.2618 43.6024 55.3153 43.6237 55.3645C43.6451 55.4136 43.6777 55.4571 43.7189 55.4913C43.8021 55.5546 43.9044 55.5876 44.0089 55.5848C44.1164 55.59 44.2219 55.5539 44.3038 55.4839C44.341 55.4486 44.3702 55.4057 44.3897 55.3582C44.4092 55.3107 44.4184 55.2596 44.4168 55.2083C44.4185 55.1578 44.4091 55.1076 44.3891 55.0612C44.3691 55.0148 44.3391 54.9734 44.3013 54.94C44.2203 54.8699 44.1159 54.833 44.0089 54.8367Z" fill="#5D2509"/>
<path d="M51.1605 54.78L49.6516 58.8653H50.4233L50.7673 57.9031H52.4557L52.8022 58.8653H53.5641L52.0551 54.78H51.1605ZM50.9959 57.2238L51.598 55.5257L52.2026 57.2238H50.9959Z" fill="#5D2509"/>
<path d="M47.3685 56.1608C47.245 56.0704 47.1032 56.0082 46.9531 55.9787C46.7848 55.9454 46.6135 55.9289 46.4419 55.9295C46.3657 55.9295 46.2773 55.9295 46.1765 55.9418L45.857 55.9713C45.744 55.9713 45.6309 55.9984 45.5129 56.0181L45.1713 56.0747V58.8655H45.8742V56.6752C45.975 56.6579 46.0708 56.6432 46.1618 56.6333C46.2434 56.6241 46.3254 56.6192 46.4075 56.6186C46.4978 56.6032 46.5904 56.6104 46.6772 56.6395C46.764 56.6687 46.8422 56.7189 46.905 56.7856C46.9677 56.8523 47.013 56.9336 47.0369 57.0221C47.0607 57.1106 47.0623 57.2036 47.0416 57.2929V58.8655H47.7469V57.0911C47.7534 56.8948 47.7182 56.6993 47.6437 56.5177C47.584 56.377 47.4893 56.2541 47.3685 56.1608Z" fill="#5D2509"/>
<path d="M42.8046 57.0737C42.7379 56.9777 42.6547 56.8944 42.5588 56.8276C42.4514 56.7523 42.3316 56.6965 42.2049 56.6627C42.3836 56.5882 42.5342 56.459 42.635 56.2936C42.7249 56.1452 42.7725 55.9749 42.7727 55.8014C42.7749 55.662 42.7454 55.524 42.6866 55.3977C42.6245 55.2689 42.5317 55.1573 42.4163 55.0729C42.2789 54.9719 42.1239 54.8976 41.9592 54.8539C41.7446 54.7957 41.5228 54.7684 41.3005 54.7726H39.8972V58.858H41.5021C41.6861 58.8584 41.8695 58.8352 42.0476 58.789C42.2175 58.7484 42.3783 58.6767 42.522 58.5774C42.6596 58.481 42.7738 58.3548 42.8562 58.2082C42.9458 58.0396 42.9898 57.8504 42.984 57.6594C42.9842 57.5553 42.9692 57.4517 42.9398 57.3518C42.9096 57.2525 42.864 57.1587 42.8046 57.0737ZM40.6247 55.4543H41.2563C41.4639 55.4352 41.6721 55.4826 41.851 55.5897C41.9069 55.6311 41.9524 55.6851 41.9837 55.7473C42.015 55.8095 42.0313 55.8781 42.0313 55.9478C42.0313 56.0174 42.015 56.0861 41.9837 56.1483C41.9524 56.2105 41.9069 56.2644 41.851 56.3059C41.6703 56.4002 41.4669 56.442 41.2637 56.4265H40.6321L40.6247 55.4543ZM42.0354 58.0606C41.8405 58.1604 41.6222 58.2055 41.4037 58.191H40.6247V57.1082H41.3841C41.5042 57.1068 41.6241 57.1151 41.7429 57.1328C41.8366 57.1454 41.9273 57.1746 42.0108 57.2189C42.0819 57.2565 42.1408 57.3137 42.1804 57.3838C42.2216 57.467 42.241 57.5593 42.2369 57.652C42.2442 57.7311 42.2302 57.8106 42.1965 57.8824C42.1628 57.9543 42.1106 58.0158 42.0452 58.0606H42.0354Z" fill="#5D2509"/>
<path d="M44.3603 56.0303H43.655V58.8654H44.3603V56.0303Z" fill="#5D2509"/>
<path d="M42.4409 50.6087H45.8619V49.3241C45.8389 49.0319 45.7455 48.7496 45.5897 48.5014C45.4339 48.2533 45.2203 48.0466 44.9673 47.8991C44.5869 47.688 44.1559 47.5859 43.7213 47.6038H42.4409V49.3265C41.8626 49.3257 41.2956 49.4865 40.8037 49.7909C40.3117 50.0952 39.9144 50.5311 39.6564 51.0493L40.6861 51.9599C40.7879 51.5719 41.0155 51.2287 41.333 50.9841C41.6506 50.7396 42.0403 50.6076 42.4409 50.6087ZM43.7213 48.886C43.9202 48.864 44.1215 48.8928 44.3062 48.9697C44.3649 49.0078 44.4127 49.0605 44.4449 49.1226C44.4772 49.1847 44.493 49.2541 44.4906 49.3241H43.7213V48.886Z" fill="#5D2509"/>
<path d="M36.4664 52.5875L37.3683 51.6794L36.4664 50.7712L35.5595 51.6794L36.4664 52.5875Z" fill="#5D2509"/>
<path d="M37.1889 56.1608C37.073 56.0716 36.9387 56.0094 36.7957 55.9787C36.634 55.9452 36.4693 55.9287 36.3042 55.9295C36.1462 55.9319 35.9889 55.9509 35.8348 55.9861C35.6669 56.0217 35.5024 56.0719 35.3433 56.1362C35.2389 56.0532 35.1156 55.9974 34.9844 55.9738C34.8389 55.944 34.6907 55.9292 34.5421 55.9295C34.365 55.9319 34.1884 55.9475 34.0137 55.9762L33.3649 56.0845V58.8655H34.0702V56.6801L34.316 56.6382C34.3873 56.6251 34.4597 56.6186 34.5322 56.6186C34.6152 56.6188 34.6978 56.6296 34.778 56.6506C34.8463 56.6701 34.9083 56.7074 34.9574 56.7588C35.0074 56.8179 35.0427 56.8878 35.0606 56.9631C35.0845 57.0697 35.0952 57.1788 35.0926 57.288V58.8655H35.7979V57.2683C35.7979 57.2289 35.7979 57.1821 35.7979 57.1305L35.7832 56.9754C35.777 56.9281 35.768 56.8813 35.7561 56.8351C35.7499 56.8021 35.74 56.7699 35.7267 56.7392C35.8153 56.7 35.9075 56.6695 36.0019 56.6481C36.0867 56.6296 36.1732 56.6197 36.26 56.6186C36.3366 56.6117 36.4139 56.6206 36.487 56.6448C36.5601 56.6689 36.6275 56.7077 36.6851 56.7588C36.7909 56.9137 36.838 57.1014 36.8178 57.288V58.8655H37.5232V57.0911C37.5295 56.8955 37.4969 56.7006 37.4273 56.5177C37.3787 56.3808 37.2967 56.2581 37.1889 56.1608Z" fill="#5D2509"/>
<path d="M64.7538 54.78H64.0484V58.8653H64.7538V54.78Z" fill="#5D2509"/>
<path d="M35.0951 50.6062H37.3979V47.6086L36.1174 48.0393V49.324H35.2597V48.4626L33.9793 48.8908V49.7473C33.9691 49.9117 33.8968 50.0661 33.7769 50.179C33.657 50.2918 33.4987 50.3547 33.3342 50.3547C33.1696 50.3547 33.0113 50.2918 32.8914 50.179C32.7715 50.0661 32.6992 49.9117 32.689 49.7473V49.3191L31.4086 49.7473C31.4086 51.0615 32.4113 51.7038 33.3944 51.6792C33.7506 51.6819 34.1002 51.5823 34.4016 51.3921C34.7031 51.2019 34.9437 50.9292 35.0951 50.6062Z" fill="#5D2509"/>
<path d="M67.2974 52.5875L68.2018 51.6794L67.2974 50.7712L66.4421 51.6277L65.5869 50.7712L64.6776 51.6794L65.5869 52.5875L66.4421 51.731L67.2974 52.5875Z" fill="#5D2509"/>
<path d="M70.9691 56.68V56.0303H68.6614V56.6849H70.104L68.5385 58.2108V58.8654H71.0182V58.2108H69.4355L70.9691 56.68Z" fill="#5D2509"/>
<path d="M56.3708 56.365C56.2266 56.2248 56.0551 56.1159 55.8669 56.0451C55.6576 55.9648 55.4349 55.9256 55.2108 55.9294C55.1444 55.9294 55.0707 55.9294 54.9896 55.9294L54.7217 55.9589V54.7703H54.0188V58.7694C54.3888 58.8698 54.7709 58.9186 55.1542 58.9146C55.3926 58.9192 55.6298 58.8808 55.8547 58.8014C56.0474 58.7335 56.224 58.6263 56.3732 58.4864C56.5133 58.354 56.6232 58.1928 56.6952 58.0139C56.77 57.8269 56.8075 57.6271 56.8058 57.4257C56.8065 57.2226 56.7681 57.0212 56.6927 56.8326C56.6173 56.657 56.5079 56.4981 56.3708 56.365ZM55.8301 58.041C55.6368 58.1801 55.4017 58.2487 55.1641 58.2354C55.0167 58.2333 54.87 58.2151 54.7266 58.1813V56.68C54.8023 56.6581 54.8795 56.6416 54.9576 56.6308C55.0264 56.6273 55.0953 56.6273 55.1641 56.6308C55.4029 56.6174 55.6388 56.6889 55.8301 56.8326C55.915 56.9097 55.9813 57.0052 56.0239 57.1118C56.0665 57.2184 56.0843 57.3334 56.0758 57.4479C56.0821 57.5589 56.0633 57.6699 56.0207 57.7726C55.9782 57.8753 55.913 57.967 55.8301 58.041Z" fill="#5D2509"/>
<path d="M67.6268 56.1805C67.507 56.091 67.3709 56.0258 67.2262 55.9886C67.0654 55.9488 66.9003 55.9289 66.7346 55.9295C66.5445 55.9282 66.3548 55.9488 66.1694 55.991C66.0182 56.0237 65.8713 56.0741 65.7319 56.1412L65.6435 56.8598C65.7123 56.8278 65.7909 56.7958 65.8745 56.7638C65.958 56.7318 66.0441 56.7072 66.1325 56.685C66.2199 56.6615 66.3085 56.6426 66.3979 56.6284C66.4793 56.616 66.5614 56.6094 66.6437 56.6088C66.8054 56.6029 66.9664 56.6323 67.1156 56.6949C67.1757 56.7243 67.2254 56.7714 67.2579 56.8299C67.2904 56.8885 67.3042 56.9556 67.2974 57.0222V57.0616C67.1981 57.0456 67.098 57.0349 66.9976 57.0296H66.7518C66.5732 57.0281 66.395 57.0479 66.221 57.0887C66.0719 57.1237 65.9304 57.1854 65.8032 57.2708C65.6902 57.3493 65.5968 57.4529 65.5304 57.5735C65.4645 57.7029 65.4316 57.8466 65.4346 57.9919C65.4295 58.1462 65.4678 58.2988 65.5452 58.4324C65.618 58.5512 65.7183 58.6508 65.8376 58.7228C65.9708 58.7985 66.1151 58.8525 66.2652 58.8827C66.4335 58.9169 66.6048 58.9334 66.7764 58.932C66.9907 58.9326 67.2046 58.9136 67.4154 58.8754C67.6177 58.8399 67.8161 58.7846 68.0077 58.7105V57.0591C68.0119 56.8799 67.9802 56.7016 67.9143 56.5349C67.8513 56.3935 67.7521 56.2712 67.6268 56.1805ZM67.2827 58.2109C67.2029 58.2386 67.1206 58.2584 67.0369 58.27C66.9484 58.2846 66.8588 58.292 66.7691 58.2921C66.6186 58.2962 66.4689 58.2694 66.3291 58.2133C66.2884 58.1958 66.2522 58.1694 66.223 58.1361C66.1938 58.1027 66.1724 58.0632 66.1604 58.0206C66.1484 57.9779 66.1461 57.933 66.1536 57.8893C66.1611 57.8456 66.1782 57.8041 66.2038 57.7679C66.241 57.7188 66.2901 57.6798 66.3463 57.6547C66.4125 57.6239 66.483 57.6032 66.5552 57.5932C66.6366 57.5813 66.7188 57.5756 66.801 57.5759C66.8832 57.576 66.9653 57.5818 67.0468 57.5932C67.1245 57.6037 67.2016 57.6185 67.2778 57.6375L67.2827 58.2109Z" fill="#5D2509"/>
<path d="M62.5296 58.164C62.436 58.1895 62.3407 58.2084 62.2445 58.2206C62.1629 58.2302 62.0809 58.2351 61.9987 58.2354C61.9214 58.2431 61.8434 58.2344 61.7697 58.2098C61.696 58.1852 61.6283 58.1453 61.5711 58.0926C61.4664 57.9364 61.4203 57.7481 61.4408 57.561V56.0303H60.7453V57.753C60.739 57.9424 60.7724 58.1311 60.8436 58.3067C60.9041 58.4462 60.9978 58.5687 61.1164 58.6636C61.2364 58.7564 61.3746 58.8226 61.522 58.858C61.6877 58.8976 61.8578 58.9166 62.0282 58.9146C62.1487 58.9146 62.2617 58.9146 62.3649 58.9023C62.4655 58.8945 62.5656 58.8814 62.6648 58.8629C62.7606 58.8432 62.854 58.8236 62.9498 58.7965C63.0457 58.7694 63.1391 58.7423 63.2398 58.7103V56.0303H62.537L62.5296 58.164Z" fill="#5D2509"/>
<path d="M59.3003 55.9687L59.0299 55.9392C58.9488 55.9392 58.8751 55.9392 58.8112 55.9392C58.5871 55.9353 58.3643 55.9746 58.155 56.0548C57.9664 56.1261 57.7942 56.235 57.6487 56.3748C57.509 56.5099 57.3986 56.6725 57.3243 56.8522C57.2489 57.0408 57.2105 57.2422 57.2113 57.4453C57.2095 57.6467 57.2471 57.8465 57.3219 58.0335C57.3947 58.2126 57.5054 58.3738 57.6463 58.506C57.7962 58.6462 57.9736 58.7535 58.1673 58.821C58.3922 58.9002 58.6294 58.9386 58.8677 58.9343C59.251 58.9379 59.6331 58.8891 60.0032 58.789V54.78H59.3003V55.9687ZM59.3003 58.1836C59.1569 58.2176 59.0102 58.2358 58.8628 58.2378C58.6259 58.2515 58.3914 58.1828 58.1992 58.0434C58.1134 57.9691 58.0464 57.8755 58.0037 57.7702C57.9609 57.665 57.9437 57.5511 57.9535 57.4379C57.9437 57.3233 57.9609 57.208 58.0036 57.1011C58.0462 56.9943 58.1132 56.899 58.1992 56.8227C58.3895 56.6787 58.6247 56.6072 58.8628 56.6209C58.9299 56.6174 58.9972 56.6174 59.0643 56.6209C59.1473 56.6317 59.2294 56.6482 59.3101 56.6701L59.3003 58.1836Z" fill="#5D2509"/>
<path d="M59.7869 49.3241H59.3495V48.0395L58.069 48.4677V49.3291H57.7127C57.6808 48.8776 57.5089 48.4475 57.2211 48.0985L56.1127 48.7926C56.2699 48.9273 56.3773 49.1111 56.4175 49.3143H55.5008V47.5916H51.2171C50.97 47.5829 50.7244 47.6336 50.5008 47.7393C50.2772 47.8451 50.0821 48.0028 49.9318 48.1994V46.3044L48.6514 46.7351V49.3118H47.7912V50.5965H61.0624V47.6088L59.782 48.0395L59.7869 49.3241ZM54.2204 49.3241H50.1898C50.3348 48.9697 50.6003 48.8861 50.9615 48.8861H54.2204V49.3241Z" fill="#5D2509"/>
</g>
<defs>
<clipPath id="clip0_433_331">
<rect width="105" height="60" fill="white"/>
</clipPath>
</defs>
</svg>
