<svg width="16" height="16" viewBox="0 0 16 16" fill="none" xmlns="http://www.w3.org/2000/svg">
<path d="M8.15473 0.000395885H8.1154H7.83808C7.00144 -0.0102086 6.18042 0.241733 5.47758 0.724741C4.77475 1.20775 4.22128 1.90041 3.88632 2.71617C3.53101 3.56304 3.61967 5.00143 3.68633 6.15753C3.69433 6.29371 3.703 6.43556 3.71033 6.57174C3.61396 6.62329 3.50678 6.64771 3.39902 6.64266C3.14332 6.62964 2.89324 6.55829 2.66573 6.43343C2.58593 6.39532 2.4992 6.37643 2.41174 6.37811C2.24221 6.37193 2.07527 6.42369 1.93539 6.5258C1.79551 6.62791 1.69005 6.775 1.63446 6.94552C1.59046 7.19093 1.69379 7.54911 2.43441 7.86047C2.50107 7.88813 2.58173 7.91509 2.66706 7.94417C2.97304 8.04772 3.43568 8.20376 3.56101 8.51796C3.59112 8.62175 3.59985 8.73123 3.58663 8.83893C3.5734 8.94664 3.53851 9.05004 3.48434 9.14212L3.47701 9.15914C3.43635 9.25985 2.45707 11.6352 0.282538 12.0161C0.200592 12.0295 0.126296 12.0749 0.0741553 12.1435C0.0220147 12.2121 -0.00422658 12.2989 0.000555139 12.387C0.00357164 12.4415 0.015529 12.495 0.0358863 12.5452C0.19921 12.9509 0.887168 13.2488 2.14109 13.4559C2.1941 13.5846 2.23172 13.72 2.25308 13.8587C2.27908 13.9864 2.30642 14.1183 2.34441 14.258C2.36532 14.3489 2.41585 14.4289 2.48702 14.4839C2.55819 14.5388 2.64538 14.5651 2.73306 14.5581C2.85477 14.5517 2.9757 14.5337 3.09437 14.5042C3.37456 14.4392 3.66024 14.4048 3.94698 14.4013C4.15183 14.4018 4.35629 14.4203 4.55828 14.4566C4.97983 14.5721 5.37151 14.7871 5.70421 15.0858C6.31945 15.6433 7.09261 15.9652 7.90008 16C7.92741 16 7.95474 16 7.9814 16C8.00807 16 8.05407 16 8.09806 16C8.9069 15.966 9.6816 15.6441 10.2979 15.0858C10.6308 14.7869 11.0227 14.5719 11.4445 14.4566C11.6465 14.4203 11.851 14.4018 12.0558 14.4013C12.3424 14.4027 12.628 14.435 12.9084 14.4978C13.0273 14.5252 13.1482 14.5411 13.2697 14.5453H13.2877C13.3721 14.55 13.4554 14.5231 13.523 14.4692C13.5906 14.4152 13.6383 14.3378 13.6577 14.2502C13.6957 14.1141 13.7244 13.9857 13.7497 13.8552C13.7703 13.7168 13.8078 13.5819 13.861 13.4537C15.115 13.2466 15.8029 12.9502 15.9663 12.5459C15.986 12.4952 15.9973 12.4411 15.9996 12.3863C16.0037 12.2995 15.9777 12.2142 15.9266 12.1465C15.8755 12.0788 15.8028 12.0334 15.7223 12.0189C13.5471 11.6373 12.5685 9.26198 12.5278 9.16127L12.5205 9.14424C12.4663 9.05232 12.4314 8.94903 12.4181 8.84143C12.4049 8.73383 12.4137 8.62447 12.4438 8.5208C12.5691 8.20659 13.0318 8.05056 13.3377 7.947C13.4237 7.91792 13.5037 7.89097 13.5704 7.86331C14.1124 7.63493 14.3843 7.35548 14.379 7.03134C14.3644 6.89124 14.3099 6.75923 14.2228 6.653C14.1357 6.54677 14.0202 6.4714 13.8917 6.43698C13.7859 6.39082 13.6727 6.36674 13.5584 6.36605C13.4531 6.36442 13.3488 6.38691 13.2524 6.43201C13.0372 6.54808 12.8029 6.61865 12.5625 6.63983C12.4697 6.63813 12.3784 6.61387 12.2958 6.5689C12.3018 6.45187 12.3091 6.33059 12.3165 6.20505V6.1554C12.3831 4.9993 12.4705 3.55949 12.1165 2.71192C11.7793 1.89605 11.2237 1.20386 10.5192 0.721669C9.8147 0.239479 8.99235 -0.0113727 8.15473 0.000395885Z" fill="white"/>
</svg>
