<svg width="16" height="16" viewBox="0 0 16 16" fill="none" xmlns="http://www.w3.org/2000/svg">
<g clip-path="url(#clip0_1_1031)">
<path d="M16 3.05C15.4 3.3 14.775 3.5 14.125 3.575C14.8 3.175 15.325 2.525 15.575 1.75C14.95 2.125 14.25 2.4 13.5 2.55C12.875 1.9 12.025 1.5 11.075 1.5C9.25 1.5 7.8 2.975 7.8 4.775C7.8 5.025 7.825 5.275 7.875 5.525C5.15 5.4 2.725 4.075 1.125 2.1C0.85 2.575 0.675 3.15 0.675 3.75C0.675 4.9 1.25 5.9 2.125 6.475C1.575 6.45 1.075 6.3 0.65 6.075C0.65 6.1 0.65 6.1 0.65 6.125C0.65 7.725 1.775 9.05 3.275 9.35C3 9.425 2.7 9.475 2.4 9.475C2.2 9.475 1.975 9.45 1.775 9.425C2.2 10.725 3.4 11.675 4.85 11.7C3.725 12.575 2.3 13.1 0.775 13.1C0.5 13.1 0.25 13.075 0 13.05C1.45 13.95 3.175 14.5 5.025 14.5C11.075 14.5 14.375 9.5 14.375 5.15C14.375 5 14.375 4.875 14.375 4.725C15 4.275 15.55 3.7 16 3.05Z" fill="white"/>
</g>
<defs>
<clipPath id="clip0_1_1031">
<rect width="16" height="16" fill="white"/>
</clipPath>
</defs>
</svg>
