<svg width="16" height="16" viewBox="0 0 16 16" fill="none" xmlns="http://www.w3.org/2000/svg">
<path d="M15.85 4.8001C15.85 4.8001 15.7 3.7001 15.2 3.2001C14.6 2.5501 13.9 2.5501 13.6 2.5001C11.35 2.3501 8 2.3501 8 2.3501C8 2.3501 4.65 2.3501 2.4 2.5001C2.1 2.5501 1.4 2.5501 0.8 3.2001C0.3 3.7001 0.15 4.8001 0.15 4.8001C0.15 4.8001 0 6.1001 0 7.4001V8.6001C0 9.9001 0.15 11.2001 0.15 11.2001C0.15 11.2001 0.3 12.3001 0.8 12.8001C1.4 13.4501 2.2 13.4001 2.55 13.5001C3.85 13.6001 8 13.6501 8 13.6501C8 13.6501 11.35 13.6501 13.6 13.5001C13.9 13.4501 14.6 13.4501 15.2 12.8001C15.7 12.3001 15.85 11.2001 15.85 11.2001C15.85 11.2001 16 9.9001 16 8.6001V7.4001C16 6.1001 15.85 4.8001 15.85 4.8001ZM6.35 10.1001V5.6001L10.65 7.8501L6.35 10.1001Z" fill="white"/>
</svg>
