<svg width="63" height="57" viewBox="0 0 63 57" fill="none" xmlns="http://www.w3.org/2000/svg">
<g clip-path="url(#clip0_439_624)">
<path d="M44.6464 53.3436C43.4515 52.8903 42.2565 52.2551 41.6586 51.1666C41.4025 50.7134 41.8291 49.6249 42.0852 49.715C43.7068 50.8035 45.6709 50.3503 46.0975 48.4454C46.3536 47.1758 45.4996 45.9062 44.3047 45.634C43.2802 45.4529 42.0852 45.9062 41.3169 46.9037C40.5485 47.811 40.5485 49.0806 39.9506 50.0781C37.9017 47.9921 35.7679 45.9963 33.7189 43.9103C41.4017 36.0196 52.4141 33.0263 62.9999 32.7542C52.7616 30.7306 41.7867 33.1762 33.5027 39.871C33.2866 39.3813 33.0998 38.8821 32.913 38.3647C32.7425 37.7295 33.3396 37.0951 33.1691 36.4599C32.913 36.0066 32.7425 35.5525 32.7425 35.0083C32.5721 34.7362 32.7425 34.1919 32.913 33.9198C33.0835 33.1034 32.6569 32.3781 32.6569 31.5617C32.4008 25.2128 32.2303 21.9473 32.6569 15.5984C32.913 15.8705 32.6569 16.5057 33.2548 16.4147C33.6814 16.2336 33.2548 15.5984 33.5109 15.7795C33.9375 15.9606 33.9375 16.5959 33.9375 17.2311C34.1936 17.05 33.9375 16.3237 34.1936 16.4147C34.4497 16.4147 34.3641 17.05 34.3641 17.3221C34.3641 17.5032 34.1936 17.5032 34.108 17.5032C34.108 18.5917 34.5346 19.6802 34.3641 20.8588C34.6202 20.6777 34.3641 20.2236 34.6202 20.0425C34.7907 20.0425 34.7907 20.2236 34.7907 20.3146C34.7907 19.4982 34.7907 18.7728 35.0468 18.1376C35.3029 18.5909 35.0468 19.2261 35.2173 19.6793C35.3878 19.2261 35.3878 18.863 35.4734 18.4097C35.6439 17.9565 35.2173 17.5934 35.4734 17.1401L35.6439 17.3212C35.6439 17.0491 35.4734 16.5049 35.8144 16.5049C36.0705 16.3237 35.9848 16.777 35.9848 17.1401C36.241 16.0516 35.8144 15.0541 35.3869 14.1468C35.3869 14.1468 35.5574 13.9656 35.6431 13.9656C35.8992 14.1468 36.0697 14.4189 36.0697 14.782C36.2401 13.8747 35.6431 13.2403 35.0452 12.605C35.0452 12.4239 35.3013 12.4239 35.4718 12.4239C35.7279 12.605 36.0697 12.8772 36.0697 13.2403C36.2401 12.3329 35.4718 11.7887 34.7034 11.5174C34.9595 11.2453 35.4718 11.3363 35.5574 11.6985C35.5574 11.2453 35.1308 11.0633 35.1308 10.6101C34.9603 10.1568 34.3625 10.1568 34.2768 9.70269C34.2768 9.52157 34.4473 9.52157 34.5329 9.52157C34.7034 9.52157 34.7034 9.70269 34.7034 9.79369H34.9595C35.13 9.61256 34.9595 9.15845 35.13 9.15845C35.5566 9.33957 35.7279 10.0658 35.7279 10.6101C35.7279 10.4289 35.7279 9.97481 35.8984 9.97481C36.325 10.2469 36.1545 10.8822 36.1545 11.4264C36.4106 11.2453 36.325 10.7912 36.4106 10.7912C36.8372 11.0633 36.4106 11.6985 36.6667 12.2428C36.6667 12.0617 36.4963 11.7895 36.8372 11.6075C37.0933 12.2428 37.0077 13.0592 37.0933 13.6935C37.0933 13.4214 37.2638 13.2403 37.3494 13.0583C37.5199 13.3304 37.6056 13.6935 37.6056 13.9656C37.3494 14.782 37.0077 15.6885 37.3494 16.5049C37.3494 16.2328 37.179 15.8696 37.5199 15.6885C37.6904 15.6885 37.6904 15.8696 37.6904 15.9606C37.6904 15.6885 37.8609 15.5074 37.9465 15.3254C38.2026 16.2328 38.2026 17.0483 38.2026 18.0466C38.4588 17.8655 38.2026 17.2302 38.4588 17.4114C38.8854 17.5925 38.6292 18.3187 38.4588 18.863C39.4832 16.686 39.825 13.9648 38.7149 11.7887C37.9465 10.5191 36.7516 9.6117 35.8976 8.34208C35.8976 8.16096 35.8976 7.88884 36.068 7.88884C36.4946 8.06996 36.8364 8.34208 36.922 8.7962C37.0357 8.67545 37.1211 8.58474 37.1782 8.52408C37.3486 8.97732 37.6048 9.43144 37.776 9.97568C37.776 9.79456 37.776 9.34044 37.9465 9.34044C38.3731 9.52157 38.3731 10.2478 38.5444 10.792C38.5444 10.6109 38.5444 10.1568 38.7149 10.3388C39.1415 10.6109 39.1415 11.4273 39.3128 12.0617C39.3128 11.8805 39.1423 11.4264 39.4832 11.4264C39.9098 11.6075 39.7394 12.2428 39.7394 12.696C39.7394 12.5149 39.9098 12.4239 39.9098 12.4239C40.3364 12.8772 40.166 13.5124 40.166 13.9656C40.4221 13.7845 40.3364 13.3304 40.4221 13.3304C40.8487 13.7837 40.6782 14.4189 40.8487 15.0533C40.8487 14.7811 40.6782 14.2369 41.0192 13.9648C41.2753 14.418 41.2753 14.8721 41.4457 15.4164C41.6162 14.9631 41.2753 14.509 41.6162 14.1468C41.8723 14.6 41.6162 15.2353 41.7867 15.6885C42.3846 13.6025 41.7867 11.6067 40.5917 9.70269C39.3968 7.97983 37.4335 7.52572 36.1529 6.25611C36.409 5.98398 36.9212 6.43723 37.1773 6.07498C37.291 6.19573 37.3764 6.28644 37.4335 6.3471C37.4335 6.07498 37.6039 5.89385 37.6896 6.07498C37.9457 6.3471 38.1162 6.07498 38.4579 6.07498C38.6284 6.2561 38.7141 6.3471 38.8845 6.52823C38.8845 6.3471 39.055 6.25611 39.055 6.25611C39.2255 6.43723 39.6529 6.43723 39.6529 6.89134C39.7666 6.77059 39.8519 6.67989 39.909 6.61922C40.0795 6.80035 40.1651 6.89135 40.1651 7.25446C40.1651 7.07334 40.1651 6.98234 40.3356 6.98234C40.5917 7.43559 41.104 7.79871 41.104 8.43395C41.104 8.25282 41.2745 8.16183 41.2745 8.16183C41.5306 8.43395 41.2745 8.97819 41.5306 9.25031C41.7011 8.34295 41.5306 7.34546 41.2745 6.52909C40.8479 5.89385 40.0795 5.25948 39.4816 5.07749C37.8601 4.44225 35.8111 4.17013 34.0182 4.89636C33.8478 4.89636 34.4448 3.989 34.7866 3.62675C34.9571 3.62675 35.2132 3.44562 35.3845 3.80787C35.555 3.62675 35.1284 3.35463 35.3845 3.17264C35.6406 3.17264 35.9824 3.35376 36.2385 3.44476C36.2385 3.26363 36.2385 3.17264 36.068 3.17264C36.3241 2.90051 36.6659 3.17264 36.922 3.35376C36.922 3.17264 36.7516 3.17264 36.7516 3.08164C36.7516 2.90051 36.922 2.80952 37.0077 2.90051C37.1618 3.06431 37.5248 3.08164 37.5933 3.41789C37.5615 3.20817 37.4955 2.90051 37.776 2.90051C38.2026 3.08164 38.3739 3.71688 38.6301 3.989C38.8005 1.81203 36.0688 1.26778 34.4473 1.6309C33.4228 1.90302 32.484 2.53826 32.0574 3.71688C31.8013 3.08164 31.6308 2.44727 31.4595 1.6309C31.4595 1.81203 31.4595 1.90302 31.289 2.08415C31.0329 1.44891 31.1185 0.632542 30.8624 -0.00183105C30.6063 0.633409 30.6919 1.44977 30.4358 2.08415C30.2653 1.90302 30.2653 1.81203 30.2653 1.6309C30.0949 2.44727 30.0092 3.08251 29.6675 3.71688C29.2409 2.90051 28.8134 2.17514 27.8746 1.81203C26.4235 1.35878 25.0573 1.5399 23.6918 2.44727C23.094 2.71939 22.9235 3.35463 23.094 3.989C23.3501 3.71688 23.5206 3.08164 23.948 2.90051C24.2041 2.90051 24.1184 3.35376 24.1184 3.53575C24.1184 3.08251 24.545 3.08251 24.7163 2.90051C24.8868 2.90051 24.9725 2.90051 24.9725 3.08164L24.802 3.26276C25.0581 3.44389 25.3999 2.80952 25.656 3.26276L25.4855 3.44389C25.7416 3.62502 26.2539 2.99064 26.51 3.44389C26.3395 3.62502 26.3395 3.71601 26.3395 3.89714C26.9374 3.2619 27.364 4.16926 27.5345 4.7135C27.5345 4.89463 27.364 4.98563 27.364 4.98563C25.5712 4.07826 23.7783 4.53238 22.1568 5.16675C20.5352 5.62 19.7668 7.34373 20.1078 9.24858C20.2783 8.97646 20.1078 8.43221 20.3639 8.16009C20.3639 8.16009 20.5344 8.34122 20.5344 8.43221C20.5344 8.16009 20.7049 7.79697 20.7905 7.52485L20.961 7.70598C20.961 7.43386 21.1315 7.25273 21.2171 7.07074C21.3876 7.07074 21.3876 7.25186 21.3876 7.34286C21.3876 7.07074 21.5581 6.88961 21.6437 6.70762C21.7573 6.82837 21.8427 6.91908 21.8998 6.97974C21.8998 6.52649 22.3264 6.52649 22.4977 6.3445C22.4977 6.3445 22.6682 6.52563 22.6682 6.61662C22.8387 6.4355 22.9243 6.16338 23.2661 6.16338C23.4365 6.16338 23.4365 6.3445 23.4365 6.4355C23.607 6.25437 23.6927 6.16338 24.0344 6.16338C24.2049 6.16338 24.2049 6.3445 24.2049 6.4355C24.3186 6.31475 24.4039 6.22404 24.461 6.16338C24.7171 6.4355 25.2294 5.98225 25.4855 6.3445C25.9121 7.34199 24.7171 7.52398 23.8631 8.24935C23.2653 8.7026 22.6682 9.15672 22.2416 9.79109C21.815 10.4263 21.4732 11.0607 21.2171 11.6959C20.7905 12.9656 20.7905 14.4172 21.0466 15.7778C21.2171 15.3245 20.8762 14.6893 21.2171 14.236C21.4732 14.5082 21.2171 15.0524 21.3876 15.5056C21.5581 15.0524 21.5581 14.5983 21.8142 14.054C22.0703 14.3262 21.8142 14.8704 21.9846 15.1425C22.1551 14.5073 21.9846 13.8729 22.4112 13.4197C22.5817 13.4197 22.4112 13.8729 22.6674 14.0549C22.6674 13.6017 22.4969 12.9664 22.9235 12.5132C22.9235 12.5132 23.094 12.6943 23.094 12.7853C23.094 12.332 22.9235 11.6968 23.3501 11.5157C23.6062 11.5157 23.5206 11.9689 23.5206 12.1509C23.691 11.5157 23.691 10.6993 24.1184 10.4281C24.2889 10.2469 24.2889 10.7002 24.2889 10.8813C24.4594 10.4281 24.4594 9.6117 24.8868 9.4297C25.0573 9.4297 25.0573 9.88295 25.0573 10.0649C25.2278 9.6117 25.4839 9.15758 25.6552 8.61334C25.7688 8.73409 25.8542 8.8248 25.9113 8.88546C26.0818 8.43221 26.3379 7.9781 26.7653 8.0691C27.1919 8.0691 26.9358 8.52234 26.7653 8.70434C25.7408 9.79282 24.7163 10.8813 24.1193 12.1509C23.2653 14.3279 23.3509 16.8671 24.3754 18.9531C24.2049 18.4999 23.9488 17.6835 24.3754 17.5015C24.6315 17.3204 24.3754 17.9547 24.6315 18.1367C24.6315 17.2294 24.6315 16.4139 24.8876 15.4155C25.0581 15.5966 25.1437 15.6876 25.1437 16.0508C25.1437 15.8696 25.1437 15.7786 25.3142 15.7786C25.5703 15.9598 25.4847 16.2319 25.4847 16.595C25.7408 15.7786 25.8265 15.1434 25.3142 14.418C25.0581 13.9648 25.3142 13.6017 25.4847 13.1484C25.6552 13.3295 25.7408 13.4205 25.7408 13.7837C25.9113 13.1484 25.7408 12.332 25.9969 11.6977C26.2531 11.8788 26.1674 12.1509 26.1674 12.3329C26.4235 11.8797 25.9969 11.2444 26.4235 10.8813C26.6797 10.8813 26.4235 11.3346 26.6797 11.5166C26.6797 11.0633 26.5092 10.4281 26.9358 10.0649C27.1062 10.0649 27.1062 10.5182 27.1062 10.7002C27.1062 10.0649 27.3624 9.43057 27.8746 9.15845C28.0451 9.15845 28.1307 9.15845 28.1307 9.33957C27.8746 9.5207 28.1307 9.79282 27.8746 9.97481C28.1307 9.97481 28.3012 10.1559 28.4725 10.2469C27.8746 10.7002 27.6185 11.1543 27.2775 11.7887C27.448 11.5166 27.8754 11.3354 28.1315 11.6075C27.3632 11.8797 26.6805 12.4239 26.7653 13.3304C26.7653 13.0583 27.0214 12.6952 27.3632 12.514C27.5337 12.514 27.7898 12.514 27.7898 12.6952C27.1919 13.3304 26.5948 13.9648 26.7653 14.8721C26.9358 14.6 26.9358 14.0558 27.3632 14.0558C27.5337 14.0558 27.6193 14.2369 27.5337 14.3279C26.7653 15.1443 26.7653 16.2328 26.9358 17.1392C26.9358 16.8671 26.7653 16.3229 27.1062 16.504C27.3624 16.504 27.2767 16.9573 27.2767 17.3204L27.4472 17.1392C27.7033 17.5925 27.2767 17.9556 27.4472 18.4089C27.6177 18.8621 27.6177 19.2252 27.7033 19.6785C27.8738 19.2252 27.5328 18.59 27.8738 18.1367C28.1299 18.772 28.1299 19.5883 28.1299 20.3137C28.1299 20.1326 28.1299 20.0416 28.3004 20.0416C28.5565 20.2227 28.3004 20.6768 28.5565 20.858C28.386 19.7695 28.8126 18.681 28.8126 17.5024C28.6422 17.5024 28.5565 17.5024 28.5565 17.3212C28.5565 17.0491 28.386 16.4139 28.727 16.4139C28.9831 16.2328 28.727 17.0491 28.9831 17.2302C28.8126 16.777 28.9831 16.3229 29.1536 15.9606C29.3241 15.9606 29.3241 15.3254 29.5802 15.7795C29.5802 15.9606 29.5802 16.0516 29.4097 16.0516C29.5802 16.3237 30.0076 16.5049 30.1781 16.2328C30.1781 16.0516 30.0076 15.7795 30.3485 15.5975C30.6047 22.0374 30.6047 25.2119 30.3485 31.742C30.3485 32.0141 30.1781 32.3772 30.0924 32.6493C29.9219 34.1009 30.519 35.1886 29.8363 36.459C29.6658 36.9123 30.0068 37.3664 30.0068 37.9106C30.0908 38.6273 29.8836 39.2548 29.581 39.8597C26.1731 37.3343 22.5385 35.1348 18.4357 33.9319C12.2896 31.846 6.05785 31.3927 -0.00340271 32.6623C10.4967 32.9344 21.5091 36.0179 29.2776 43.8185C27.2286 45.9044 25.0948 47.9003 23.0458 49.9863C22.448 49.0789 22.448 47.8093 21.6796 46.8118C21.0817 46.1766 20.4846 45.9044 19.7163 45.5422C18.35 45.2701 17.1551 45.9954 16.8989 47.447C16.7285 48.5355 17.3255 49.624 18.2652 50.1683C19.1192 50.4404 20.058 49.9871 20.8264 49.715C21.253 49.5339 21.6804 50.6224 21.4243 51.1666C20.8264 52.2551 19.6314 52.8895 18.4365 53.3436C17.6681 52.2551 16.3875 51.892 15.2782 52.5272C14.2537 53.3436 13.9119 54.7042 14.5098 55.8828C14.766 56.5181 15.3638 56.7902 15.9609 56.9713C18.7782 57.2434 21.1682 55.5197 23.2171 53.7968C24.0711 55.3386 25.607 56.5181 27.2294 56.7902C28.5957 56.9713 30.2172 56.3369 30.4733 54.7042C30.6438 53.6157 30.0467 52.5272 29.1071 51.983C28.3387 51.7109 27.656 51.8019 26.8876 52.1641C26.1193 52.4362 26.4611 53.887 25.8632 53.887C25.4366 53.887 24.4969 53.2517 24.8387 52.7985C26.6315 49.9871 29.1071 48.3544 31.4122 46.1774C33.6316 48.3544 36.4489 49.9871 37.9857 52.9796C38.1561 53.1607 37.3878 53.887 36.9612 53.887C36.3633 54.0681 36.7907 53.2517 36.5346 52.7985C36.2785 52.1632 35.6806 51.9821 35.0835 51.8911C33.8886 51.619 32.6936 52.5264 32.4375 53.796C32.267 54.4312 32.4375 55.0656 32.6936 55.5188C34.7426 58.3302 38.3274 55.9721 39.6937 53.796C41.9131 55.7008 44.9009 57.6958 47.7183 56.5172C48.7427 56.0639 49.1693 54.4312 48.4866 53.3427C47.6326 51.8911 45.4988 51.8911 44.6448 53.3427L44.6464 53.3436Z" fill="#EDE6D7"/>
</g>
<defs>
<clipPath id="clip0_439_624">
<rect width="63" height="57" fill="white"/>
</clipPath>
</defs>
</svg>
