<svg width="36" height="36" viewBox="0 0 36 36" fill="none" xmlns="http://www.w3.org/2000/svg">
<path d="M31.5003 21.9375V23.0625C31.5003 23.2117 31.4411 23.3548 31.3356 23.4602C31.2301 23.5657 31.087 23.625 30.9378 23.625C30.7886 23.625 30.6456 23.5657 30.5401 23.4602C30.4346 23.3548 30.3753 23.2117 30.3753 23.0625V21.9375H27.9442L25.3274 33.0587C25.308 33.1413 25.3075 33.2272 25.326 33.31C25.3445 33.3928 25.3815 33.4704 25.4342 33.5369C25.4869 33.6034 25.5539 33.6571 25.6303 33.694C25.7067 33.7309 25.7905 33.75 25.8753 33.75H33.1878C33.337 33.75 33.4801 33.6907 33.5856 33.5852C33.6911 33.4798 33.7503 33.3367 33.7503 33.1875V21.9375H31.5003Z" fill="#C89211"/>
<path d="M10.6729 33.0587L8.05612 21.9375H5.625V23.625C5.625 23.7742 5.56574 23.9173 5.46025 24.0227C5.35476 24.1282 5.21168 24.1875 5.0625 24.1875C4.91332 24.1875 4.77024 24.1282 4.66475 24.0227C4.55926 23.9173 4.5 23.7742 4.5 23.625V21.9375H2.25V33.1875C2.25 33.3367 2.30926 33.4798 2.41475 33.5852C2.52024 33.6907 2.66332 33.75 2.8125 33.75H10.125C10.2098 33.75 10.2936 33.7309 10.37 33.694C10.4464 33.6571 10.5135 33.6034 10.5662 33.5369C10.6189 33.4704 10.6558 33.3928 10.6743 33.31C10.6928 33.2272 10.6923 33.1413 10.6729 33.0587V33.0587Z" fill="#C89211"/>
<path d="M33.1875 2.25H2.8125C2.66332 2.25 2.52024 2.30926 2.41475 2.41475C2.30926 2.52024 2.25 2.66332 2.25 2.8125V20.8125H4.5V19.6875C4.5 19.5383 4.55926 19.3952 4.66475 19.2898C4.77024 19.1843 4.91332 19.125 5.0625 19.125C5.21168 19.125 5.35476 19.1843 5.46025 19.2898C5.56574 19.3952 5.625 19.5383 5.625 19.6875V20.8125H8.41669C12.314 15.8233 14.4882 9.70474 14.6132 3.375H21.3868C21.5118 9.70474 23.686 15.8233 27.5833 20.8125H30.375V19.6875C30.375 19.5383 30.4343 19.3952 30.5398 19.2898C30.6452 19.1843 30.7883 19.125 30.9375 19.125C31.0867 19.125 31.2298 19.1843 31.3352 19.2898C31.4407 19.3952 31.5 19.5383 31.5 19.6875V20.8125H33.75V2.8125C33.75 2.66332 33.6907 2.52024 33.5852 2.41475C33.4798 2.30926 33.3367 2.25 33.1875 2.25V2.25Z" fill="#C89211"/>
</svg>
