<svg width="36" height="36" viewBox="0 0 36 36" fill="none" xmlns="http://www.w3.org/2000/svg">
<g clip-path="url(#clip0_1_1158)">
<path d="M18 17.25C20.2782 17.25 22.125 15.4032 22.125 13.125C22.125 10.8468 20.2782 9 18 9C15.7218 9 13.875 10.8468 13.875 13.125C13.875 15.4032 15.7218 17.25 18 17.25Z" stroke="#C89211" stroke-width="2" stroke-miterlimit="10" stroke-linecap="square"/>
<path d="M16.5 26.25L20.25 30L16.5 33.75" stroke="#C89211" stroke-width="2" stroke-miterlimit="10" stroke-linecap="square"/>
<path d="M18 30C18.7447 30 19.4768 29.9805 20.1953 29.9453C19.4768 29.9805 18.7447 30 18 30ZM18 30C8.8875 30 1.5 27.3135 1.5 24C1.5 23.025 2.14725 22.1123 3.27675 21.3" stroke="#C89211" stroke-width="2" stroke-miterlimit="10" stroke-linecap="square"/>
<path d="M25.8857 29.2718C31.018 28.254 34.5002 26.2748 34.5002 24C34.5002 23.025 33.853 22.1123 32.7235 21.3" stroke="#C89211" stroke-width="2" stroke-miterlimit="10" stroke-linecap="square"/>
<path d="M27 21.75H9C8.40326 21.75 7.83097 21.5129 7.40901 21.091C6.98705 20.669 6.75 20.0967 6.75 19.5V7.5C6.75 6.90326 6.98705 6.33097 7.40901 5.90901C7.83097 5.48705 8.40326 5.25 9 5.25H12.375L14.625 1.5H21.375L23.625 5.25H27C27.5967 5.25 28.169 5.48705 28.591 5.90901C29.0129 6.33097 29.25 6.90326 29.25 7.5V19.5C29.25 20.0967 29.0129 20.669 28.591 21.091C28.169 21.5129 27.5967 21.75 27 21.75Z" stroke="#C89211" stroke-width="2" stroke-miterlimit="10" stroke-linecap="square"/>
</g>
<defs>
<clipPath id="clip0_1_1158">
<rect width="36" height="36" fill="white"/>
</clipPath>
</defs>
</svg>
