<svg width="32" height="32" viewBox="0 0 32 32" fill="none" xmlns="http://www.w3.org/2000/svg">
<path d="M5.5 26H10.5C10.6326 26 10.7598 25.9473 10.8536 25.8536C10.9473 25.7598 11 25.6326 11 25.5V21.5C11 21.3674 10.9473 21.2402 10.8536 21.1464C10.7598 21.0527 10.6326 21 10.5 21H5.5C5.36739 21 5.24021 21.0527 5.14645 21.1464C5.05268 21.2402 5 21.3674 5 21.5V25.5C5 25.6326 5.05268 25.7598 5.14645 25.8536C5.24021 25.9473 5.36739 26 5.5 26Z" fill="#C89211"/>
<path d="M5.5 19H10.5C10.6326 19 10.7598 18.9473 10.8536 18.8536C10.9473 18.7598 11 18.6326 11 18.5V14.5C11 14.3674 10.9473 14.2402 10.8536 14.1464C10.7598 14.0527 10.6326 14 10.5 14H5.5C5.36739 14 5.24021 14.0527 5.14645 14.1464C5.05268 14.2402 5 14.3674 5 14.5V18.5C5 18.6326 5.05268 18.7598 5.14645 18.8536C5.24021 18.9473 5.36739 19 5.5 19Z" fill="#C89211"/>
<path d="M13.5 26H18.5C18.6326 26 18.7598 25.9473 18.8536 25.8536C18.9473 25.7598 19 25.6326 19 25.5V21.5C19 21.3674 18.9473 21.2402 18.8536 21.1464C18.7598 21.0527 18.6326 21 18.5 21H13.5C13.3674 21 13.2402 21.0527 13.1464 21.1464C13.0527 21.2402 13 21.3674 13 21.5V25.5C13 25.6326 13.0527 25.7598 13.1464 25.8536C13.2402 25.9473 13.3674 26 13.5 26Z" fill="#C89211"/>
<path d="M13.5 19H18.5C18.6326 19 18.7598 18.9473 18.8536 18.8536C18.9473 18.7598 19 18.6326 19 18.5V14.5C19 14.3674 18.9473 14.2402 18.8536 14.1464C18.7598 14.0527 18.6326 14 18.5 14H13.5C13.3674 14 13.2402 14.0527 13.1464 14.1464C13.0527 14.2402 13 14.3674 13 14.5V18.5C13 18.6326 13.0527 18.7598 13.1464 18.8536C13.2402 18.9473 13.3674 19 13.5 19Z" fill="#C89211"/>
<path d="M21.5 19H26.5C26.6326 19 26.7598 18.9473 26.8536 18.8536C26.9473 18.7598 27 18.6326 27 18.5V14.5C27 14.3674 26.9473 14.2402 26.8536 14.1464C26.7598 14.0527 26.6326 14 26.5 14H21.5C21.3674 14 21.2402 14.0527 21.1464 14.1464C21.0527 14.2402 21 14.3674 21 14.5V18.5C21 18.6326 21.0527 18.7598 21.1464 18.8536C21.2402 18.9473 21.3674 19 21.5 19Z" fill="#C89211"/>
<path d="M28 5H4C3.20459 5.00079 2.44199 5.31712 1.87956 5.87956C1.31712 6.44199 1.00079 7.20459 1 8V26.5C1.00079 27.2954 1.31712 28.058 1.87956 28.6204C2.44199 29.1829 3.20459 29.4992 4 29.5H28C28.7954 29.4992 29.558 29.1829 30.1204 28.6204C30.6829 28.058 30.9992 27.2954 31 26.5V8C30.9992 7.20459 30.6829 6.44199 30.1204 5.87956C29.558 5.31712 28.7954 5.00079 28 5ZM28 28.5H4C3.46957 28.5 2.96086 28.2893 2.58579 27.9142C2.21071 27.5391 2 27.0304 2 26.5V11.5H30V26.5C30 27.0304 29.7893 27.5391 29.4142 27.9142C29.0391 28.2893 28.5304 28.5 28 28.5Z" fill="#C89211"/>
<path d="M24.5 4V1.5C24.5 1.23478 24.3946 0.98043 24.2071 0.792893C24.0196 0.605357 23.7652 0.5 23.5 0.5C23.2348 0.5 22.9804 0.605357 22.7929 0.792893C22.6054 0.98043 22.5 1.23478 22.5 1.5V4H24.5Z" fill="#C89211"/>
<path d="M9.5 4V1.5C9.5 1.23478 9.39464 0.98043 9.20711 0.792893C9.01957 0.605357 8.76522 0.5 8.5 0.5C8.23478 0.5 7.98043 0.605357 7.79289 0.792893C7.60536 0.98043 7.5 1.23478 7.5 1.5V4H9.5Z" fill="#C89211"/>
</svg>
