<svg width="29" height="29" viewBox="0 0 29 29" fill="none" xmlns="http://www.w3.org/2000/svg">
<g clip-path="url(#clip0_1_1175)">
<path d="M1.20833 12.0831H27.7917C28.031 12.0835 28.265 12.0128 28.4641 11.8801C28.6632 11.7474 28.8184 11.5585 28.9101 11.3374C29.0017 11.1164 29.0256 10.8731 28.9788 10.6384C28.932 10.4037 28.8166 10.1882 28.6472 10.0192L18.9805 0.352554C18.8115 0.183129 18.596 0.0676986 18.3613 0.0208955C18.1266 -0.0259076 17.8834 -0.00197505 17.6623 0.089659C17.4412 0.181293 17.2524 0.336502 17.1196 0.535609C16.9869 0.734716 16.9162 0.968755 16.9167 1.20805V7.24972H1.20833C0.887863 7.24972 0.580519 7.37703 0.353913 7.60363C0.127306 7.83024 0 8.13758 0 8.45805L0 10.8747C0 11.1952 0.127306 11.5025 0.353913 11.7291C0.580519 11.9557 0.887863 12.0831 1.20833 12.0831Z" fill="#C89211"/>
<path d="M27.7919 16.9166H1.20854C0.969243 16.9162 0.735204 16.9868 0.536097 17.1196C0.33699 17.2523 0.181781 17.4412 0.0901473 17.6623C-0.00148677 17.8833 -0.0254193 18.1266 0.0213838 18.3613C0.0681869 18.596 0.183618 18.8115 0.353043 18.9805L10.0197 28.6471C10.1321 28.7593 10.2656 28.8481 10.4123 28.9087C10.5591 28.9692 10.7164 29.0002 10.8752 29C11.0337 29.0006 11.1906 28.9694 11.3368 28.9081C11.5578 28.8168 11.7467 28.6619 11.8796 28.4632C12.0125 28.2644 12.0835 28.0307 12.0835 27.7916V21.75H27.7919C28.1123 21.75 28.4197 21.6227 28.6463 21.396C28.8729 21.1694 29.0002 20.8621 29.0002 20.5416V18.125C29.0002 17.8045 28.8729 17.4971 28.6463 17.2705C28.4197 17.0439 28.1123 16.9166 27.7919 16.9166Z" fill="#C89211"/>
</g>
<defs>
<clipPath id="clip0_1_1175">
<rect width="29" height="29" fill="white"/>
</clipPath>
</defs>
</svg>
